NotoSerifBengali-SemiCondensedExtraBold.ufo
<glyph name="exclam" format="2">
  <advance width="372.5690476190477"/>
  <unicode hex="0021"/>
  <outline>
    <contour>
      <point x="164.7849206349206" y="225.65079365079364" type="line"/>
      <point x="221.3253968253968" y="225.65079365079364" type="line"/>
      <point x="275.1634920634921" y="714.0" type="line"/>
      <point x="110.94682539682539" y="714.0" type="line"/>
    </contour>
    <contour>
      <point x="194.0952380952381" y="-8.0" type="curve" smooth="yes"/>
      <point x="235.13492063492063" y="-8.0"/>
      <point x="270.9738095238095" y="11.381746031746031"/>
      <point x="270.9738095238095" y="69.97380952380954" type="curve" smooth="yes"/>
      <point x="270.9738095238095" y="129.25952380952378"/>
      <point x="235.13492063492063" y="148.0079365079365"/>
      <point x="194.0952380952381" y="148.0079365079365" type="curve" smooth="yes"/>
      <point x="150.54285714285714" y="148.0079365079365"/>
      <point x="116.76428571428572" y="129.25952380952378"/>
      <point x="116.76428571428572" y="69.97380952380954" type="curve" smooth="yes"/>
      <point x="116.76428571428572" y="11.381746031746031"/>
      <point x="150.54285714285714" y="-8.0"/>
    </contour>
  </outline>
</glyph>
<glyph name="quotedbl" format="2">
  <advance width="478.1285714285714"/>
  <unicode hex="0022"/>
  <outline>
    <contour>
      <point x="315.7452380952381" y="443.95873015873013" type="line"/>
      <point x="378.0555555555556" y="443.95873015873013" type="line"/>
      <point x="415.1031746031746" y="714.0" type="line"/>
      <point x="268.15714285714284" y="714.0" type="line"/>
    </contour>
    <contour>
      <point x="105.48650793650793" y="443.95873015873013" type="line"/>
      <point x="167.9174603174603" y="443.95873015873013" type="line"/>
      <point x="210.66507936507938" y="714.0" type="line"/>
      <point x="62.738888888888894" y="714.0" type="line"/>
    </contour>
  </outline>
</glyph>
<glyph name="numbersign" format="2">
  <advance width="523.2412698412699"/>
  <unicode hex="0023"/>
  <outline>
    <contour>
      <point x="71.19603174603174" y="0.0" type="line"/>
      <point x="142.3849206349206" y="0.0" type="line"/>
      <point x="180.38492063492063" y="200.50317460317459" type="line"/>
      <point x="280.50396825396825" y="200.50317460317459" type="line"/>
      <point x="243.41825396825396" y="0.0" type="line"/>
      <point x="314.60714285714283" y="0.0" type="line"/>
      <point x="351.4063492063492" y="200.50317460317459" type="line"/>
      <point x="469.3595238095238" y="200.50317460317459" type="line"/>
      <point x="469.3595238095238" y="268.6920634920635" type="line"/>
      <point x="365.52142857142854" y="268.6920634920635" type="line"/>
      <point x="399.4063492063492" y="450.1071428571429" type="line"/>
      <point x="501.3595238095238" y="450.1071428571429" type="line"/>
      <point x="501.3595238095238" y="519.4968253968254" type="line"/>
      <point x="412.4412698412699" y="519.4968253968254" type="line"/>
      <point x="449.6071428571429" y="714.0" type="line"/>
      <point x="378.252380952381" y="714.0" type="line"/>
      <point x="341.2523809523809" y="519.4968253968254" type="line"/>
      <point x="241.1333333333333" y="519.4968253968254" type="line"/>
      <point x="277.38492063492066" y="714.0" type="line"/>
      <point x="205.19603174603176" y="714.0" type="line"/>
      <point x="170.57777777777778" y="519.4968253968254" type="line"/>
      <point x="54.08253968253968" y="519.4968253968254" type="line"/>
      <point x="54.08253968253968" y="450.1071428571429" type="line"/>
      <point x="157.115873015873" y="450.1071428571429" type="line"/>
      <point x="121.94444444444444" y="268.6920634920635" type="line"/>
      <point x="21.796031746031744" y="268.6920634920635" type="line"/>
      <point x="21.796031746031744" y="200.50317460317459" type="line"/>
      <point x="109.82936507936509" y="200.50317460317459" type="line"/>
    </contour>
    <contour>
      <point x="193.41984126984124" y="268.6920634920635" type="line"/>
      <point x="228.3849206349206" y="450.1071428571429" type="line"/>
      <point x="329.50396825396825" y="450.1071428571429" type="line"/>
      <point x="294.965873015873" y="268.6920634920635" type="line"/>
    </contour>
  </outline>
</glyph>
<glyph name="percent" format="2">
  <advance width="847.9174603174602"/>
  <unicode hex="0025"/>
  <outline>
    <contour>
      <point x="224.77936507936508" y="0.0" type="line"/>
      <point x="298.04603174603164" y="0.0" type="line"/>
      <point x="620.2182539682541" y="714.0" type="line"/>
      <point x="547.5849206349205" y="714.0" type="line"/>
    </contour>
    <contour>
      <point x="200.0452380952381" y="280.0" type="curve" smooth="yes"/>
      <point x="314.5190476190476" y="280.0"/>
      <point x="370.06269841269835" y="369.0"/>
      <point x="370.06269841269835" y="503.0" type="curve"/>
      <point x="370.06269841269835" y="637.0"/>
      <point x="314.5190476190477" y="724.0"/>
      <point x="201.0452380952381" y="724.0" type="curve" smooth="yes"/>
      <point x="81.22460317460317" y="724.0"/>
      <point x="31.495238095238093" y="637.0"/>
      <point x="31.495238095238093" y="503.0" type="curve" smooth="yes"/>
      <point x="31.495238095238093" y="369.0"/>
      <point x="81.22460317460319" y="280.0"/>
    </contour>
    <contour>
      <point x="200.24603174603175" y="328.7730158730159" type="curve" smooth="yes"/>
      <point x="154.38968253968258" y="328.7730158730159"/>
      <point x="136.484126984127" y="392.31111111111113"/>
      <point x="136.484126984127" y="503.0" type="curve"/>
      <point x="136.484126984127" y="611.6888888888888"/>
      <point x="154.10317460317464" y="674.2269841269842"/>
      <point x="201.0452380952381" y="674.2269841269842" type="curve" smooth="yes"/>
      <point x="247.8214285714286" y="674.2269841269842"/>
      <point x="263.09365079365085" y="611.6888888888889"/>
      <point x="263.09365079365085" y="503.0" type="curve" smooth="yes"/>
      <point x="263.09365079365085" y="392.3111111111111"/>
      <point x="247.8214285714286" y="328.7730158730159"/>
    </contour>
    <contour>
      <point x="647.5857142857143" y="-10.0" type="curve" smooth="yes"/>
      <point x="761.6928571428573" y="-10.0"/>
      <point x="817.402380952381" y="79.0"/>
      <point x="817.402380952381" y="213.0" type="curve" smooth="yes"/>
      <point x="817.402380952381" y="347.0"/>
      <point x="761.6928571428572" y="434.0"/>
      <point x="648.5857142857143" y="434.0" type="curve" smooth="yes"/>
      <point x="528.7650793650793" y="434.0"/>
      <point x="479.03571428571433" y="347.0"/>
      <point x="479.03571428571433" y="213.0" type="curve" smooth="yes"/>
      <point x="479.03571428571433" y="79.0"/>
      <point x="528.7650793650793" y="-10.0"/>
    </contour>
    <contour>
      <point x="647.5857142857143" y="38.77301587301587" type="curve" smooth="yes"/>
      <point x="601.9301587301586" y="38.77301587301587"/>
      <point x="584.0246031746032" y="102.3111111111111"/>
      <point x="584.0246031746032" y="213.0" type="curve" smooth="yes"/>
      <point x="584.0246031746032" y="321.6888888888889"/>
      <point x="601.6436507936509" y="384.2269841269841"/>
      <point x="648.4198412698414" y="384.2269841269841" type="curve" smooth="yes"/>
      <point x="695.1611111111112" y="384.2269841269841"/>
      <point x="710.3476190476191" y="321.6888888888889"/>
      <point x="710.3476190476191" y="213.0" type="curve" smooth="yes"/>
      <point x="710.3476190476191" y="102.31111111111113"/>
      <point x="695.1611111111112" y="38.77301587301587"/>
    </contour>
  </outline>
</glyph>
<glyph name="quotesingle" format="2">
  <advance width="273.6904761904762"/>
  <unicode hex="0027"/>
  <outline>
    <contour>
      <point x="105.48650793650793" y="443.95873015873013" type="line"/>
      <point x="167.9174603174603" y="443.95873015873013" type="line"/>
      <point x="210.66507936507938" y="714.0" type="line"/>
      <point x="62.738888888888894" y="714.0" type="line"/>
    </contour>
  </outline>
</glyph>
<glyph name="parenleft" format="2">
  <advance width="406.90000000000003"/>
  <unicode hex="0028"/>
  <outline>
    <contour>
      <point x="336.6119047619047" y="-137.67222222222225" type="curve"/>
      <point x="336.6119047619047" y="-75.78968253968254" type="line"/>
      <point x="220.49603174603178" y="6.0095238095238095"/>
      <point x="196.1904761904762" y="159.0"/>
      <point x="196.1904761904762" y="318.0" type="curve" smooth="yes"/>
      <point x="196.1904761904762" y="476.0"/>
      <point x="220.49603174603178" y="627.276984126984"/>
      <point x="336.6119047619047" y="709.9904761904762" type="curve"/>
      <point x="336.6119047619047" y="770.2198412698411" type="line"/>
      <point x="126.4563492063492" y="683.7039682539682"/>
      <point x="43.78809523809524" y="535.5603174603175"/>
      <point x="43.78809523809524" y="318.0" type="curve" smooth="yes"/>
      <point x="43.78809523809524" y="98.98730158730159"/>
      <point x="126.4563492063492" y="-50.62380952380953"/>
    </contour>
  </outline>
</glyph>
<glyph name="parenright" format="2">
  <advance width="425.2666666666667"/>
  <unicode hex="0029"/>
  <outline>
    <contour>
      <point x="88.82063492063492" y="-137.67222222222225" type="line"/>
      <point x="298.97619047619054" y="-50.62380952380953"/>
      <point x="381.47857142857146" y="98.98730158730159"/>
      <point x="381.47857142857146" y="318.0" type="curve" smooth="yes"/>
      <point x="381.47857142857146" y="535.5603174603175"/>
      <point x="298.97619047619054" y="683.7039682539682"/>
      <point x="88.82063492063492" y="770.2198412698411" type="curve"/>
      <point x="88.82063492063492" y="709.9904761904762" type="line"/>
      <point x="203.93650793650792" y="627.276984126984"/>
      <point x="229.24206349206347" y="476.0"/>
      <point x="229.24206349206347" y="318.0" type="curve" smooth="yes"/>
      <point x="229.24206349206347" y="159.0"/>
      <point x="203.93650793650792" y="6.0095238095238095"/>
      <point x="88.82063492063492" y="-75.78968253968254" type="curve"/>
    </contour>
  </outline>
</glyph>
<glyph name="asterisk" format="2">
  <advance width="467.781746031746"/>
  <unicode hex="002A"/>
  <outline>
    <contour>
      <point x="182.79523809523812" y="367.7952380952381" type="line"/>
      <point x="286.7492063492063" y="367.7952380952381" type="line"/>
      <point x="253.4579365079365" y="530.0412698412698" type="line"/>
      <point x="392.98015873015873" y="426.9365079365079" type="line"/>
      <point x="435.81904761904764" y="522.929365079365" type="line"/>
      <point x="291.3206349206349" y="563.6238095238094" type="line"/>
      <point x="435.81904761904764" y="604.865873015873" type="line"/>
      <point x="392.98015873015873" y="700.85873015873" type="line"/>
      <point x="253.4579365079365" y="597.7341269841269" type="line"/>
      <point x="287.74920634920636" y="760.0" type="line"/>
      <point x="182.79523809523812" y="760.0" type="line"/>
      <point x="213.61904761904762" y="596.186507936508" type="line"/>
      <point x="74.73015873015873" y="702.8587301587303" type="line"/>
      <point x="32.891269841269846" y="605.865873015873" type="line"/>
      <point x="177.38968253968255" y="563.6238095238094" type="line"/>
      <point x="32.891269841269846" y="521.929365079365" type="line"/>
      <point x="74.73015873015873" y="425.2833333333333" type="line"/>
      <point x="213.25238095238092" y="530.9555555555554" type="line"/>
    </contour>
  </outline>
</glyph>
<glyph name="plus" format="2">
  <advance width="509.8666666666667"/>
  <unicode hex="002B"/>
  <outline>
    <contour>
      <point x="219.05714285714285" y="143.0" type="line"/>
      <point x="290.0103174603175" y="143.0" type="line"/>
      <point x="290.0103174603175" y="322.99047619047616" type="line"/>
      <point x="455.5698412698413" y="322.99047619047616" type="line"/>
      <point x="455.5698412698413" y="392.0095238095237" type="line"/>
      <point x="290.0103174603175" y="392.0095238095237" type="line"/>
      <point x="290.0103174603175" y="572.0" type="line"/>
      <point x="219.05714285714285" y="572.0" type="line"/>
      <point x="219.05714285714285" y="392.0095238095237" type="line"/>
      <point x="54.2968253968254" y="392.0095238095237" type="line"/>
      <point x="54.2968253968254" y="322.99047619047616" type="line"/>
      <point x="219.05714285714285" y="322.99047619047616" type="line"/>
    </contour>
  </outline>
</glyph>
<glyph name="comma" format="2">
  <advance width="315.418253968254"/>
  <unicode hex="002C"/>
  <outline>
    <contour>
      <point x="81.71269841269843" y="-154.0" type="line"/>
      <point x="203.01587301587304" y="-119.53253968253968"/>
      <point x="248.57936507936512" y="-44.517460317460326"/>
      <point x="248.57936507936512" y="39.13095238095238" type="curve" smooth="yes"/>
      <point x="248.57936507936512" y="106.8031746031746"/>
      <point x="219.02539682539683" y="148.0079365079365"/>
      <point x="166.3777777777778" y="148.0079365079365" type="curve" smooth="yes"/>
      <point x="127.71428571428571" y="148.0079365079365"/>
      <point x="95.50317460317461" y="124.2595238095238"/>
      <point x="95.50317460317461" y="80.6015873015873" type="curve" smooth="yes"/>
      <point x="95.50317460317461" y="3.9904761904761905"/>
      <point x="163.43968253968254" y="13.186507936507939"/>
      <point x="163.43968253968254" y="-24.366666666666667" type="curve" smooth="yes"/>
      <point x="163.43968253968254" y="-61.0"/>
      <point x="136.07222222222222" y="-83.22698412698412"/>
      <point x="81.71269841269843" y="-103.86031746031746" type="curve"/>
    </contour>
  </outline>
</glyph>
<glyph name="hyphen" format="2">
  <advance width="290.47063492063495"/>
  <unicode hex="002D"/>
  <outline>
    <contour>
      <point x="23.533333333333335" y="221.5190476190476" type="line"/>
      <point x="266.9373015873016" y="221.5190476190476" type="line"/>
      <point x="266.9373015873016" y="323.4809523809524" type="line"/>
      <point x="23.533333333333335" y="323.4809523809524" type="line"/>
    </contour>
  </outline>
</glyph>
<glyph name="period" format="2">
  <advance width="314.04603174603176"/>
  <unicode hex="002E"/>
  <outline>
    <contour>
      <point x="176.69920634920638" y="-8.0" type="curve" smooth="yes"/>
      <point x="217.73888888888888" y="-8.0"/>
      <point x="253.31111111111116" y="11.381746031746031"/>
      <point x="253.31111111111116" y="69.97380952380954" type="curve" smooth="yes"/>
      <point x="253.31111111111116" y="129.25952380952378"/>
      <point x="217.73888888888888" y="148.0079365079365"/>
      <point x="176.69920634920638" y="148.0079365079365" type="curve" smooth="yes"/>
      <point x="133.14682539682542" y="148.0079365079365"/>
      <point x="99.4888888888889" y="129.25952380952378"/>
      <point x="99.4888888888889" y="69.97380952380954" type="curve" smooth="yes"/>
      <point x="99.4888888888889" y="11.381746031746031"/>
      <point x="133.14682539682542" y="-8.0"/>
    </contour>
  </outline>
</glyph>
<glyph name="slash" format="2">
  <advance width="269.5706349206349"/>
  <unicode hex="002F"/>
  <outline>
    <contour>
      <point x="0.0" y="-121.0" type="line"/>
      <point x="68.20079365079364" y="-121.00000000000001" type="line"/>
      <point x="269.5706349206349" y="760.0" type="line"/>
      <point x="203.73650793650793" y="760.0" type="line"/>
    </contour>
  </outline>
</glyph>
<glyph name="zero" format="2">
  <advance width="523.2412698412699"/>
  <unicode hex="0030"/>
  <outline>
    <contour>
      <point x="261.9373015873016" y="-10.0" type="curve" smooth="yes"/>
      <point x="425.5071428571428" y="-10.0"/>
      <point x="491.379365079365" y="135.23650793650793"/>
      <point x="491.379365079365" y="358.0" type="curve" smooth="yes"/>
      <point x="491.379365079365" y="582.1301587301588"/>
      <point x="425.8388888888889" y="724.0"/>
      <point x="262.9373015873016" y="724.0" type="curve" smooth="yes"/>
      <point x="90.22142857142856" y="724.0"/>
      <point x="31.495238095238097" y="581.2309523809523"/>
      <point x="31.495238095238097" y="359.0" type="curve" smooth="yes"/>
      <point x="31.495238095238097" y="134.70396825396824"/>
      <point x="90.3873015873016" y="-10.0"/>
    </contour>
    <contour>
      <point x="261.9373015873016" y="53.13968253968254" type="curve" smooth="yes"/>
      <point x="192.78095238095239" y="53.13968253968254"/>
      <point x="177.58174603174604" y="165.67777777777778"/>
      <point x="177.58174603174604" y="358.0" type="curve" smooth="yes"/>
      <point x="177.58174603174604" y="550.3222222222222"/>
      <point x="192.78095238095239" y="660.8603174603176"/>
      <point x="262.9373015873016" y="660.8603174603176" type="curve" smooth="yes"/>
      <point x="330.7269841269842" y="660.8603174603176"/>
      <point x="345.45873015873013" y="550.3222222222222"/>
      <point x="345.45873015873013" y="358.0" type="curve" smooth="yes"/>
      <point x="345.45873015873013" y="165.67777777777778"/>
      <point x="330.7269841269842" y="53.13968253968254"/>
    </contour>
  </outline>
</glyph>
<glyph name="one" format="2">
  <advance width="523.2412698412699"/>
  <unicode hex="0031"/>
  <outline>
    <contour>
      <point x="85.89523809523808" y="0.0" type="line"/>
      <point x="474.90952380952376" y="0.0" type="line"/>
      <point x="474.90952380952376" y="51.672222222222224" type="line"/>
      <point x="409.5142857142858" y="51.672222222222224" type="line" smooth="yes"/>
      <point x="370.1103174603175" y="51.672222222222224"/>
      <point x="354.3619047619047" y="72.61111111111111"/>
      <point x="354.3619047619047" y="117.29603174603174" type="curve" smooth="yes"/>
      <point x="354.3619047619047" y="718.0" type="line"/>
      <point x="248.502380952381" y="718.0" type="line"/>
      <point x="183.06825396825397" y="667.3007936507936" type="line" smooth="yes"/>
      <point x="120.69999999999999" y="618.868253968254"/>
      <point x="76.0563492063492" y="601.2349206349207"/>
      <point x="38.62301587301587" y="591.2349206349207" type="curve"/>
      <point x="38.62301587301587" y="547.3619047619048"/>
      <point x="62.8190476190476" y="519.684126984127"/>
      <point x="93.10079365079366" y="519.684126984127" type="curve" smooth="yes"/>
      <point x="130.73492063492063" y="519.684126984127"/>
      <point x="167.10238095238094" y="558.4801587301587"/>
      <point x="214.06904761904764" y="618.847619047619" type="curve"/>
      <point x="214.06904761904764" y="117.29603174603174" type="line" smooth="yes"/>
      <point x="214.06904761904764" y="65.23492063492063"/>
      <point x="192.5920634920635" y="51.672222222222224"/>
      <point x="159.09761904761905" y="51.672222222222224" type="curve" smooth="yes"/>
      <point x="85.89523809523808" y="51.672222222222224" type="line"/>
    </contour>
  </outline>
</glyph>
<glyph name="two" format="2">
  <advance width="523.2412698412699"/>
  <unicode hex="0032"/>
  <outline>
    <contour>
      <point x="34.38015873015873" y="0.0" type="line"/>
      <point x="477.90952380952376" y="0.0" type="line"/>
      <point x="482.54285714285714" y="205.59920634920633" type="line"/>
      <point x="426.6746031746032" y="205.59920634920633" type="line"/>
      <point x="419.2126984126984" y="176.01269841269843" type="line" smooth="yes"/>
      <point x="407.86587301587304" y="131.48571428571427"/>
      <point x="379.2444444444445" y="106.3888888888889"/>
      <point x="341.4261904761904" y="106.3888888888889" type="curve" smooth="yes"/>
      <point x="128.1809523809524" y="106.3888888888889" type="line"/>
      <point x="242.5484126984127" y="223.40555555555557" type="line" smooth="yes"/>
      <point x="395.69603174603174" y="374.1253968253968"/>
      <point x="459.54206349206345" y="454.26190476190476"/>
      <point x="459.54206349206345" y="555.3984126984126" type="curve" smooth="yes"/>
      <point x="459.54206349206345" y="658.1468253968253"/>
      <point x="384.19365079365076" y="724.0"/>
      <point x="243.88174603174602" y="724.0" type="curve" smooth="yes"/>
      <point x="106.67936507936508" y="724.0"/>
      <point x="38.43650793650794" y="659.1880952380952"/>
      <point x="38.43650793650794" y="587.2626984126985" type="curve" smooth="yes"/>
      <point x="38.43650793650794" y="518.5658730158731"/>
      <point x="90.35873015873014" y="496.54999999999995"/>
      <point x="157.26349206349204" y="496.54999999999995" type="curve"/>
      <point x="157.26349206349204" y="606.2349206349207"/>
      <point x="180.3936507936508" y="664.3277777777778"/>
      <point x="243.88174603174602" y="664.3277777777778" type="curve" smooth="yes"/>
      <point x="288.5849206349206" y="664.3277777777778"/>
      <point x="316.8373015873016" y="628.3761904761906"/>
      <point x="316.8373015873016" y="550.3420634920636" type="curve" smooth="yes"/>
      <point x="316.8373015873016" y="450.3373015873016"/>
      <point x="285.59603174603177" y="377.5753968253968"/>
      <point x="172.16190476190476" y="250.8579365079365" type="curve" smooth="yes"/>
      <point x="34.38015873015873" y="96.78730158730158" type="line"/>
    </contour>
  </outline>
</glyph>
<glyph name="three" format="2">
  <advance width="523.2412698412699"/>
  <unicode hex="0033"/>
  <outline>
    <contour>
      <point x="228.87142857142857" y="-10.0" type="curve" smooth="yes"/>
      <point x="358.58492063492065" y="-10.0"/>
      <point x="482.91507936507935" y="43.0"/>
      <point x="482.91507936507935" y="204.4825396825397" type="curve" smooth="yes"/>
      <point x="482.91507936507935" y="320.44920634920635"/>
      <point x="392.64920634920634" y="366.0912698412699"/>
      <point x="316.8539682539683" y="380.4674603174603" type="curve"/>
      <point x="397.8269841269841" y="408.67777777777775"/>
      <point x="459.5476190476191" y="470.4730158730158"/>
      <point x="459.5476190476191" y="560.4730158730158" type="curve" smooth="yes"/>
      <point x="459.5476190476191" y="664.6333333333333"/>
      <point x="376.1841269841269" y="724.0"/>
      <point x="243.1126984126984" y="724.0" type="curve" smooth="yes"/>
      <point x="106.27698412698415" y="724.0"/>
      <point x="37.601587301587294" y="664.4642857142857"/>
      <point x="37.601587301587294" y="593.373015873016" type="curve" smooth="yes"/>
      <point x="37.601587301587294" y="534.313492063492"/>
      <point x="82.7468253968254" y="510.52936507936516"/>
      <point x="155.09365079365082" y="510.52936507936516" type="curve"/>
      <point x="155.09365079365082" y="589.1825396825398"/>
      <point x="171.4650793650794" y="664.3277777777778"/>
      <point x="237.95238095238096" y="664.3277777777778" type="curve" smooth="yes"/>
      <point x="288.4095238095239" y="664.3277777777778"/>
      <point x="315.3753968253968" y="619.8753968253967"/>
      <point x="315.3753968253968" y="547.2515873015873" type="curve" smooth="yes"/>
      <point x="315.3753968253968" y="458.29603174603176"/>
      <point x="278.2444444444444" y="399.6626984126984"/>
      <point x="197.62380952380954" y="399.6626984126984" type="curve"/>
      <point x="137.37936507936507" y="399.6626984126984" type="line"/>
      <point x="137.37936507936507" y="339.5230158730159" type="line"/>
      <point x="193.99603174603175" y="339.5230158730159" type="line" smooth="yes"/>
      <point x="287.2571428571428" y="339.5230158730159"/>
      <point x="337.9087301587301" y="284.15634920634926"/>
      <point x="337.9087301587301" y="205.4825396825397" type="curve" smooth="yes"/>
      <point x="337.9087301587301" y="91.21031746031746"/>
      <point x="284.2119047619048" y="57.96825396825397"/>
      <point x="223.63015873015874" y="57.96825396825397" type="curve" smooth="yes"/>
      <point x="155.70714285714286" y="57.96825396825397"/>
      <point x="108.69126984126986" y="104.64603174603174"/>
      <point x="108.69126984126986" y="187.6142857142857" type="curve"/>
      <point x="65.06825396825397" y="187.6142857142857"/>
      <point x="27.883333333333333" y="161.5190476190476"/>
      <point x="27.883333333333333" y="111.56031746031745" type="curve" smooth="yes"/>
      <point x="27.883333333333333" y="45.72857142857143"/>
      <point x="86.09126984126985" y="-10.0"/>
    </contour>
  </outline>
</glyph>
<glyph name="four" format="2">
  <advance width="523.2412698412699"/>
  <unicode hex="0034"/>
  <outline>
    <contour>
      <point x="167.8849206349206" y="0.0" type="line"/>
      <point x="497.49444444444435" y="0.0" type="line"/>
      <point x="497.49444444444435" y="51.672222222222224" type="line"/>
      <point x="485.39365079365075" y="51.672222222222224" type="line" smooth="yes"/>
      <point x="443.32698412698414" y="51.672222222222224"/>
      <point x="408.52698412698413" y="60.672222222222224"/>
      <point x="408.52698412698413" y="123.67222222222223" type="curve" smooth="yes"/>
      <point x="408.52698412698413" y="187.2420634920635" type="line"/>
      <point x="505.1460317460318" y="187.2420634920635" type="line"/>
      <point x="505.1460317460318" y="252.0" type="line"/>
      <point x="408.52698412698413" y="252.0" type="line"/>
      <point x="408.52698412698413" y="714.0" type="line"/>
      <point x="275.4960317460317" y="714.0" type="line"/>
      <point x="12.438095238095237" y="245.7579365079365" type="line"/>
      <point x="12.438095238095237" y="187.2420634920635" type="line"/>
      <point x="270.78730158730156" y="187.2420634920635" type="line"/>
      <point x="270.78730158730156" y="123.67222222222223" type="line" smooth="yes"/>
      <point x="270.78730158730156" y="60.672222222222224"/>
      <point x="236.3190476190476" y="51.672222222222224"/>
      <point x="194.08650793650793" y="51.672222222222224" type="curve" smooth="yes"/>
      <point x="167.8849206349206" y="51.672222222222224" type="line"/>
    </contour>
    <contour>
      <point x="81.52857142857142" y="252.0" type="line"/>
      <point x="203.4920634920635" y="470.0404761904762" type="line" smooth="yes"/>
      <point x="221.55158730158732" y="504.57460317460317"/>
      <point x="263.28571428571433" y="582.9174603174604"/>
      <point x="277.42063492063494" y="619.2706349206348" type="curve"/>
      <point x="272.4206349206349" y="557.2706349206348"/>
      <point x="270.78730158730156" y="489.5769841269841"/>
      <point x="270.78730158730156" y="431.5769841269841" type="curve" smooth="yes"/>
      <point x="270.78730158730156" y="252.0" type="line"/>
    </contour>
  </outline>
</glyph>
<glyph name="five" format="2">
  <advance width="523.2412698412699"/>
  <unicode hex="0035"/>
  <outline>
    <contour>
      <point x="229.50396825396828" y="-10.0" type="curve" smooth="yes"/>
      <point x="341.88412698412696" y="-10.0"/>
      <point x="474.1563492063492" y="50.9484126984127"/>
      <point x="474.1563492063492" y="219.54761904761907" type="curve" smooth="yes"/>
      <point x="474.1563492063492" y="362.29603174603176"/>
      <point x="379.15396825396823" y="433.6626984126984"/>
      <point x="233.29444444444445" y="433.6626984126984" type="curve" smooth="yes"/>
      <point x="196.22539682539684" y="433.6626984126984"/>
      <point x="150.76825396825396" y="426.2103174603174"/>
      <point x="130.70238095238096" y="417.84365079365074" type="curve"/>
      <point x="147.07460317460317" y="607.9777777777779" type="line"/>
      <point x="340.69682539682543" y="607.9777777777779" type="line" smooth="yes"/>
      <point x="370.6388888888889" y="607.9777777777779"/>
      <point x="377.4079365079365" y="594.1436507936509"/>
      <point x="383.4531746031746" y="568.0079365079365" type="curve" smooth="yes"/>
      <point x="391.281746031746" y="535.7769841269842" type="line"/>
      <point x="445.2357142857143" y="535.7769841269842" type="line"/>
      <point x="440.602380952381" y="714.0" type="line"/>
      <point x="90.92777777777778" y="714.0" type="line"/>
      <point x="59.62619047619047" y="367.29047619047617" type="line"/>
      <point x="98.70158730158731" y="350.2865079365079" type="line"/>
      <point x="127.26428571428572" y="359.53809523809525"/>
      <point x="156.09444444444443" y="369.5230158730159"/>
      <point x="202.7619047619048" y="369.5230158730159" type="curve" smooth="yes"/>
      <point x="283.02142857142854" y="369.5230158730159"/>
      <point x="329.69761904761896" y="320.2515873015873"/>
      <point x="329.69761904761896" y="219.54761904761907" type="curve" smooth="yes"/>
      <point x="329.69761904761896" y="95.31111111111112"/>
      <point x="276.6452380952381" y="57.60714285714286"/>
      <point x="215.01269841269843" y="57.60714285714286" type="curve" smooth="yes"/>
      <point x="138.47777777777776" y="57.60714285714286"/>
      <point x="112.24920634920635" y="119.92142857142856"/>
      <point x="112.24920634920635" y="177.45396825396827" type="curve"/>
      <point x="67.31904761904764" y="177.45396825396827"/>
      <point x="37.013492063492066" y="154.3738095238095"/>
      <point x="37.013492063492066" y="109.615873015873" type="curve" smooth="yes"/>
      <point x="37.013492063492066" y="49.4468253968254"/>
      <point x="88.60079365079365" y="-10.0"/>
    </contour>
  </outline>
</glyph>
<glyph name="six" format="2">
  <advance width="523.2412698412699"/>
  <unicode hex="0036"/>
  <outline>
    <contour>
      <point x="274.20396825396824" y="-10.0" type="curve" smooth="yes"/>
      <point x="416.8738095238095" y="-10.0"/>
      <point x="490.7753968253969" y="88.0"/>
      <point x="490.7753968253969" y="230.54761904761907" type="curve" smooth="yes"/>
      <point x="490.7753968253969" y="360.29603174603176"/>
      <point x="416.8738095238095" y="437.29603174603176"/>
      <point x="303.70476190476194" y="437.29603174603176" type="curve" smooth="yes"/>
      <point x="239.8238095238095" y="437.29603174603176"/>
      <point x="201.7404761904762" y="417.22539682539684"/>
      <point x="176.20158730158732" y="398.14920634920634" type="curve"/>
      <point x="183.58333333333334" y="569.970634920635"/>
      <point x="224.9190476190476" y="666.3277777777778"/>
      <point x="297.80396825396826" y="666.3277777777778" type="curve" smooth="yes"/>
      <point x="347.36507936507934" y="666.3277777777778"/>
      <point x="364.5301587301588" y="603.6285714285715"/>
      <point x="364.5301587301588" y="538.8214285714287" type="curve"/>
      <point x="443.6595238095238" y="538.8214285714287"/>
      <point x="473.48888888888894" y="572.2880952380951"/>
      <point x="473.48888888888894" y="614.3373015873017" type="curve" smooth="yes"/>
      <point x="473.48888888888894" y="671.452380952381"/>
      <point x="425.36269841269836" y="724.0"/>
      <point x="304.3119047619047" y="724.0" type="curve" smooth="yes"/>
      <point x="127.02539682539683" y="724.0"/>
      <point x="41.73253968253968" y="562.3007936507936"/>
      <point x="41.73253968253968" y="334.9555555555556" type="curve" smooth="yes"/>
      <point x="41.73253968253968" y="97.0"/>
      <point x="135.44841269841268" y="-10.0"/>
    </contour>
    <contour>
      <point x="275.9031746031746" y="53.97380952380953" type="curve" smooth="yes"/>
      <point x="215.24761904761903" y="53.97380952380953"/>
      <point x="177.56825396825397" y="139.17301587301588"/>
      <point x="176.115873015873" y="331.63095238095246" type="curve"/>
      <point x="193.78015873015872" y="352.3666666666667"/>
      <point x="231.7698412698413" y="376.8555555555556"/>
      <point x="268.90238095238095" y="376.8555555555556" type="curve" smooth="yes"/>
      <point x="321.62063492063487" y="376.8555555555556"/>
      <point x="354.1452380952381" y="329.70396825396824"/>
      <point x="354.1452380952381" y="220.54761904761907" type="curve" smooth="yes"/>
      <point x="354.1452380952381" y="105.04444444444445"/>
      <point x="324.45476190476194" y="53.97380952380953"/>
    </contour>
  </outline>
</glyph>
<glyph name="seven" format="2">
  <advance width="523.2412698412699"/>
  <unicode hex="0037"/>
  <outline>
    <contour>
      <point x="152.07936507936506" y="0.0" type="line"/>
      <point x="236.42380952380952" y="0.0" type="line"/>
      <point x="488.75793650793645" y="667.2833333333333" type="line"/>
      <point x="488.75793650793645" y="714.0" type="line"/>
      <point x="47.55" y="714.0" type="line"/>
      <point x="42.55" y="507.3246031746032" type="line"/>
      <point x="99.58412698412698" y="507.3246031746032" type="line"/>
      <point x="105.49841269841271" y="556.7920634920636" type="line" smooth="yes"/>
      <point x="109.04603174603176" y="590.6912698412699"/>
      <point x="125.7" y="608.3246031746032"/>
      <point x="159.5" y="608.3246031746032" type="curve" smooth="yes"/>
      <point x="399.69682539682543" y="608.3246031746032" type="line"/>
    </contour>
  </outline>
</glyph>
<glyph name="eight" format="2">
  <advance width="523.2412698412699"/>
  <unicode hex="0038"/>
  <outline>
    <contour>
      <point x="255.83650793650796" y="-10.0" type="curve" smooth="yes"/>
      <point x="406.6928571428571" y="-10.0"/>
      <point x="495.40873015873024" y="64.53650793650793"/>
      <point x="495.40873015873024" y="187.3222222222222" type="curve" smooth="yes"/>
      <point x="495.40873015873024" y="275.99285714285713"/>
      <point x="449.86825396825395" y="332.05952380952385"/>
      <point x="342.5738095238095" y="386.6976190476191" type="curve"/>
      <point x="419.8222222222222" y="426.84444444444443"/>
      <point x="468.0753968253968" y="469.02936507936505"/>
      <point x="468.0753968253968" y="553.1539682539684" type="curve" smooth="yes"/>
      <point x="468.0753968253968" y="650.9849206349207"/>
      <point x="399.7071428571428" y="724.0"/>
      <point x="267.1380952380952" y="724.0" type="curve" smooth="yes"/>
      <point x="108.22063492063492" y="724.0"/>
      <point x="49.365873015873014" y="638.1849206349207"/>
      <point x="49.365873015873014" y="542.784126984127" type="curve" smooth="yes"/>
      <point x="49.365873015873014" y="459.81111111111113"/>
      <point x="93.77857142857144" y="405.5785714285714"/>
      <point x="167.57460317460317" y="361.497619047619" type="curve"/>
      <point x="85.9388888888889" y="322.05317460317457"/>
      <point x="27.832539682539682" y="272.3603174603175"/>
      <point x="27.832539682539682" y="178.78015873015872" type="curve" smooth="yes"/>
      <point x="27.832539682539682" y="75.01507936507937"/>
      <point x="98.69920634920635" y="-10.0"/>
    </contour>
    <contour>
      <point x="260.30396825396826" y="46.57142857142857" type="curve" smooth="yes"/>
      <point x="197.03253968253966" y="46.57142857142857"/>
      <point x="154.96587301587303" y="96.60873015873015"/>
      <point x="154.96587301587303" y="179.04920634920634" type="curve" smooth="yes"/>
      <point x="154.96587301587303" y="248.45238095238093"/>
      <point x="183.96904761904761" y="294.7944444444445"/>
      <point x="226.35476190476192" y="325.4325396825397" type="curve"/>
      <point x="320.3626984126984" y="277.39126984126983"/>
      <point x="362.1825396825397" y="235.29761904761904"/>
      <point x="362.1825396825397" y="169.51349206349207" type="curve" smooth="yes"/>
      <point x="362.1825396825397" y="95.44285714285715"/>
      <point x="321.8222222222222" y="46.57142857142857"/>
    </contour>
    <contour>
      <point x="284.1325396825397" y="418.5214285714286" type="curve"/>
      <point x="219.14761904761903" y="451.11031746031745"/>
      <point x="182.35714285714283" y="486.536507936508"/>
      <point x="182.35714285714283" y="556.8531746031747" type="curve" smooth="yes"/>
      <point x="182.35714285714283" y="621.3912698412697"/>
      <point x="210.58571428571426" y="666.7952380952382"/>
      <point x="262.2380952380953" y="666.7952380952382" type="curve" smooth="yes"/>
      <point x="319.32857142857154" y="666.7952380952382"/>
      <point x="347.9079365079365" y="611.9587301587302"/>
      <point x="347.9079365079365" y="553.1198412698412" type="curve" smooth="yes"/>
      <point x="347.9079365079365" y="485.3666666666667"/>
      <point x="328.00793650793656" y="446.7436507936508"/>
    </contour>
  </outline>
</glyph>
<glyph name="nine" format="2">
  <advance width="523.2412698412699"/>
  <unicode hex="0039"/>
  <outline>
    <contour>
      <point x="212.40317460317462" y="-10.0" type="curve"/>
      <point x="404.5777777777777" y="-10.0"/>
      <point x="481.67460317460313" y="165.3484126984127"/>
      <point x="481.67460317460313" y="388.0" type="curve" smooth="yes"/>
      <point x="481.67460317460313" y="626.1690476190477"/>
      <point x="382.59761904761905" y="724.0"/>
      <point x="246.67063492063494" y="724.0" type="curve" smooth="yes"/>
      <point x="112.57777777777777" y="724.0"/>
      <point x="32.465873015873015" y="625.8285714285714"/>
      <point x="32.465873015873015" y="482.5269841269842" type="curve" smooth="yes"/>
      <point x="32.465873015873015" y="347.89365079365086"/>
      <point x="108.36746031746033" y="276.0650793650793"/>
      <point x="215.5015873015873" y="276.0650793650793" type="curve" smooth="yes"/>
      <point x="278.7547619047619" y="276.0650793650793"/>
      <point x="319.4563492063493" y="304.0666666666666"/>
      <point x="347.4063492063492" y="340.8960317460317" type="curve"/>
      <point x="340.9388888888889" y="149.75793650793648"/>
      <point x="299.2880952380952" y="52.12460317460317"/>
      <point x="217.56349206349208" y="52.12460317460317" type="curve" smooth="yes"/>
      <point x="154.2357142857143" y="52.12460317460317"/>
      <point x="125.03730158730158" y="99.21825396825399"/>
      <point x="106.93650793650794" y="157.10079365079366" type="curve"/>
      <point x="73.22063492063491" y="150.18650793650795"/>
      <point x="58.552380952380936" y="126.3547619047619"/>
      <point x="58.552380952380936" y="97.60634920634922" type="curve" smooth="yes"/>
      <point x="58.552380952380936" y="42.63809523809524"/>
      <point x="99.08968253968254" y="-10.0"/>
    </contour>
    <contour>
      <point x="255.36428571428576" y="345.34047619047624" type="curve" smooth="yes"/>
      <point x="198.21904761904761" y="345.70714285714286"/>
      <point x="168.89523809523808" y="394.94761904761896"/>
      <point x="168.89523809523808" y="488.0" type="curve" smooth="yes"/>
      <point x="168.89523809523808" y="600.7039682539684"/>
      <point x="199.41984126984127" y="659.0261904761905"/>
      <point x="252.86587301587298" y="659.0261904761905" type="curve" smooth="yes"/>
      <point x="310.0309523809524" y="659.0261904761905"/>
      <point x="345.7730158730159" y="587.5119047619047"/>
      <point x="347.8587301587302" y="408.8666666666667" type="curve"/>
      <point x="329.02460317460316" y="372.04603174603176"/>
      <point x="298.3134920634921" y="345.70714285714286"/>
    </contour>
  </outline>
</glyph>
<glyph name="colon" format="2">
  <advance width="313.67936507936514"/>
  <unicode hex="003A"/>
  <outline>
    <contour>
      <point x="176.18650793650795" y="387.3888888888889" type="curve" smooth="yes"/>
      <point x="217.3722222222222" y="387.3888888888889"/>
      <point x="252.94444444444449" y="406.484126984127"/>
      <point x="252.94444444444449" y="465.2571428571428" type="curve" smooth="yes"/>
      <point x="252.94444444444449" y="524.4825396825396"/>
      <point x="217.3722222222222" y="542.9444444444445"/>
      <point x="176.18650793650795" y="542.9444444444445" type="curve" smooth="yes"/>
      <point x="133.1468253968254" y="542.9444444444445"/>
      <point x="99.4888888888889" y="524.4825396825396"/>
      <point x="99.4888888888889" y="465.2571428571428" type="curve" smooth="yes"/>
      <point x="99.4888888888889" y="406.484126984127"/>
      <point x="133.1468253968254" y="387.3888888888889"/>
    </contour>
    <contour>
      <point x="176.18650793650795" y="-8.0" type="curve" smooth="yes"/>
      <point x="217.3722222222222" y="-8.0"/>
      <point x="252.94444444444449" y="11.381746031746031"/>
      <point x="252.94444444444449" y="69.97380952380954" type="curve" smooth="yes"/>
      <point x="252.94444444444449" y="129.25952380952378"/>
      <point x="217.3722222222222" y="148.0079365079365"/>
      <point x="176.18650793650795" y="148.0079365079365" type="curve" smooth="yes"/>
      <point x="133.1468253968254" y="148.0079365079365"/>
      <point x="99.4888888888889" y="129.25952380952378"/>
      <point x="99.4888888888889" y="69.97380952380954" type="curve" smooth="yes"/>
      <point x="99.4888888888889" y="11.381746031746031"/>
      <point x="133.1468253968254" y="-8.0"/>
    </contour>
  </outline>
</glyph>
<glyph name="semicolon" format="2">
  <advance width="316.3253968253968"/>
  <unicode hex="003B"/>
  <outline>
    <contour>
      <point x="81.71269841269843" y="-154.0" type="line"/>
      <point x="203.03571428571428" y="-119.53253968253968"/>
      <point x="248.9460317460318" y="-44.517460317460326"/>
      <point x="248.9460317460318" y="39.13095238095238" type="curve" smooth="yes"/>
      <point x="248.9460317460318" y="106.8031746031746"/>
      <point x="218.75873015873017" y="148.0079365079365"/>
      <point x="166.09126984126982" y="148.0079365079365" type="curve" smooth="yes"/>
      <point x="128.08095238095237" y="148.0079365079365"/>
      <point x="95.86984126984127" y="124.2595238095238"/>
      <point x="95.86984126984127" y="80.6015873015873" type="curve" smooth="yes"/>
      <point x="95.86984126984127" y="3.9904761904761905"/>
      <point x="163.8063492063492" y="13.186507936507939"/>
      <point x="163.8063492063492" y="-24.366666666666667" type="curve"/>
      <point x="163.8063492063492" y="-62.36666666666667"/>
      <point x="135.9714285714286" y="-83.22698412698412"/>
      <point x="81.71269841269843" y="-103.86031746031746" type="curve"/>
    </contour>
    <contour>
      <point x="173.64444444444445" y="387.3888888888889" type="curve" smooth="yes"/>
      <point x="214.56349206349208" y="387.3888888888889"/>
      <point x="250.6888888888889" y="406.484126984127"/>
      <point x="250.6888888888889" y="465.2571428571428" type="curve" smooth="yes"/>
      <point x="250.6888888888889" y="524.4825396825396"/>
      <point x="214.56349206349208" y="542.9444444444445"/>
      <point x="173.64444444444445" y="542.9444444444445" type="curve" smooth="yes"/>
      <point x="129.9714285714286" y="542.9444444444445"/>
      <point x="96.60000000000001" y="524.4825396825396"/>
      <point x="96.60000000000001" y="465.2571428571428" type="curve" smooth="yes"/>
      <point x="96.60000000000001" y="406.484126984127"/>
      <point x="129.9714285714286" y="387.3888888888889"/>
    </contour>
  </outline>
</glyph>
<glyph name="less" format="2">
  <advance width="509.8666666666667"/>
  <unicode hex="003C"/>
  <outline>
    <contour>
      <point x="455.5698412698413" y="104.99047619047619" type="line"/>
      <point x="455.5698412698413" y="182.29047619047617" type="line"/>
      <point x="153.8452380952381" y="357.0" type="line"/>
      <point x="455.5698412698413" y="533.7095238095237" type="line"/>
      <point x="455.5698412698413" y="611.0095238095239" type="line"/>
      <point x="54.296825396825405" y="377.7484126984127" type="line"/>
      <point x="54.296825396825405" y="337.2515873015873" type="line"/>
    </contour>
  </outline>
</glyph>
<glyph name="equal" format="2">
  <advance width="509.8666666666667"/>
  <unicode hex="003D"/>
  <outline>
    <contour>
      <point x="52.38253968253969" y="417.10793650793653" type="line"/>
      <point x="458.11746031746037" y="417.10793650793653" type="line"/>
      <point x="458.11746031746037" y="485.4936507936508" type="line"/>
      <point x="52.38253968253969" y="485.4936507936508" type="line"/>
    </contour>
    <contour>
      <point x="52.38253968253969" y="228.5063492063492" type="line"/>
      <point x="458.11746031746037" y="228.5063492063492" type="line"/>
      <point x="458.11746031746037" y="296.89206349206347" type="line"/>
      <point x="52.38253968253969" y="296.89206349206347" type="line"/>
    </contour>
  </outline>
</glyph>
<glyph name="greater" format="2">
  <advance width="509.8666666666667"/>
  <unicode hex="003E"/>
  <outline>
    <contour>
      <point x="54.296825396825405" y="104.99047619047619" type="line"/>
      <point x="455.5698412698413" y="337.2515873015873" type="line"/>
      <point x="455.5698412698413" y="377.7484126984127" type="line"/>
      <point x="54.296825396825405" y="611.0095238095239" type="line"/>
      <point x="54.296825396825405" y="533.7095238095237" type="line"/>
      <point x="355.65476190476187" y="357.0" type="line"/>
      <point x="54.296825396825405" y="182.29047619047617" type="line"/>
    </contour>
  </outline>
</glyph>
<glyph name="question" format="2">
  <advance width="514.2150793650793"/>
  <unicode hex="003F"/>
  <outline>
    <contour>
      <point x="199.35" y="229.35634920634922" type="line"/>
      <point x="272.0912698412699" y="229.35634920634922" type="line"/>
      <point x="291.2309523809524" y="321.8539682539683" type="line"/>
      <point x="419.08333333333337" y="377.76349206349204"/>
      <point x="477.33095238095245" y="433.5325396825397"/>
      <point x="477.33095238095245" y="539.8039682539684" type="curve" smooth="yes"/>
      <point x="477.33095238095245" y="655.9849206349207"/>
      <point x="384.3039682539682" y="724.0"/>
      <point x="239.47222222222223" y="724.0" type="curve" smooth="yes"/>
      <point x="94.88650793650794" y="724.0"/>
      <point x="29.703968253968256" y="662.5222222222221"/>
      <point x="29.703968253968256" y="598.0087301587301" type="curve" smooth="yes"/>
      <point x="29.703968253968256" y="538.2349206349207"/>
      <point x="80.41269841269842" y="519.8277777777778"/>
      <point x="170.66428571428574" y="519.8277777777778" type="curve"/>
      <point x="170.66428571428574" y="613.5682539682539"/>
      <point x="193.77063492063493" y="661.1206349206349"/>
      <point x="241.16587301587302" y="661.1206349206349" type="curve" smooth="yes"/>
      <point x="284.18888888888887" y="661.1206349206349"/>
      <point x="308.16507936507935" y="619.0111111111113"/>
      <point x="308.16507936507935" y="553.161111111111" type="curve" smooth="yes"/>
      <point x="308.16507936507935" y="469.86904761904765"/>
      <point x="285.384126984127" y="400.1269841269842"/>
      <point x="180.21031746031747" y="349.7539682539682" type="curve"/>
    </contour>
    <contour>
      <point x="233.3865079365079" y="-8.346825396825396" type="curve" smooth="yes"/>
      <point x="278.1055555555555" y="-8.346825396825396"/>
      <point x="316.70396825396824" y="12.361904761904764"/>
      <point x="316.70396825396824" y="75.79444444444444" type="curve" smooth="yes"/>
      <point x="316.70396825396824" y="139.5738095238095"/>
      <point x="278.1055555555555" y="159.93571428571428"/>
      <point x="233.3865079365079" y="159.93571428571428" type="curve" smooth="yes"/>
      <point x="187.40634920634923" y="159.93571428571428"/>
      <point x="151.03412698412697" y="139.5738095238095"/>
      <point x="151.03412698412697" y="75.79444444444444" type="curve" smooth="yes"/>
      <point x="151.03412698412697" y="12.361904761904764"/>
      <point x="187.40634920634923" y="-8.346825396825396"/>
    </contour>
  </outline>
</glyph>
<glyph name="bracketleft" format="2">
  <advance width="397.24603174603175"/>
  <unicode hex="005B"/>
  <outline>
    <contour>
      <point x="75.18888888888888" y="-128.0" type="line"/>
      <point x="336.6452380952381" y="-128.0" type="line"/>
      <point x="336.6452380952381" y="-76.32777777777778" type="line"/>
      <point x="296.29206349206345" y="-76.32777777777778" type="line" smooth="yes"/>
      <point x="254.1904761904762" y="-76.32777777777778"/>
      <point x="219.67698412698414" y="-67.32777777777778"/>
      <point x="219.67698412698414" y="-4.3277777777777775" type="curve" smooth="yes"/>
      <point x="219.67698412698414" y="636.3277777777778" type="line" smooth="yes"/>
      <point x="219.67698412698414" y="699.3277777777779"/>
      <point x="254.1904761904762" y="708.3277777777779"/>
      <point x="296.29206349206345" y="708.3277777777779" type="curve" smooth="yes"/>
      <point x="336.6452380952381" y="708.3277777777779" type="line"/>
      <point x="336.6452380952381" y="760.0" type="line"/>
      <point x="75.18888888888888" y="760.0" type="line"/>
    </contour>
  </outline>
</glyph>
<glyph name="backslash" format="2">
  <advance width="269.5706349206349"/>
  <unicode hex="005C"/>
  <outline>
    <contour>
      <point x="201.73650793650793" y="-121.0" type="line"/>
      <point x="269.5706349206349" y="-121.0" type="line"/>
      <point x="67.20079365079364" y="760.0" type="line"/>
      <point x="0.0" y="760.0" type="line"/>
    </contour>
  </outline>
</glyph>
<glyph name="bracketright" format="2">
  <advance width="425.9269841269841"/>
  <unicode hex="005D"/>
  <outline>
    <contour>
      <point x="90.08095238095238" y="-128.0" type="line"/>
      <point x="350.7380952380952" y="-128.0" type="line"/>
      <point x="350.7380952380952" y="760.0" type="line"/>
      <point x="90.08095238095238" y="760.0" type="line"/>
      <point x="90.08095238095238" y="708.3277777777779" type="line"/>
      <point x="130.46904761904764" y="708.3277777777779" type="line" smooth="yes"/>
      <point x="172.73650793650793" y="708.3277777777779"/>
      <point x="206.88333333333335" y="699.3277777777779"/>
      <point x="206.88333333333335" y="636.3277777777778" type="curve" smooth="yes"/>
      <point x="206.88333333333335" y="-4.3277777777777775" type="line" smooth="yes"/>
      <point x="206.88333333333335" y="-67.32777777777778"/>
      <point x="172.73650793650793" y="-76.32777777777778"/>
      <point x="130.46904761904764" y="-76.32777777777778" type="curve" smooth="yes"/>
      <point x="90.08095238095238" y="-76.32777777777778" type="line"/>
    </contour>
  </outline>
</glyph>
<glyph name="asciicircum" format="2">
  <advance width="509.5"/>
  <unicode hex="005E"/>
  <outline>
    <contour>
      <point x="35.85476190476191" y="262.7039682539683" type="line"/>
      <point x="108.92063492063492" y="262.7039682539683" type="line"/>
      <point x="253.43333333333334" y="607.0571428571428" type="line"/>
      <point x="399.57936507936506" y="262.7039682539683" type="line"/>
      <point x="472.37857142857143" y="262.7039682539683" type="line"/>
      <point x="273.9960317460317" y="714.0" type="line"/>
      <point x="233.87063492063493" y="714.0" type="line"/>
    </contour>
  </outline>
</glyph>
<glyph name="underscore" format="2">
  <advance width="429.43968253968256"/>
  <unicode hex="005F"/>
  <outline>
    <contour>
      <point x="-5.000000000000001" y="-141.71349206349205" type="line"/>
      <point x="434.0730158730159" y="-141.71349206349205" type="line"/>
      <point x="434.0730158730159" y="-83.0" type="line"/>
      <point x="-5.000000000000001" y="-83.0" type="line"/>
    </contour>
  </outline>
</glyph>
<glyph name="braceleft" format="2">
  <advance width="451.0650793650794"/>
  <unicode hex="007B"/>
  <outline>
    <contour>
      <point x="295.3492063492063" y="-125.2515873015873" type="curve" smooth="yes"/>
      <point x="385.39761904761906" y="-125.2515873015873" type="line"/>
      <point x="385.39761904761906" y="-73.2325396825397" type="line"/>
      <point x="348.1063492063492" y="-73.2325396825397" type="line" smooth="yes"/>
      <point x="295.4865079365079" y="-73.2325396825397"/>
      <point x="282.2436507936508" y="-38.327777777777776"/>
      <point x="282.2436507936508" y="25.00952380952381" type="curve" smooth="yes"/>
      <point x="282.2436507936508" y="196.29603174603176" type="line" smooth="yes"/>
      <point x="282.2436507936508" y="257.45238095238096"/>
      <point x="250.6444444444445" y="297.2420634920635"/>
      <point x="180.02936507936505" y="315.45238095238096" type="curve"/>
      <point x="180.02936507936505" y="322.6626984126984" type="line"/>
      <point x="251.92539682539683" y="339.6722222222222"/>
      <point x="282.2436507936508" y="379.2960317460317"/>
      <point x="282.2436507936508" y="440.0" type="curve" smooth="yes"/>
      <point x="282.2436507936508" y="610.452380952381" type="line" smooth="yes"/>
      <point x="282.2436507936508" y="674.2420634920635"/>
      <point x="295.4865079365079" y="708.5285714285715"/>
      <point x="348.3928571428571" y="708.5285714285715" type="curve" smooth="yes"/>
      <point x="385.39761904761906" y="708.5285714285715" type="line"/>
      <point x="385.39761904761906" y="760.0" type="line"/>
      <point x="295.3492063492063" y="760.0" type="line" smooth="yes"/>
      <point x="189.6857142857143" y="760.0"/>
      <point x="134.49444444444444" y="707.0"/>
      <point x="134.49444444444444" y="614.5380952380953" type="curve" smooth="yes"/>
      <point x="134.49444444444444" y="442.0" type="line" smooth="yes"/>
      <point x="134.49444444444444" y="366.3761904761904"/>
      <point x="86.96031746031746" y="349.6722222222222"/>
      <point x="25.87301587301587" y="347.6722222222222" type="curve"/>
      <point x="25.87301587301587" y="289.2420634920635" type="line"/>
      <point x="86.96031746031746" y="286.2420634920635"/>
      <point x="134.49444444444444" y="270.45238095238096"/>
      <point x="134.49444444444444" y="193.29603174603176" type="curve" smooth="yes"/>
      <point x="134.49444444444444" y="22.21031746031746" type="line" smooth="yes"/>
      <point x="134.49444444444444" y="-68.70396825396826"/>
      <point x="189.6857142857143" y="-125.2515873015873"/>
    </contour>
  </outline>
</glyph>
<glyph name="bar" format="2">
  <advance width="523.2412698412699"/>
  <unicode hex="007C"/>
  <outline>
    <contour>
      <point x="227.39444444444447" y="-240.0" type="line"/>
      <point x="295.04761904761904" y="-240.0" type="line"/>
      <point x="295.04761904761904" y="760.0" type="line"/>
      <point x="227.39444444444447" y="760.0" type="line"/>
    </contour>
  </outline>
</glyph>
<glyph name="braceright" format="2">
  <advance width="470.00476190476195"/>
  <unicode hex="007D"/>
  <outline>
    <contour>
      <point x="84.77301587301588" y="-125.2515873015873" type="line"/>
      <point x="174.47460317460317" y="-125.2515873015873" type="line" smooth="yes"/>
      <point x="280.33888888888885" y="-125.2515873015873"/>
      <point x="334.87698412698415" y="-68.70396825396826"/>
      <point x="334.87698412698415" y="22.21031746031746" type="curve" smooth="yes"/>
      <point x="334.87698412698415" y="193.29603174603176" type="line" smooth="yes"/>
      <point x="334.87698412698415" y="270.45238095238096"/>
      <point x="383.69761904761907" y="286.2420634920635"/>
      <point x="444.29761904761904" y="289.2420634920635" type="curve"/>
      <point x="444.29761904761904" y="347.6722222222222" type="line"/>
      <point x="383.69761904761907" y="349.6722222222222"/>
      <point x="334.87698412698415" y="366.3761904761904"/>
      <point x="334.87698412698415" y="442.0" type="curve" smooth="yes"/>
      <point x="334.87698412698415" y="614.5380952380953" type="line" smooth="yes"/>
      <point x="334.87698412698415" y="707.0"/>
      <point x="280.33888888888885" y="760.0"/>
      <point x="174.47460317460317" y="760.0" type="curve" smooth="yes"/>
      <point x="84.77301587301588" y="760.0" type="line"/>
      <point x="84.77301587301588" y="708.5285714285715" type="line"/>
      <point x="122.26507936507939" y="708.5285714285715" type="line" smooth="yes"/>
      <point x="175.31746031746033" y="708.5285714285715"/>
      <point x="187.7611111111111" y="674.2420634920635"/>
      <point x="187.7611111111111" y="610.452380952381" type="curve" smooth="yes"/>
      <point x="187.7611111111111" y="440.0" type="line" smooth="yes"/>
      <point x="187.7611111111111" y="379.2960317460317"/>
      <point x="218.7325396825397" y="339.6722222222222"/>
      <point x="290.7944444444444" y="322.6626984126984" type="curve"/>
      <point x="290.7944444444444" y="315.45238095238096" type="line"/>
      <point x="219.19444444444443" y="297.2420634920635"/>
      <point x="187.7611111111111" y="257.45238095238096"/>
      <point x="187.7611111111111" y="196.29603174603176" type="curve" smooth="yes"/>
      <point x="187.7611111111111" y="25.00952380952381" type="line" smooth="yes"/>
      <point x="187.7611111111111" y="-38.327777777777776"/>
      <point x="175.31746031746033" y="-73.2325396825397"/>
      <point x="122.26507936507939" y="-73.2325396825397" type="curve" smooth="yes"/>
      <point x="84.77301587301588" y="-73.2325396825397" type="line"/>
    </contour>
  </outline>
</glyph>
<glyph name="asciitilde" format="2">
  <advance width="509.8666666666667"/>
  <unicode hex="007E"/>
  <outline>
    <contour>
      <point x="35.27301587301587" y="262.78968253968253" type="curve"/>
      <point x="104.94047619047619" y="262.78968253968253" type="line"/>
      <point x="107.91111111111111" y="345.70396825396824"/>
      <point x="125.35873015873017" y="379.2420634920635"/>
      <point x="159.0984126984127" y="379.2420634920635" type="curve" smooth="yes"/>
      <point x="184.1706349206349" y="379.2420634920635"/>
      <point x="199.52857142857144" y="361.81825396825394"/>
      <point x="233.91031746031743" y="327.7896825396826" type="curve" smooth="yes"/>
      <point x="280.67857142857144" y="280.45000000000005"/>
      <point x="309.45317460317455" y="262.78968253968253"/>
      <point x="352.5468253968254" y="262.78968253968253" type="curve" smooth="yes"/>
      <point x="446.3468253968254" y="262.78968253968253"/>
      <point x="470.5420634920635" y="349.8198412698412"/>
      <point x="474.32698412698414" y="450.21031746031747" type="curve"/>
      <point x="404.0261904761905" y="450.21031746031747" type="line"/>
      <point x="400.58809523809526" y="369.20158730158727"/>
      <point x="385.55317460317457" y="333.7579365079365"/>
      <point x="352.64761904761906" y="333.7579365079365" type="curve" smooth="yes"/>
      <point x="329.3753968253968" y="333.7579365079365"/>
      <point x="311.8706349206349" y="352.1960317460318"/>
      <point x="279.7095238095237" y="383.0095238095238" type="curve" smooth="yes"/>
      <point x="227.9047619047619" y="432.05396825396826"/>
      <point x="202.4579365079365" y="450.21031746031747"/>
      <point x="160.1047619047619" y="450.21031746031747" type="curve" smooth="yes"/>
      <point x="65.58015873015874" y="450.21031746031747"/>
      <point x="37.61031746031746" y="362.8785714285715"/>
    </contour>
  </outline>
</glyph>
<glyph name="multiply" format="2">
  <advance width="509.86666666666673"/>
  <unicode hex="00D7"/>
  <outline>
    <contour>
      <point x="114.4031746031746" y="158.83809523809524" type="line"/>
      <point x="254.3984126984127" y="308.34285714285716" type="line"/>
      <point x="394.00714285714287" y="159.7722222222222" type="line"/>
      <point x="443.4984126984127" y="206.6968253968254" type="line"/>
      <point x="301.3230158730159" y="358.5674603174603" type="line"/>
      <point x="443.4984126984127" y="509.6039682539683" type="line"/>
      <point x="393.29365079365084" y="557.1420634920636" type="line"/>
      <point x="254.3984126984127" y="409.5714285714286" type="line"/>
      <point x="114.76984126984128" y="557.4428571428572" type="line"/>
      <point x="63.931746031746044" y="510.5380952380952" type="line"/>
      <point x="207.12698412698413" y="359.2007936507936" type="line"/>
      <point x="63.931746031746044" y="206.39603174603172" type="line"/>
    </contour>
  </outline>
</glyph>
<glyph name="divide" format="2">
  <advance width="509.8666666666667"/>
  <unicode hex="00F7"/>
  <outline>
    <contour>
      <point x="54.296825396825405" y="322.99047619047616" type="line"/>
      <point x="455.5698412698413" y="322.99047619047616" type="line"/>
      <point x="455.5698412698413" y="392.0095238095237" type="line"/>
      <point x="54.296825396825405" y="392.0095238095237" type="line"/>
    </contour>
    <contour>
      <point x="255.43333333333334" y="108.27698412698413" type="curve" smooth="yes"/>
      <point x="284.71507936507936" y="108.27698412698413"/>
      <point x="308.24285714285713" y="123.99047619047622"/>
      <point x="308.24285714285713" y="168.28650793650795" type="curve" smooth="yes"/>
      <point x="308.24285714285713" y="213.58253968253968"/>
      <point x="284.71507936507936" y="228.29603174603176"/>
      <point x="255.43333333333334" y="228.29603174603176" type="curve" smooth="yes"/>
      <point x="224.584126984127" y="228.29603174603176"/>
      <point x="202.25714285714284" y="213.58253968253968"/>
      <point x="202.25714285714284" y="168.28650793650795" type="curve" smooth="yes"/>
      <point x="202.25714285714284" y="123.99047619047622"/>
      <point x="224.584126984127" y="108.27698412698413"/>
    </contour>
    <contour>
      <point x="255.43333333333334" y="486.9904761904762" type="curve" smooth="yes"/>
      <point x="284.71507936507936" y="486.9904761904762"/>
      <point x="308.24285714285713" y="502.4174603174603"/>
      <point x="308.24285714285713" y="546.7134920634921" type="curve" smooth="yes"/>
      <point x="308.24285714285713" y="592.0095238095239"/>
      <point x="284.71507936507936" y="606.7230158730159"/>
      <point x="255.43333333333334" y="606.7230158730159" type="curve" smooth="yes"/>
      <point x="224.584126984127" y="606.7230158730159"/>
      <point x="202.25714285714284" y="592.0095238095239"/>
      <point x="202.25714285714284" y="546.7134920634921" type="curve" smooth="yes"/>
      <point x="202.25714285714284" y="502.4174603174603"/>
      <point x="224.584126984127" y="486.9904761904762"/>
    </contour>
  </outline>
</glyph>
<glyph name="danda-deva" format="2">
  <advance width="434.76349206349204"/>
  <unicode hex="0964"/>
  <outline>
    <contour>
      <point x="362.5015873015872" y="-39.38095238095238" type="line"/>
      <point x="372.1444444444444" y="-36.38095238095238" type="line"/>
      <point x="372.1444444444444" y="589.6428571428572" type="line"/>
      <point x="271.4539682539682" y="626.6428571428572" type="line"/>
      <point x="268.4539682539682" y="626.6428571428572" type="line"/>
      <point x="268.4539682539682" y="0.35714285714285676" type="line"/>
    </contour>
  </outline>
</glyph>
<glyph name="dbldanda-deva" format="2">
  <advance width="617.0333333333333"/>
  <unicode hex="0965"/>
  <outline>
    <contour>
      <point x="545.2238095238096" y="-39.38095238095238" type="line"/>
      <point x="554.4142857142857" y="-36.38095238095238" type="line"/>
      <point x="554.4142857142857" y="589.6428571428572" type="line"/>
      <point x="454.17619047619047" y="626.6428571428572" type="line"/>
      <point x="451.17619047619047" y="626.6428571428572" type="line"/>
      <point x="451.17619047619047" y="0.35714285714285676" type="line"/>
    </contour>
    <contour>
      <point x="362.5015873015872" y="-39.38095238095238" type="line"/>
      <point x="372.1444444444444" y="-36.38095238095238" type="line"/>
      <point x="372.1444444444444" y="589.6428571428572" type="line"/>
      <point x="271.4539682539682" y="626.6428571428572" type="line"/>
      <point x="268.4539682539682" y="626.6428571428572" type="line"/>
      <point x="268.4539682539682" y="0.35714285714285676" type="line"/>
    </contour>
  </outline>
</glyph>
<glyph name="anji-beng" format="2">
  <advance width="581.7960317460318"/>
  <unicode hex="0980"/>
  <anchor x="309.90238095238095" y="587.9285714285714" name="top"/>
  <outline>
    <contour>
      <point x="482.3619047619048" y="-47.75634920634921" type="curve" smooth="yes"/>
      <point x="539.7436507936509" y="-47.75634920634921"/>
      <point x="571.3960317460317" y="-13.56587301587302"/>
      <point x="571.3960317460317" y="39.16190476190476" type="curve" smooth="yes"/>
      <point x="571.3960317460317" y="91.64365079365079"/>
      <point x="536.0444444444444" y="124.28650793650796"/>
      <point x="493.81349206349205" y="124.28650793650796" type="curve" smooth="yes"/>
      <point x="444.431746031746" y="124.28650793650796"/>
      <point x="427.35634920634925" y="85.81031746031748"/>
      <point x="426.61746031746026" y="55.62936507936507" type="curve"/>
      <point x="472.51587301587307" y="48.63968253968253" type="line"/>
      <point x="472.51587301587307" y="465.3174603174603" type="line" smooth="yes"/>
      <point x="472.51587301587307" y="564.0698412698412"/>
      <point x="398.38650793650794" y="634.6325396825397"/>
      <point x="284.36031746031745" y="634.6325396825397" type="curve" smooth="yes"/>
      <point x="150.29523809523806" y="634.6325396825397"/>
      <point x="43.18888888888889" y="539.481746031746"/>
      <point x="43.18888888888889" y="396.18095238095236" type="curve" smooth="yes"/>
      <point x="43.18888888888889" y="263.57936507936506"/>
      <point x="123.07380952380952" y="183.5746031746032"/>
      <point x="232.55476190476193" y="183.5746031746032" type="curve" smooth="yes"/>
      <point x="302.0690476190476" y="183.5746031746032"/>
      <point x="342.320634920635" y="226.12698412698413"/>
      <point x="342.320634920635" y="288.4079365079365" type="curve" smooth="yes"/>
      <point x="342.320634920635" y="345.9857142857143"/>
      <point x="308.62619047619046" y="384.51825396825393"/>
      <point x="255.07222222222225" y="384.51825396825393" type="curve" smooth="yes"/>
      <point x="206.55396825396826" y="384.51825396825393"/>
      <point x="173.4777777777778" y="349.24682539682544"/>
      <point x="173.4777777777778" y="299.50317460317456" type="curve" smooth="yes"/>
      <point x="173.4777777777778" y="279.3984126984127"/>
      <point x="176.82460317460317" y="260.3230158730159"/>
      <point x="182.15158730158728" y="249.3079365079365" type="curve"/>
      <point x="233.82539682539684" y="273.8706349206349" type="line"/>
      <point x="221.4634920634921" y="270.87063492063487"/>
      <point x="208.10158730158733" y="269.87063492063487"/>
      <point x="196.2873015873016" y="269.87063492063487" type="curve" smooth="yes"/>
      <point x="163.1746031746032" y="269.87063492063487"/>
      <point x="142.4142857142857" y="299.4087301587301"/>
      <point x="142.4142857142857" y="358.3333333333333" type="curve" smooth="yes"/>
      <point x="142.4142857142857" y="459.5690476190476"/>
      <point x="249.00476190476192" y="528.6047619047619"/>
      <point x="318.0793650793651" y="528.6047619047619" type="curve" smooth="yes"/>
      <point x="357.35238095238094" y="528.6047619047619"/>
      <point x="370.2920634920635" y="509.3531746031746"/>
      <point x="370.2920634920635" y="468.3873015873016" type="curve" smooth="yes"/>
      <point x="370.2920634920635" y="88.10158730158732" type="line" smooth="yes"/>
      <point x="370.2920634920635" y="10.871428571428568"/>
      <point x="410.497619047619" y="-47.75634920634921"/>
    </contour>
  </outline>
</glyph>
<glyph name="anusvara-beng" format="2">
  <advance width="372.25793650793656"/>
  <unicode hex="0982"/>
  <anchor x="-228.44761904761904" y="0.0" name="vedic"/>
  <outline>
    <contour>
      <point x="181.92142857142855" y="323.1531746031746" type="curve" smooth="yes"/>
      <point x="267.1087301587302" y="323.1531746031746"/>
      <point x="328.86825396825395" y="385.85634920634925"/>
      <point x="328.86825396825395" y="474.9761904761905" type="curve" smooth="yes"/>
      <point x="328.86825396825395" y="556.2619047619048"/>
      <point x="274.9539682539682" y="621.452380952381"/>
      <point x="191.25396825396828" y="621.452380952381" type="curve" smooth="yes"/>
      <point x="106.49920634920635" y="621.452380952381"/>
      <point x="45.458730158730155" y="557.0611111111111"/>
      <point x="45.458730158730155" y="469.77539682539685" type="curve" smooth="yes"/>
      <point x="45.458730158730155" y="391.1579365079364"/>
      <point x="97.71904761904761" y="323.1531746031746"/>
    </contour>
    <contour>
      <point x="155.2285714285714" y="404.26190476190476" type="curve" smooth="yes"/>
      <point x="139.0111111111111" y="404.26190476190476"/>
      <point x="126.28650793650793" y="414.6190476190476"/>
      <point x="126.28650793650793" y="436.98174603174607" type="curve" smooth="yes"/>
      <point x="126.28650793650793" y="481.0722222222222"/>
      <point x="183.58809523809524" y="539.7857142857143"/>
      <point x="221.1436507936508" y="539.7857142857143" type="curve" smooth="yes"/>
      <point x="240.31587301587302" y="539.7857142857143"/>
      <point x="249.75396825396822" y="528.2626984126985"/>
      <point x="249.75396825396822" y="511.52380952380946" type="curve" smooth="yes"/>
      <point x="249.75396825396822" y="469.62857142857143"/>
      <point x="195.28095238095236" y="404.26190476190476"/>
    </contour>
    <contour>
      <point x="308.9761904761904" y="-78.5" type="curve"/>
      <point x="364.64285714285717" y="-58.85714285714286" type="line"/>
      <point x="298.7079365079365" y="96.66349206349206"/>
      <point x="212.49523809523808" y="228.5484126984127"/>
      <point x="113.2674603174603" y="291.4539682539682" type="curve"/>
      <point x="44.538888888888884" y="159.19047619047618" type="line"/>
      <point x="138.75714285714284" y="114.66666666666666"/>
      <point x="206.9857142857143" y="73.49920634920636"/>
    </contour>
  </outline>
</glyph>
<glyph name="visarga-beng" format="2">
  <advance width="387.35555555555555"/>
  <unicode hex="0983"/>
  <anchor x="-228.44761904761904" y="0.0" name="vedic"/>
  <outline>
    <contour>
      <point x="188.08888888888887" y="321.53968253968253" type="curve" smooth="yes"/>
      <point x="277.4833333333333" y="321.53968253968253"/>
      <point x="342.1833333333333" y="384.87619047619046"/>
      <point x="342.1833333333333" y="474.9761904761905" type="curve" smooth="yes"/>
      <point x="342.1833333333333" y="557.5285714285716"/>
      <point x="285.96190476190475" y="623.0658730158731"/>
      <point x="197.76825396825396" y="623.0658730158731" type="curve" smooth="yes"/>
      <point x="109.43968253968254" y="623.0658730158731"/>
      <point x="45.458730158730155" y="558.3277777777779"/>
      <point x="45.458730158730155" y="469.77539682539685" type="curve" smooth="yes"/>
      <point x="45.458730158730155" y="390.1777777777778"/>
      <point x="100.31269841269842" y="321.53968253968253"/>
    </contour>
    <contour>
      <point x="162.3761904761905" y="402.30158730158735" type="curve" smooth="yes"/>
      <point x="145.81190476190477" y="402.30158730158735"/>
      <point x="132.45396825396827" y="412.65873015873024"/>
      <point x="132.45396825396827" y="434.7349206349207" type="curve" smooth="yes"/>
      <point x="132.45396825396827" y="479.45873015873013"/>
      <point x="188.42857142857144" y="541.7460317460318"/>
      <point x="227.3111111111111" y="541.7460317460318" type="curve" smooth="yes"/>
      <point x="247.46349206349208" y="541.7460317460318"/>
      <point x="256.9015873015873" y="530.2230158730159"/>
      <point x="256.9015873015873" y="513.484126984127" type="curve" smooth="yes"/>
      <point x="256.9015873015873" y="471.2420634920635"/>
      <point x="204.67539682539686" y="402.30158730158735"/>
    </contour>
    <contour>
      <point x="188.72222222222223" y="-30.3452380952381" type="curve" smooth="yes"/>
      <point x="276.50317460317467" y="-30.3452380952381"/>
      <point x="339.9365079365079" y="32.19206349206349"/>
      <point x="339.9365079365079" y="121.47777777777779" type="curve" smooth="yes"/>
      <point x="339.9365079365079" y="202.76349206349207"/>
      <point x="284.69523809523804" y="267.5015873015873"/>
      <point x="197.76825396825396" y="267.5015873015873" type="curve" smooth="yes"/>
      <point x="110.7063492063492" y="267.5015873015873"/>
      <point x="47.41904761904761" y="203.3968253968254"/>
      <point x="47.41904761904761" y="116.11111111111111" type="curve" smooth="yes"/>
      <point x="47.41904761904761" y="37.493650793650794"/>
      <point x="101.29285714285714" y="-30.3452380952381"/>
    </contour>
    <contour>
      <point x="163.0095238095238" y="49.14999999999999" type="curve" smooth="yes"/>
      <point x="146.15873015873015" y="49.14999999999999"/>
      <point x="133.0873015873016" y="59.34126984126984"/>
      <point x="133.0873015873016" y="81.58333333333333" type="curve" smooth="yes"/>
      <point x="133.0873015873016" y="125.96031746031746"/>
      <point x="188.42857142857144" y="187.61428571428573"/>
      <point x="226.96428571428572" y="187.61428571428573" type="curve" smooth="yes"/>
      <point x="246.48333333333335" y="187.61428571428573"/>
      <point x="256.268253968254" y="176.09126984126982"/>
      <point x="256.268253968254" y="159.63888888888889" type="curve" smooth="yes"/>
      <point x="256.268253968254" y="117.7436507936508"/>
      <point x="204.67539682539686" y="49.14999999999999"/>
    </contour>
  </outline>
</glyph>
<glyph name="a-beng" format="2">
  <advance width="786.1055555555555"/>
  <unicode hex="0985"/>
  <anchor x="718.1793650793651" y="0.0" name="bottom"/>
  <anchor x="718.5460317460318" y="94.11904761904762" name="bottom.rakaar"/>
  <anchor x="718.1793650793651" y="11.0" name="bottom.rvocalic"/>
  <anchor x="699.2444444444444" y="17.285714285714285" name="bottom.virama"/>
  <anchor x="718.1793650793651" y="542.3333333333334" name="top"/>
  <anchor x="718.1793650793651" y="542.3333333333334" name="topright"/>
  <anchor x="392.69603174603174" y="0.0" name="vedic"/>
  <outline>
    <contour>
      <point x="707.4365079365081" y="-28.380952380952383" type="line"/>
      <point x="717.2452380952382" y="-25.833333333333336" type="line"/>
      <point x="717.2452380952382" y="542.3333333333334" type="line"/>
      <point x="821.8293650793651" y="542.3333333333334" type="line"/>
      <point x="777.6087301587302" y="622.0" type="line"/>
      <point x="-35.72380952380952" y="622.0" type="line"/>
      <point x="7.662698412698412" y="542.3333333333334" type="line"/>
      <point x="615.3079365079365" y="542.3333333333334" type="line"/>
      <point x="615.3079365079365" y="86.96428571428571" type="line"/>
      <point x="633.1111111111111" y="97.56507936507937" type="line"/>
      <point x="600.0579365079365" y="171.3126984126984"/>
      <point x="559.7801587301587" y="214.34761904761902"/>
      <point x="523.097619047619" y="239.76349206349207" type="curve"/>
      <point x="487.86349206349206" y="149.13888888888889" type="line"/>
      <point x="546.6031746031745" y="119.10317460317461"/>
      <point x="593.2857142857142" y="77.14285714285715"/>
      <point x="632.7079365079366" y="14.744444444444442" type="curve"/>
    </contour>
    <contour>
      <point x="349.4722222222222" y="30.148412698412688" type="curve" smooth="yes"/>
      <point x="456.8079365079365" y="30.148412698412688"/>
      <point x="556.2579365079366" y="101.71428571428571"/>
      <point x="556.2579365079366" y="266.5952380952381" type="curve" smooth="yes"/>
      <point x="556.2579365079366" y="394.95079365079357"/>
      <point x="479.42301587301586" y="496.1666666666667"/>
      <point x="334.97460317460315" y="496.1666666666667" type="curve" smooth="yes"/>
      <point x="245.86904761904762" y="496.1666666666667"/>
      <point x="193.05396825396826" y="445.2380952380952"/>
      <point x="193.05396825396826" y="369.04761904761904" type="curve" smooth="yes"/>
      <point x="193.05396825396826" y="302.40476190476187"/>
      <point x="238.35079365079366" y="251.47619047619045"/>
      <point x="309.17460317460313" y="251.47619047619045" type="curve" smooth="yes"/>
      <point x="378.27539682539685" y="251.47619047619045"/>
      <point x="414.48650793650796" y="300.1190476190477"/>
      <point x="414.48650793650796" y="365.30952380952385" type="curve" smooth="yes"/>
      <point x="414.48650793650796" y="457.51428571428573"/>
      <point x="347.2261904761905" y="525.5238095238095"/>
      <point x="304.0349206349206" y="557.5238095238095" type="curve"/>
      <point x="123.49126984126984" y="556.5238095238095" type="line"/>
      <point x="272.8055555555556" y="525.5238095238095"/>
      <point x="326.7039682539683" y="445.76190476190476"/>
      <point x="337.3722222222222" y="357.57142857142856" type="curve"/>
      <point x="348.74999999999994" y="365.0238095238095"/>
      <point x="370.03571428571433" y="375.76190476190476"/>
      <point x="394.1460317460318" y="375.76190476190476" type="curve" smooth="yes"/>
      <point x="436.036507936508" y="375.76190476190476"/>
      <point x="479.83174603174604" y="350.284126984127"/>
      <point x="480.4047619047619" y="285.23809523809524" type="curve" smooth="yes"/>
      <point x="480.97777777777776" y="209.97619047619048"/>
      <point x="421.5650793650794" y="177.57380952380953"/>
      <point x="343.6174603174603" y="177.57380952380953" type="curve" smooth="yes"/>
      <point x="229.28253968253972" y="177.57380952380953"/>
      <point x="134.98015873015873" y="247.95079365079366"/>
      <point x="69.10952380952381" y="474.7349206349207" type="curve"/>
      <point x="8.57857142857143" y="460.5190476190476" type="line"/>
      <point x="75.85555555555555" y="167.34285714285716"/>
      <point x="179.94444444444443" y="30.148412698412688"/>
    </contour>
  </outline>
</glyph>
<glyph name="i-beng" format="2">
  <advance width="495.81111111111113"/>
  <unicode hex="0987"/>
  <anchor x="313.63888888888897" y="37.214285714285715" name="bottom"/>
  <anchor x="441.76825396825393" y="-92.47539682539684" name="bottom.rakaar"/>
  <anchor x="398.9031746031746" y="31.571428571428562" name="bottom.rvocalic"/>
  <anchor x="304.5880952380952" y="41.3095238095238" name="bottom.virama"/>
  <anchor x="345.5420634920635" y="607.2619047619048" name="top"/>
  <anchor x="293.05952380952385" y="607.6190476190476" name="topright"/>
  <anchor x="247.72222222222223" y="0.0" name="vedic"/>
  <outline>
    <contour>
      <point x="383.82460317460317" y="592.5238095238095" type="curve"/>
      <point x="447.99523809523805" y="592.5238095238095" type="line"/>
      <point x="443.7746031746032" y="742.7253968253968"/>
      <point x="386.75952380952384" y="823.2563492063493"/>
      <point x="287.5174603174603" y="823.2563492063493" type="curve" smooth="yes"/>
      <point x="232.06428571428572" y="823.2563492063493"/>
      <point x="195.79285714285714" y="813.4023809523809"/>
      <point x="141.29444444444445" y="813.4023809523809" type="curve" smooth="yes"/>
      <point x="70.88650793650793" y="813.4023809523809"/>
      <point x="44.599999999999994" y="837.4412698412698"/>
      <point x="44.599999999999994" y="893.1753968253968" type="curve" smooth="yes"/>
      <point x="44.599999999999994" y="905.6880952380952"/>
      <point x="45.599999999999994" y="920.7484126984126"/>
      <point x="47.31349206349206" y="932.7428571428571" type="curve"/>
      <point x="-6.0531746031746" y="939.0039682539682" type="line"/>
      <point x="-11.314285714285713" y="914.4817460317461"/>
      <point x="-14.495238095238093" y="885.5777777777778"/>
      <point x="-14.495238095238093" y="854.9992063492064" type="curve" smooth="yes"/>
      <point x="-14.495238095238093" y="753.5571428571428"/>
      <point x="41.098412698412695" y="687.8753968253968"/>
      <point x="147.17777777777775" y="687.8753968253968" type="curve" smooth="yes"/>
      <point x="216.49682539682536" y="687.8753968253968"/>
      <point x="259.8095238095238" y="699.342857142857"/>
      <point x="301.5642857142857" y="699.342857142857" type="curve" smooth="yes"/>
      <point x="350.6000000000001" y="699.342857142857"/>
      <point x="382.01666666666665" y="678.6285714285715"/>
    </contour>
    <component base="ha-beng"/>
  </outline>
</glyph>
<glyph name="ii-beng" format="2">
  <advance width="681.165873015873"/>
  <unicode hex="0988"/>
  <anchor x="606.3452380952383" y="-26.38095238095238" name="bottom"/>
  <anchor x="609.8928571428573" y="37.69047619047619" name="bottom.rakaar"/>
  <anchor x="598.8563492063493" y="-42.97619047619048" name="bottom.rvocalic"/>
  <anchor x="594.7666666666668" y="-52.78571428571429" name="bottom.virama"/>
  <anchor x="423.10158730158736" y="607.2619047619048" name="top"/>
  <anchor x="374.618253968254" y="607.6190476190476" name="topright"/>
  <anchor x="340.48253968253965" y="0.0" name="vedic"/>
  <outline>
    <contour>
      <point x="560.6206349206349" y="-92.23253968253968" type="curve"/>
      <point x="613.6547619047619" y="-71.10238095238095" type="line"/>
      <point x="592.1325396825397" y="-1.6682539682539765"/>
      <point x="584.3277777777778" y="45.19206349206349"/>
      <point x="584.3277777777778" y="107.30714285714282" type="curve" smooth="yes"/>
      <point x="584.3277777777778" y="199.81349206349205"/>
      <point x="610.7246031746033" y="299.2468253968254"/>
      <point x="656.4198412698413" y="380.5952380952381" type="curve"/>
      <point x="526.7436507936508" y="486.81428571428575" type="line"/>
      <point x="443.184126984127" y="429.29047619047617"/>
      <point x="390.6126984126984" y="350.7738095238095"/>
      <point x="348.1293650793651" y="273.86428571428576" type="curve"/>
      <point x="380.5873015873016" y="226.5674603174603" type="line"/>
      <point x="386.6825396825397" y="249.65238095238098"/>
      <point x="388.39603174603184" y="274.47619047619037"/>
      <point x="388.39603174603184" y="298.3293650793651" type="curve" smooth="yes"/>
      <point x="388.39603174603184" y="402.09206349206346"/>
      <point x="341.78730158730156" y="493.61904761904765"/>
      <point x="186.90158730158728" y="493.61904761904765" type="curve" smooth="yes"/>
      <point x="98.78015873015873" y="493.61904761904765"/>
      <point x="47.29285714285714" y="450.88095238095235"/>
      <point x="47.29285714285714" y="381.5" type="curve" smooth="yes"/>
      <point x="47.29285714285714" y="311.1293650793651"/>
      <point x="96.23650793650795" y="274.8333333333333"/>
      <point x="154.8095238095238" y="274.8333333333333" type="curve" smooth="yes"/>
      <point x="216.0761904761905" y="274.8333333333333"/>
      <point x="258.7436507936508" y="317.08968253968254"/>
      <point x="258.1761904761904" y="391.7865079365079" type="curve" smooth="yes"/>
      <point x="257.4428571428572" y="465.20158730158727"/>
      <point x="208.92063492063494" y="531.7142857142858"/>
      <point x="178.28095238095236" y="549.3333333333334" type="curve"/>
      <point x="27.771428571428572" y="549.3333333333334" type="line"/>
      <point x="77.22619047619048" y="534.8809523809524"/>
      <point x="137.6111111111111" y="505.252380952381"/>
      <point x="180.52380952380952" y="457.26190476190476" type="curve"/>
      <point x="159.63174603174602" y="366.95238095238096" type="line"/>
      <point x="176.12619047619046" y="385.95238095238096"/>
      <point x="210.0452380952381" y="401.6873015873016"/>
      <point x="236.18253968253967" y="401.6873015873016" type="curve" smooth="yes"/>
      <point x="289.86825396825395" y="401.6873015873016"/>
      <point x="317.6373015873016" y="368.2785714285714"/>
      <point x="317.6373015873016" y="315.1380952380952" type="curve" smooth="yes"/>
      <point x="317.6373015873016" y="277.6761904761905"/>
      <point x="308.29603174603176" y="243.25079365079364"/>
      <point x="288.9087301587302" y="212.66349206349204" type="curve" smooth="yes"/>
      <point x="267.33492063492065" y="177.80396825396824"/>
      <point x="238.70634920634922" y="157.69444444444443"/>
      <point x="197.74365079365077" y="157.69444444444443" type="curve" smooth="yes"/>
      <point x="159.27222222222224" y="157.69444444444443"/>
      <point x="131.0253968253968" y="184.18492063492062"/>
      <point x="104.2563492063492" y="233.14444444444445" type="curve"/>
      <point x="48.13174603174603" y="205.7380952380952" type="line"/>
      <point x="90.80079365079365" y="100.02460317460316"/>
      <point x="151.4944444444444" y="18.334126984126975"/>
      <point x="242.6484126984127" y="18.334126984126975" type="curve" smooth="yes"/>
      <point x="322.28095238095244" y="18.334126984126975"/>
      <point x="374.7428571428571" y="94.50079365079364"/>
      <point x="436.0365079365079" y="186.1174603174603" type="curve" smooth="yes"/>
      <point x="476.34365079365074" y="246.86984126984123"/>
      <point x="521.9642857142857" y="321.82698412698414"/>
      <point x="578.2539682539682" y="369.1031746031746" type="curve"/>
      <point x="542.2404761904763" y="386.08333333333337" type="line"/>
      <point x="511.75793650793656" y="307.131746031746"/>
      <point x="493.30396825396826" y="238.83888888888885"/>
      <point x="493.30396825396826" y="157.065873015873" type="curve" smooth="yes"/>
      <point x="493.30396825396826" y="60.1547619047619"/>
      <point x="525.6706349206349" y="-23.935714285714294"/>
    </contour>
    <contour>
      <point x="7.662698412698412" y="542.3333333333334" type="line"/>
      <point x="716.8896825396826" y="542.3333333333334" type="line"/>
      <point x="674.2166666666666" y="622.0" type="line"/>
      <point x="-35.72380952380952" y="622.0" type="line"/>
    </contour>
    <contour>
      <point x="522.456349206349" y="592.5238095238095" type="curve"/>
      <point x="587.7619047619049" y="592.5238095238095" type="line"/>
      <point x="577.6214285714285" y="737.452380952381"/>
      <point x="523.5690476190478" y="829.0301587301587"/>
      <point x="394.4190476190476" y="829.0301587301587" type="curve" smooth="yes"/>
      <point x="323.6119047619047" y="829.0301587301587"/>
      <point x="287.2984126984127" y="814.0206349206351"/>
      <point x="207.95238095238096" y="814.0206349206351" type="curve" smooth="yes"/>
      <point x="131.09047619047618" y="814.0206349206351"/>
      <point x="100.83253968253969" y="838.0595238095239"/>
      <point x="100.83253968253969" y="894.623015873016" type="curve" smooth="yes"/>
      <point x="100.83253968253969" y="906.1857142857142"/>
      <point x="101.54603174603174" y="920.6277777777779"/>
      <point x="103.54603174603174" y="932.7428571428572" type="curve"/>
      <point x="50.14444444444445" y="939.0039682539683" type="line"/>
      <point x="44.5968253968254" y="914.6476190476192"/>
      <point x="41.33571428571428" y="886.5277777777778"/>
      <point x="41.33571428571428" y="860.1563492063491" type="curve" smooth="yes"/>
      <point x="41.33571428571428" y="757.8095238095237"/>
      <point x="99.0" y="687.9960317460317"/>
      <point x="224.32142857142858" y="687.9960317460317" type="curve" smooth="yes"/>
      <point x="303.89841269841264" y="687.9960317460317"/>
      <point x="356.70793650793655" y="705.5531746031745"/>
      <point x="419.11904761904765" y="705.5531746031745" type="curve" smooth="yes"/>
      <point x="486.7269841269841" y="705.5531746031745"/>
      <point x="515.6626984126985" y="678.2619047619048"/>
    </contour>
  </outline>
</glyph>
<glyph name="u-beng" format="2">
  <advance width="604.0936507936508"/>
  <unicode hex="0989"/>
  <anchor x="475.11904761904765" y="-13.756349206349212" name="bottom"/>
  <anchor x="535.9333333333334" y="-10.095238095238095" name="bottom.rakaar"/>
  <anchor x="462.5547619047619" y="13.791269841269843" name="bottom.rvocalic"/>
  <anchor x="401.4888888888889" y="-5.943650793650796" name="bottom.virama"/>
  <anchor x="391.5071428571429" y="600.9857142857143" name="top"/>
  <anchor x="325.11984126984123" y="607.9857142857143" name="topright"/>
  <anchor x="302.0468253968254" y="0.0" name="vedic"/>
  <anchor x="325.23730158730154" y="-126.61904761904762" name="nukta"/>
  <outline>
    <contour>
      <point x="482.26984126984127" y="592.1769841269842" type="curve"/>
      <point x="547.0079365079365" y="592.1769841269842" type="line"/>
      <point x="535.9214285714286" y="741.9261904761905"/>
      <point x="479.14761904761906" y="823.2761904761905"/>
      <point x="362.73174603174607" y="823.2761904761905" type="curve" smooth="yes"/>
      <point x="302.0722222222223" y="823.2761904761905"/>
      <point x="269.6507936507936" y="813.5079365079364"/>
      <point x="213.31349206349205" y="813.5079365079364" type="curve" smooth="yes"/>
      <point x="130.1031746031746" y="813.5079365079364"/>
      <point x="100.17698412698414" y="837.7579365079366"/>
      <point x="100.17698412698414" y="892.9492063492064" type="curve" smooth="yes"/>
      <point x="100.17698412698414" y="904.7230158730158"/>
      <point x="101.17698412698412" y="919.4968253968256"/>
      <point x="102.89047619047619" y="932.1095238095238" type="curve"/>
      <point x="49.15714285714286" y="938.6571428571428" type="line"/>
      <point x="43.60952380952381" y="913.8484126984126"/>
      <point x="40.51428571428572" y="885.5626984126983"/>
      <point x="40.51428571428572" y="859.1460317460317" type="curve" smooth="yes"/>
      <point x="40.51428571428572" y="757.1761904761905"/>
      <point x="97.83174603174604" y="687.5285714285715"/>
      <point x="224.07063492063492" y="687.5285714285715" type="curve" smooth="yes"/>
      <point x="291.1420634920634" y="687.5285714285715"/>
      <point x="335.03730158730156" y="699.0761904761905"/>
      <point x="376.3507936507936" y="699.0761904761905" type="curve" smooth="yes"/>
      <point x="441.91269841269843" y="699.0761904761905"/>
      <point x="473.9174603174604" y="678.3968253968254"/>
    </contour>
    <component base="dda-beng"/>
  </outline>
</glyph>
<glyph name="uu-beng" format="2">
  <advance width="702.0000000000001"/>
  <unicode hex="098A"/>
  <anchor x="561.0063492063492" y="-22.880952380952383" name="bottom"/>
  <anchor x="622.2222222222222" y="-18.285714285714285" name="bottom.rakaar"/>
  <anchor x="548.2761904761904" y="4.666666666666664" name="bottom.rvocalic"/>
  <anchor x="487.0444444444444" y="-14.214285714285715" name="bottom.virama"/>
  <anchor x="451.11825396825395" y="604.7142857142858" name="top"/>
  <anchor x="427.6650793650794" y="607.6190476190476" name="topright"/>
  <anchor x="350.74365079365083" y="0.0" name="vedic"/>
  <outline>
    <contour>
      <point x="427.64761904761906" y="-16.444444444444443" type="curve" smooth="yes"/>
      <point x="605.6904761904763" y="-16.444444444444443"/>
      <point x="682.4849206349205" y="90.26031746031745"/>
      <point x="682.4849206349205" y="237.56031746031744" type="curve" smooth="yes"/>
      <point x="682.4849206349205" y="347.7603174603174"/>
      <point x="638.7007936507937" y="428.2730158730158"/>
      <point x="582.0515873015872" y="480.3230158730159" type="curve"/>
      <point x="528.7746031746032" y="399.79285714285714"/>
      <point x="478.4555555555555" y="359.9126984126984"/>
      <point x="444.6857142857143" y="359.9126984126984" type="curve" smooth="yes"/>
      <point x="428.9460317460318" y="359.9126984126984"/>
      <point x="412.6698412698413" y="366.5309523809524"/>
      <point x="412.6698412698413" y="391.0079365079365" type="curve" smooth="yes"/>
      <point x="412.6698412698413" y="542.3333333333334" type="line"/>
      <point x="737.7238095238096" y="542.3333333333334" type="line"/>
      <point x="692.3373015873017" y="622.0" type="line"/>
      <point x="-35.72380952380952" y="622.0" type="line"/>
      <point x="9.496825396825399" y="542.3333333333334" type="line"/>
      <point x="310.73253968253965" y="542.3333333333334" type="line"/>
      <point x="310.73253968253965" y="373.51746031746035" type="line" smooth="yes"/>
      <point x="310.73253968253965" y="322.4079365079365"/>
      <point x="327.03492063492064" y="288.7960317460317"/>
      <point x="353.51190476190476" y="261.75158730158734" type="curve" smooth="yes"/>
      <point x="380.8833333333333" y="234.0992063492063"/>
      <point x="414.3412698412699" y="219.25"/>
      <point x="457.0436507936508" y="219.25" type="curve" smooth="yes"/>
      <point x="517.8476190476191" y="219.25"/>
      <point x="590.613492063492" y="268.41111111111104"/>
      <point x="634.9880952380952" y="343.8023809523809" type="curve"/>
      <point x="576.2738095238095" y="353.4103174603174" type="line"/>
      <point x="597.1793650793651" y="329.1079365079365"/>
      <point x="612.0396825396825" y="300.3944444444444"/>
      <point x="612.0396825396825" y="262.51269841269846" type="curve" smooth="yes"/>
      <point x="612.0396825396825" y="180.98333333333335"/>
      <point x="549.0277777777777" y="128.10158730158727"/>
      <point x="453.8547619047619" y="127.81507936507938" type="curve" smooth="yes"/>
      <point x="288.57698412698414" y="127.2420634920635"/>
      <point x="241.2888888888889" y="273.5039682539683"/>
      <point x="184.68492063492064" y="490.1468253968254" type="curve"/>
      <point x="126.47460317460317" y="474.8857142857143" type="line"/>
      <point x="154.24523809523805" y="307.98015873015873"/>
      <point x="192.4269841269841" y="195.98015873015873"/>
      <point x="246.0944444444445" y="112.0515873015873" type="curve"/>
      <point x="289.10873015873017" y="120.78968253968254" type="line"/>
      <point x="188.9047619047619" y="154.33730158730157"/>
      <point x="123.68571428571427" y="272.35714285714283"/>
      <point x="60.282539682539685" y="481.9563492063492" type="curve"/>
      <point x="2.6198412698412694" y="466.86111111111114" type="line"/>
      <point x="64.8531746031746" y="150.5753968253968"/>
      <point x="200.39761904761906" y="-16.444444444444443"/>
    </contour>
    <contour>
      <point x="575.6309523809524" y="592.5238095238095" type="curve"/>
      <point x="640.936507936508" y="592.5238095238095" type="line"/>
      <point x="628.8357142857143" y="737.452380952381"/>
      <point x="562.9261904761906" y="828.3214285714287"/>
      <point x="428.36269841269836" y="828.3214285714287" type="curve" smooth="yes"/>
      <point x="346.47222222222223" y="828.3214285714287"/>
      <point x="306.3515873015873" y="811.0349206349206"/>
      <point x="205.47222222222223" y="811.0349206349206" type="curve" smooth="yes"/>
      <point x="124.04126984126985" y="811.0349206349206"/>
      <point x="96.93492063492063" y="838.39126984127"/>
      <point x="96.93492063492063" y="893.2960317460318" type="curve" smooth="yes"/>
      <point x="96.93492063492063" y="905.3563492063491"/>
      <point x="97.93492063492063" y="920.1301587301588"/>
      <point x="99.64841269841271" y="932.7428571428571" type="curve"/>
      <point x="45.915079365079364" y="939.0039682539682" type="line"/>
      <point x="40.653968253968245" y="914.481746031746"/>
      <point x="37.10634920634921" y="886.1960317460317"/>
      <point x="37.10634920634921" y="859.492857142857" type="curve" smooth="yes"/>
      <point x="37.10634920634921" y="756.95"/>
      <point x="90.62380952380953" y="686.3222222222222"/>
      <point x="227.01349206349207" y="686.3222222222222" type="curve" smooth="yes"/>
      <point x="317.1912698412699" y="686.3222222222222"/>
      <point x="377.48730158730166" y="706.1563492063493"/>
      <point x="449.33809523809526" y="706.1563492063493" type="curve" smooth="yes"/>
      <point x="523.0833333333334" y="706.1563492063493"/>
      <point x="566.7111111111111" y="678.2619047619048"/>
    </contour>
  </outline>
</glyph>
<glyph name="rVocalic-beng" format="2">
  <advance width="763.1968253968255"/>
  <unicode hex="098B"/>
  <anchor x="516.3515873015872" y="0.0" name="bottom"/>
  <anchor x="516.3515873015872" y="94.11904761904762" name="bottom.rakaar"/>
  <anchor x="449.7611111111111" y="99.59523809523809" name="bottom.rvocalic"/>
  <anchor x="497.25079365079364" y="17.285714285714285" name="bottom.virama"/>
  <anchor x="516.3515873015872" y="542.3333333333334" name="top"/>
  <anchor x="519.1857142857142" y="542.3333333333334" name="topright"/>
  <anchor x="381.4150793650794" y="0.0" name="vedic"/>
  <outline>
    <contour>
      <point x="506.2563492063493" y="-35.18174603174603" type="line"/>
      <point x="516.3515873015872" y="-32.34761904761905" type="line"/>
      <point x="516.3515873015872" y="637.3571428571428" type="line"/>
      <point x="421.85634920634914" y="690.8333333333334" type="line"/>
      <point x="414.1277777777778" y="687.7380952380952" type="line"/>
      <point x="414.1277777777778" y="425.39523809523814" type="line"/>
      <point x="424.8365079365079" y="485.83730158730157" type="line"/>
      <point x="305.09682539682535" y="448.4261904761906"/>
      <point x="166.5642857142857" y="383.9198412698413"/>
      <point x="69.19285714285715" y="321.615873015873" type="curve"/>
      <point x="133.80238095238096" y="169.85714285714286" type="line"/>
      <point x="252.63571428571427" y="157.19523809523807"/>
      <point x="367.0611111111111" y="109.86904761904759"/>
      <point x="431.52777777777777" y="8.230158730158728" type="curve"/>
    </contour>
    <contour>
      <point x="414.1277777777778" y="80.45" type="line"/>
      <point x="431.9309523809524" y="90.76428571428573" type="line"/>
      <point x="373.2912698412698" y="220.63333333333333"/>
      <point x="269.12857142857143" y="257.4325396825397"/>
      <point x="184.78174603174602" y="273.73650793650796" type="curve"/>
      <point x="201.25079365079367" y="222.36031746031748" type="line"/>
      <point x="258.5" y="265.0904761904762"/>
      <point x="358.09047619047624" y="315.286507936508"/>
      <point x="432.4388888888889" y="337.14206349206347" type="curve"/>
      <point x="414.1277777777778" y="375.4746031746032" type="line"/>
    </contour>
    <contour>
      <point x="131.4388888888889" y="419.6857142857143" type="curve" smooth="yes"/>
      <point x="191.13730158730158" y="419.6857142857143"/>
      <point x="284.59682539682535" y="453.33015873015876"/>
      <point x="332.4809523809523" y="528.552380952381" type="curve"/>
      <point x="297.21587301587306" y="530.6190476190476" type="line"/>
      <point x="318.5793650793651" y="509.6285714285714"/>
      <point x="342.4031746031746" y="481.4277777777778"/>
      <point x="359.74047619047616" y="441.4523809523809" type="curve"/>
      <point x="412.76984126984127" y="454.54761904761904" type="line"/>
      <point x="390.6936507936508" y="525.2619047619048"/>
      <point x="347.3015873015873" y="599.6674603174603"/>
      <point x="290.07539682539675" y="636.1198412698411" type="curve"/>
      <point x="249.4103174603174" y="569.254761904762"/>
      <point x="191.08412698412698" y="528.0079365079365"/>
      <point x="126.04444444444442" y="528.0079365079365" type="curve" smooth="yes"/>
      <point x="113.18412698412699" y="528.0079365079365"/>
      <point x="99.38492063492063" y="531.0738095238095"/>
      <point x="89.40952380952382" y="535.4007936507936" type="curve"/>
      <point x="140.765873015873" y="482.4420634920634" type="line"/>
      <point x="160.4142857142857" y="499.9896825396825"/>
      <point x="167.2484126984127" y="516.5373015873016"/>
      <point x="167.2484126984127" y="545.6325396825397" type="curve" smooth="yes"/>
      <point x="167.2484126984127" y="582.1801587301588"/>
      <point x="143.5142857142857" y="616.918253968254"/>
      <point x="91.00158730158729" y="616.918253968254" type="curve" smooth="yes"/>
      <point x="40.85634920634921" y="616.918253968254"/>
      <point x="8.399206349206345" y="582.8936507936507"/>
      <point x="8.399206349206345" y="531.2507936507936" type="curve" smooth="yes"/>
      <point x="8.399206349206345" y="458.8507936507936"/>
      <point x="58.534126984126985" y="419.6857142857143"/>
    </contour>
    <contour>
      <point x="684.8142857142857" y="47.12777777777778" type="line"/>
      <point x="694.336507936508" y="49.675396825396824" type="line"/>
      <point x="694.336507936508" y="542.3333333333334" type="line"/>
      <point x="798.9206349206349" y="542.3333333333334" type="line"/>
      <point x="754.413492063492" y="622.0" type="line"/>
      <point x="684.0658730158731" y="622.0" type="line"/>
      <point x="675.2571428571429" y="681.9285714285714" type="line"/>
      <point x="601.6293650793651" y="719.0238095238096" type="line"/>
      <point x="593.534126984127" y="715.4761904761905" type="line"/>
      <point x="593.534126984127" y="166.49920634920633" type="line"/>
      <point x="611.3373015873016" y="177.28095238095239" type="line"/>
      <point x="577.188888888889" y="263.0"/>
      <point x="537.1944444444442" y="301.18888888888887"/>
      <point x="482.14682539682536" y="334.40555555555557" type="curve"/>
      <point x="470.79603174603176" y="225.8611111111111" type="line"/>
      <point x="531.879365079365" y="195.66428571428574"/>
      <point x="573.7174603174604" y="159.32301587301586"/>
      <point x="610.9341269841269" y="90.88650793650793" type="curve"/>
    </contour>
  </outline>
</glyph>
<glyph name="lVocalic-beng" format="2">
  <advance width="530.7071428571429"/>
  <unicode hex="098C"/>
  <anchor x="418.27936507936505" y="542.3333333333334" name="top"/>
  <anchor x="264.95396825396824" y="0.0" name="vedic"/>
  <outline>
    <contour>
      <point x="297.8539682539682" y="-19.952380952380956" type="line"/>
      <point x="394.4738095238095" y="-7.142857142857146"/>
      <point x="516.1777777777777" y="69.01507936507936"/>
      <point x="516.1777777777777" y="264.9563492063493" type="curve" smooth="yes"/>
      <point x="516.1777777777777" y="412.19047619047615"/>
      <point x="442.1055555555556" y="473.87142857142857"/>
      <point x="289.2222222222223" y="505.86507936507934" type="curve" smooth="yes"/>
      <point x="200.9119047619048" y="525.0595238095237"/>
      <point x="143.07619047619045" y="539.5579365079365"/>
      <point x="143.07619047619045" y="616.5730158730158" type="curve" smooth="yes"/>
      <point x="143.07619047619045" y="647.547619047619"/>
      <point x="148.87539682539682" y="670.452380952381"/>
      <point x="160.42301587301588" y="699.0" type="curve"/>
      <point x="105.64047619047619" y="716.6428571428572" type="line"/>
      <point x="89.66666666666666" y="687.2230158730159"/>
      <point x="63.047619047619044" y="629.1857142857143"/>
      <point x="63.047619047619044" y="563.0468253968255" type="curve" smooth="yes"/>
      <point x="63.047619047619044" y="443.2420634920635"/>
      <point x="136.3801587301587" y="402.14682539682536"/>
      <point x="258.5936507936508" y="376.95238095238096" type="curve" smooth="yes"/>
      <point x="371.63015873015866" y="353.4968253968254"/>
      <point x="440.4103174603174" y="341.9031746031746"/>
      <point x="440.4103174603174" y="232.40396825396826" type="curve" smooth="yes"/>
      <point x="440.4103174603174" y="155.4142857142857"/>
      <point x="402.0420634920635" y="108.42777777777776"/>
      <point x="345.66428571428577" y="104.0" type="curve"/>
      <point x="400.75793650793656" y="72.16666666666667" type="line"/>
      <point x="401.3912698412699" y="214.38095238095238"/>
      <point x="332.11111111111103" y="329.38095238095235"/>
      <point x="203.4468253968254" y="329.38095238095235" type="curve" smooth="yes"/>
      <point x="84.41587301587302" y="329.38095238095235"/>
      <point x="34.214285714285715" y="242.19603174603174"/>
      <point x="34.214285714285715" y="151.4777777777778" type="curve" smooth="yes"/>
      <point x="34.214285714285715" y="46.87619047619047"/>
      <point x="88.38571428571429" y="-5.5000000000000036"/>
      <point x="159.03968253968253" y="-5.5000000000000036" type="curve" smooth="yes"/>
      <point x="216.5468253968254" y="-5.5000000000000036"/>
      <point x="242.29047619047623" y="33.64126984126984"/>
      <point x="242.29047619047623" y="82.62936507936507" type="curve" smooth="yes"/>
      <point x="242.29047619047623" y="132.62857142857143"/>
      <point x="210.4809523809524" y="164.9047619047619"/>
      <point x="164.02857142857144" y="164.9047619047619" type="curve" smooth="yes"/>
      <point x="123.55634920634921" y="164.9047619047619"/>
      <point x="88.72063492063492" y="136.26190476190476"/>
      <point x="89.43412698412698" y="98.52380952380952" type="curve"/>
      <point x="149.2579365079365" y="92.16746031746034" type="line"/>
      <point x="129.58412698412698" y="98.78571428571429"/>
      <point x="115.39761904761906" y="116.60476190476189"/>
      <point x="115.39761904761906" y="148.69047619047618" type="curve" smooth="yes"/>
      <point x="115.39761904761906" y="185.14285714285714"/>
      <point x="141.48412698412696" y="213.04761904761904"/>
      <point x="184.5055555555556" y="213.04761904761904" type="curve" smooth="yes"/>
      <point x="267.28571428571433" y="213.04761904761904"/>
      <point x="294.8539682539682" y="111.39523809523811"/>
      <point x="294.8539682539682" y="29.4047619047619" type="curve" smooth="yes"/>
      <point x="294.8539682539682" y="14.866666666666664"/>
      <point x="293.8539682539683" y="0.9619047619047616"/>
      <point x="291.01984126984127" y="-13.85714285714286" type="curve"/>
    </contour>
  </outline>
</glyph>
<glyph name="e-beng" format="2">
  <advance width="646.676984126984"/>
  <unicode hex="098F"/>
  <anchor x="586.9095238095238" y="0.0" name="bottom"/>
  <anchor x="586.9095238095238" y="-7.738095238095239" name="bottom.rvocalic"/>
  <anchor x="567.9746031746033" y="9.095238095238095" name="bottom.virama"/>
  <anchor x="499.9222222222221" y="542.3333333333334" name="top"/>
  <anchor x="502.9222222222221" y="542.3333333333334" name="topright"/>
  <anchor x="323.01190476190476" y="0.0" name="vedic"/>
  <outline>
    <contour>
      <point x="576.8492063492064" y="-35.57142857142857" type="line"/>
      <point x="586.9444444444446" y="-33.023809523809526" type="line"/>
      <point x="586.9444444444446" y="481.3785714285714" type="line" smooth="yes"/>
      <point x="586.9444444444446" y="571.0460317460319"/>
      <point x="531.0007936507936" y="633.0"/>
      <point x="433.8706349206349" y="633.0" type="curve" smooth="yes"/>
      <point x="307.0238095238095" y="633.0"/>
      <point x="186.66031746031746" y="519.5714285714286"/>
      <point x="186.66031746031746" y="385.4523809523809" type="curve" smooth="yes"/>
      <point x="186.66031746031746" y="300.7142857142857"/>
      <point x="241.58809523809526" y="253.52380952380955"/>
      <point x="311.0103174603175" y="253.07142857142856" type="curve" smooth="yes"/>
      <point x="379.9007936507937" y="252.61904761904762"/>
      <point x="418.86031746031745" y="299.070634920635"/>
      <point x="418.86031746031745" y="355.6428571428571" type="curve" smooth="yes"/>
      <point x="418.86031746031745" y="407.3809523809524"/>
      <point x="386.22222222222223" y="442.38095238095235"/>
      <point x="339.74841269841266" y="442.38095238095235" type="curve" smooth="yes"/>
      <point x="317.0396825396826" y="442.38095238095235"/>
      <point x="295.3857142857143" y="431.2857142857143"/>
      <point x="282.91825396825396" y="411.8333333333333" type="curve"/>
      <point x="349.0753968253968" y="405.1904761904762" type="line"/>
      <point x="350.35634920634925" y="476.14682539682536"/>
      <point x="401.0365079365079" y="544.524603174603"/>
      <point x="448.8587301587301" y="544.524603174603" type="curve" smooth="yes"/>
      <point x="473.7055555555555" y="544.524603174603"/>
      <point x="484.72063492063495" y="526.9055555555555"/>
      <point x="484.72063492063495" y="499.92460317460325" type="curve" smooth="yes"/>
      <point x="484.72063492063495" y="254.71428571428572" type="line" smooth="yes"/>
      <point x="484.72063492063495" y="202.85079365079366"/>
      <point x="489.98174603174607" y="132.5468253968254"/>
      <point x="498.0769841269841" y="95.16507936507936" type="curve"/>
      <point x="454.74999999999994" y="180.6769841269841"/>
      <point x="408.9468253968254" y="196.75714285714284"/>
      <point x="348.5023809523809" y="196.75714285714284" type="curve" smooth="yes"/>
      <point x="304.0579365079365" y="196.75714285714284"/>
      <point x="264.66507936507935" y="188.0888888888889"/>
      <point x="213.1611111111111" y="188.0888888888889" type="curve" smooth="yes"/>
      <point x="146.39682539682542" y="188.0888888888889"/>
      <point x="97.27777777777779" y="226.71269841269842"/>
      <point x="97.27777777777779" y="311.265873015873" type="curve" smooth="yes"/>
      <point x="97.27777777777779" y="336.44603174603174"/>
      <point x="99.95079365079364" y="364.91269841269843"/>
      <point x="108.04603174603176" y="396.6507936507937" type="curve"/>
      <point x="50.26349206349206" y="406.31904761904764" type="line"/>
      <point x="36.82142857142857" y="361.1190476190476"/>
      <point x="29.620634920634913" y="307.79285714285703"/>
      <point x="29.620634920634913" y="258.9349206349206" type="curve" smooth="yes"/>
      <point x="29.620634920634913" y="98.83492063492064"/>
      <point x="121.30555555555556" y="40.458730158730155"/>
      <point x="222.72857142857143" y="40.458730158730155" type="curve" smooth="yes"/>
      <point x="292.734126984127" y="40.458730158730155"/>
      <point x="346.845238095238" y="60.60396825396826"/>
      <point x="403.3650793650794" y="60.60396825396826" type="curve" smooth="yes"/>
      <point x="444.2468253968254" y="60.60396825396826"/>
      <point x="479.90000000000003" y="47.217460317460315"/>
      <point x="513.5690476190476" y="0.7650793650793655" type="curve"/>
    </contour>
  </outline>
</glyph>
<glyph name="ai-beng" format="2">
  <advance width="748.8674603174603"/>
  <unicode hex="0990"/>
  <anchor x="534.2801587301587" y="604.6428571428572" name="top"/>
  <anchor x="486.2801587301588" y="597.3571428571428" name="topright"/>
  <anchor x="374.034126984127" y="0.0" name="vedic"/>
  <anchor x="586.9095238095238" y="0.0" name="bottom"/>
  <anchor x="586.9095238095238" y="-7.738095238095239" name="bottom.rvocalic"/>
  <anchor x="567.9746031746033" y="9.095238095238095" name="bottom.virama"/>
  <outline>
    <contour>
      <point x="568.3952380952381" y="293.2420634920635" type="line"/>
      <point x="641.531746031746" y="362.9301587301587"/>
      <point x="695.7936507936507" y="444.3674603174603"/>
      <point x="695.7936507936507" y="563.170634920635" type="curve" smooth="yes"/>
      <point x="695.7936507936507" y="752.5373015873016"/>
      <point x="549.6595238095238" y="778.4285714285714"/>
      <point x="420.7007936507937" y="799.4777777777778" type="curve" smooth="yes"/>
      <point x="310.8214285714286" y="817.4722222222222"/>
      <point x="225.15396825396826" y="833.868253968254"/>
      <point x="225.15396825396826" y="922.0896825396825" type="curve" smooth="yes"/>
      <point x="225.15396825396826" y="951.1698412698411"/>
      <point x="232.50079365079367" y="983.4309523809524"/>
      <point x="245.66190476190476" y="1011.1396825396826" type="curve"/>
      <point x="184.71190476190475" y="1030.8484126984126" type="line"/>
      <point x="163.08333333333331" y="984.9698412698413"/>
      <point x="149.8420634920635" y="940.9547619047619"/>
      <point x="149.8420634920635" y="887.0753968253969" type="curve" smooth="yes"/>
      <point x="149.8420634920635" y="737.4349206349206"/>
      <point x="277.2253968253968" y="707.0214285714285"/>
      <point x="408.73809523809524" y="687.4706349206349" type="curve" smooth="yes"/>
      <point x="531.8015873015873" y="669.6277777777777"/>
      <point x="627.8492063492064" y="656.4706349206349"/>
      <point x="627.8492063492064" y="551.090476190476" type="curve" smooth="yes"/>
      <point x="627.8492063492064" y="486.9690476190476"/>
      <point x="604.1595238095238" y="441.23015873015873"/>
      <point x="543.4801587301588" y="393.95396825396824" type="curve"/>
    </contour>
    <component base="e-beng"/>
  </outline>
</glyph>
<glyph name="o-beng" format="2">
  <advance width="687.1246031746032"/>
  <unicode hex="0993"/>
  <anchor x="536.5611111111111" y="-8.389682539682546" name="bottom"/>
  <anchor x="595.1746031746031" y="0.0" name="bottom.rakaar"/>
  <anchor x="526.1777777777777" y="16.791269841269834" name="bottom.rvocalic"/>
  <anchor x="467.86031746031745" y="0.7246031746031728" name="bottom.virama"/>
  <anchor x="460.98174603174607" y="508.9777777777777" name="top"/>
  <anchor x="463.815873015873" y="508.9777777777777" name="topright"/>
  <anchor x="343.47936507936515" y="0.0" name="vedic"/>
  <outline>
    <contour>
      <point x="424.5912698412699" y="21.489682539682537" type="curve" smooth="yes"/>
      <point x="560.936507936508" y="21.489682539682537"/>
      <point x="653.1523809523808" y="101.05714285714285"/>
      <point x="653.1523809523808" y="220.08650793650793" type="curve" smooth="yes"/>
      <point x="653.1523809523808" y="347.8238095238095"/>
      <point x="527.7817460317459" y="429.0111111111112"/>
      <point x="464.92460317460313" y="429.0111111111112" type="curve" smooth="yes"/>
      <point x="419.2492063492063" y="429.0111111111112"/>
      <point x="381.68809523809523" y="398.27936507936505"/>
      <point x="381.68809523809523" y="341.3769841269841" type="curve" smooth="yes"/>
      <point x="381.68809523809523" y="288.0714285714286"/>
      <point x="416.52698412698413" y="252.24761904761908"/>
      <point x="470.1857142857143" y="252.24761904761908" type="curve" smooth="yes"/>
      <point x="554.3071428571429" y="252.24761904761908"/>
      <point x="625.2277777777778" y="353.434126984127"/>
      <point x="625.2277777777778" y="461.44841269841265" type="curve" smooth="yes"/>
      <point x="625.2277777777778" y="557.9857142857143"/>
      <point x="556.1468253968254" y="629.452380952381"/>
      <point x="433.7388888888889" y="629.452380952381" type="curve" smooth="yes"/>
      <point x="286.82301587301583" y="629.452380952381"/>
      <point x="171.35317460317464" y="532.8404761904764"/>
      <point x="171.35317460317464" y="418.3865079365079" type="curve" smooth="yes"/>
      <point x="171.35317460317464" y="344.62857142857143"/>
      <point x="215.99682539682541" y="304.4380952380953"/>
      <point x="273.89682539682536" y="304.4380952380953" type="curve" smooth="yes"/>
      <point x="334.35952380952386" y="304.4380952380953"/>
      <point x="367.968253968254" y="343.0706349206349"/>
      <point x="367.968253968254" y="397.77936507936516" type="curve" smooth="yes"/>
      <point x="367.968253968254" y="444.2285714285714"/>
      <point x="340.42539682539683" y="472.27142857142854"/>
      <point x="302.71031746031747" y="472.27142857142854" type="curve" smooth="yes"/>
      <point x="271.91666666666674" y="472.27142857142854"/>
      <point x="252.8103174603174" y="455.63888888888886"/>
      <point x="247.26666666666668" y="439.88492063492066" type="curve"/>
      <point x="324.3515873015873" y="409.58968253968254" type="line"/>
      <point x="328.29365079365084" y="491.6523809523809"/>
      <point x="404.0071428571428" y="548.3841269841271"/>
      <point x="470.186507936508" y="548.3841269841271" type="curve" smooth="yes"/>
      <point x="509.96269841269844" y="548.3841269841271"/>
      <point x="526.4349206349207" y="529.8904761904762"/>
      <point x="526.4349206349207" y="502.13174603174605" type="curve" smooth="yes"/>
      <point x="526.4349206349207" y="464.6436507936508"/>
      <point x="500.6404761904763" y="419.25793650793656"/>
      <point x="454.5642857142857" y="403.7246031746032" type="curve"/>
      <point x="474.9063492063492" y="337.45793650793644" type="line"/>
      <point x="517.1579365079365" y="339.2920634920635"/>
      <point x="571.3896825396826" y="314.02063492063496"/>
      <point x="571.3896825396826" y="259.3769841269841" type="curve" smooth="yes"/>
      <point x="571.3896825396826" y="192.48253968253965"/>
      <point x="510.18809523809523" y="158.50158730158734"/>
      <point x="421.034126984127" y="158.50158730158734" type="curve" smooth="yes"/>
      <point x="266.7103174603174" y="158.50158730158734"/>
      <point x="156.81349206349208" y="240.05714285714288"/>
      <point x="73.85873015873015" y="535.1261904761906" type="curve"/>
      <point x="13.181746031746034" y="519.9103174603174" type="line"/>
      <point x="83.8484126984127" y="179.06111111111113"/>
      <point x="219.94603174603174" y="21.489682539682537"/>
    </contour>
  </outline>
</glyph>
<glyph name="au-beng" format="2">
  <advance width="767.9650793650794"/>
  <unicode hex="0994"/>
  <anchor x="592.547619047619" y="-5.5952380952380985" name="bottom"/>
  <anchor x="655.9285714285714" y="-1.0" name="bottom.rakaar"/>
  <anchor x="577.7380952380953" y="21.499999999999993" name="bottom.rvocalic"/>
  <anchor x="513.6428571428571" y="2.619047619047617" name="bottom.virama"/>
  <anchor x="621.7380952380953" y="604.6428571428572" name="top"/>
  <anchor x="559.6428571428571" y="597.3571428571428" name="topright"/>
  <anchor x="383.9825396825397" y="0.0" name="vedic"/>
  <outline>
    <contour>
      <point x="587.4928571428572" y="303.3301587301587" type="line"/>
      <point x="660.795238095238" y="373.01825396825393"/>
      <point x="714.89126984127" y="449.5547619047619"/>
      <point x="714.89126984127" y="563.7436507936508" type="curve" smooth="yes"/>
      <point x="714.89126984127" y="751.5119047619048"/>
      <point x="568.9230158730159" y="778.4285714285713"/>
      <point x="439.67777777777775" y="799.4777777777778" type="curve" smooth="yes"/>
      <point x="336.9611111111111" y="816.3261904761905"/>
      <point x="244.41746031746032" y="831.5761904761905"/>
      <point x="244.41746031746032" y="922.0896825396825" type="curve" smooth="yes"/>
      <point x="244.41746031746032" y="951.1698412698411"/>
      <point x="251.7642857142857" y="983.4309523809524"/>
      <point x="264.75952380952384" y="1011.1396825396826" type="curve"/>
      <point x="203.8095238095238" y="1030.8484126984126" type="line"/>
      <point x="182.34682539682538" y="984.9698412698413"/>
      <point x="169.10555555555555" y="940.9547619047619"/>
      <point x="169.10555555555555" y="887.0753968253969" type="curve" smooth="yes"/>
      <point x="169.10555555555555" y="737.4349206349206"/>
      <point x="296.4888888888888" y="707.0214285714285"/>
      <point x="428.00158730158734" y="687.4706349206349" type="curve" smooth="yes"/>
      <point x="544.4753968253968" y="670.2007936507937"/>
      <point x="647.4595238095238" y="657.088888888889"/>
      <point x="647.4595238095238" y="549.1301587301588" type="curve" smooth="yes"/>
      <point x="647.4595238095238" y="483.57619047619045"/>
      <point x="623.1365079365079" y="440.3706349206349"/>
      <point x="562.7436507936508" y="392.8079365079365" type="curve"/>
    </contour>
    <component base="o-beng"/>
  </outline>
</glyph>
<glyph name="ka-beng" format="2">
  <advance width="714.9134920634921"/>
  <unicode hex="0995"/>
  <anchor x="447.27698412698413" y="35.642857142857146" name="bottom"/>
  <anchor x="454.0063492063492" y="19.41587301587301" name="bottom.rakaar"/>
  <anchor x="454.5039682539683" y="10.834126984126984" name="bottom.rvocalic"/>
  <anchor x="445.0547619047619" y="-16.165079365079368" name="bottom.virama"/>
  <anchor x="210.9904761904762" y="32.25873015873016" name="nukta"/>
  <anchor x="423.47142857142853" y="587.9285714285714" name="top"/>
  <anchor x="424.75793650793645" y="571.547619047619" name="topright"/>
  <anchor x="357.0571428571429" y="0.0" name="vedic"/>
  <outline>
    <contour>
      <point x="444.4087301587302" y="-28.380952380952383" type="line"/>
      <point x="454.5039682539683" y="-25.833333333333336" type="line"/>
      <point x="454.5039682539683" y="393.35555555555555" type="line"/>
      <point x="437.3230158730159" y="367.6420634920635" type="line"/>
      <point x="443.50396825396825" y="369.6420634920635"/>
      <point x="450.3380952380952" y="370.6420634920635"/>
      <point x="456.5190476190476" y="370.6420634920635" type="curve" smooth="yes"/>
      <point x="556.8301587301588" y="370.6420634920635"/>
      <point x="635.1984126984127" y="319.4222222222222"/>
      <point x="635.1984126984127" y="254.14523809523808" type="curve" smooth="yes"/>
      <point x="635.1984126984127" y="238.9793650793651"/>
      <point x="632.5650793650794" y="227.884126984127"/>
      <point x="623.9317460317462" y="214.88412698412696" type="curve"/>
      <point x="643.2325396825396" y="214.05079365079365" type="line"/>
      <point x="639.7746031746032" y="260.69365079365076"/>
      <point x="612.0309523809524" y="285.17063492063494"/>
      <point x="565.9507936507937" y="285.17063492063494" type="curve" smooth="yes"/>
      <point x="520.0753968253968" y="285.17063492063494"/>
      <point x="484.99523809523805" y="253.33650793650796"/>
      <point x="484.99523809523805" y="202.3373015873016" type="curve" smooth="yes"/>
      <point x="484.99523809523805" y="148.57460317460317"/>
      <point x="517.3269841269841" y="108.31349206349206"/>
      <point x="575.4182539682539" y="108.31349206349206" type="curve" smooth="yes"/>
      <point x="646.8857142857142" y="108.31349206349206"/>
      <point x="693.9809523809523" y="163.94126984126984"/>
      <point x="693.9809523809523" y="263.0753968253968" type="curve" smooth="yes"/>
      <point x="693.9809523809523" y="398.44603174603174"/>
      <point x="596.6277777777777" y="499.12142857142857"/>
      <point x="440.0365079365079" y="512.9301587301588" type="curve"/>
      <point x="454.5039682539683" y="487.7142857142857" type="line"/>
      <point x="454.5039682539683" y="542.3333333333334" type="line"/>
      <point x="750.4714285714288" y="542.3333333333334" type="line"/>
      <point x="706.8841269841269" y="622.0" type="line"/>
      <point x="-35.72380952380952" y="622.0" type="line"/>
      <point x="7.9492063492063485" y="542.3333333333334" type="line"/>
      <point x="352.28015873015875" y="542.3333333333334" type="line"/>
      <point x="352.28015873015875" y="456.95238095238096" type="line"/>
      <point x="363.92301587301586" y="515.6436507936509" type="line"/>
      <point x="235.88968253968255" y="480.80952380952385"/>
      <point x="104.38888888888887" y="419.23809523809524"/>
      <point x="4.705555555555553" y="351.3769841269841" type="curve"/>
      <point x="69.01428571428572" y="190.81746031746033" type="line"/>
      <point x="194.9952380952381" y="173.4357142857143"/>
      <point x="301.12698412698415" y="119.26349206349205"/>
      <point x="369.9666666666667" y="15.37777777777778" type="curve"/>
    </contour>
    <contour>
      <point x="352.28015873015875" y="91.17142857142856" type="line"/>
      <point x="369.9174603174603" y="105.34603174603174" type="line"/>
      <point x="323.7785714285714" y="207.31825396825394"/>
      <point x="238.16111111111113" y="265.3642857142857"/>
      <point x="159.0015873015873" y="288.815873015873" type="curve"/>
      <point x="164.09285714285716" y="267.0269841269842" type="line"/>
      <point x="223.98095238095237" y="308.26428571428573"/>
      <point x="306.4714285714286" y="345.79365079365084"/>
      <point x="370.79206349206345" y="365.61349206349206" type="curve"/>
      <point x="352.28015873015875" y="410.5" type="line"/>
    </contour>
  </outline>
</glyph>
<glyph name="kha-beng" format="2">
  <advance width="621.4809523809523"/>
  <unicode hex="0996"/>
  <anchor x="544.5944444444444" y="35.642857142857146" name="bottom"/>
  <anchor x="552.4547619047618" y="94.11904761904762" name="bottom.rakaar"/>
  <anchor x="552.4547619047618" y="9.865079365079364" name="bottom.rvocalic"/>
  <anchor x="532.5857142857142" y="11.445238095238093" name="bottom.virama"/>
  <anchor x="515.1777777777778" y="577.9285714285714" name="top"/>
  <anchor x="502.634126984127" y="568.3809523809524" name="topright"/>
  <anchor x="292.9404761904762" y="0.0" name="vedic"/>
  <outline>
    <contour>
      <point x="542.5253968253969" y="-28.380952380952383" type="line"/>
      <point x="552.4547619047618" y="-25.833333333333336" type="line"/>
      <point x="552.4547619047618" y="542.3333333333334" type="line"/>
      <point x="657.2047619047619" y="542.3333333333334" type="line"/>
      <point x="612.697619047619" y="622.0" type="line"/>
      <point x="542.35" y="622.0" type="line"/>
      <point x="533.2547619047618" y="681.9285714285714" type="line"/>
      <point x="458.49206349206355" y="719.0238095238096" type="line"/>
      <point x="450.3968253968254" y="715.4761904761905" type="line"/>
      <point x="450.3968253968254" y="87.29603174603174" type="line"/>
      <point x="467.8682539682539" y="98.39444444444445" type="line"/>
      <point x="420.6285714285715" y="204.8357142857143"/>
      <point x="343.0801587301587" y="258.12222222222226"/>
      <point x="266.031746031746" y="285.8865079365079" type="curve"/>
      <point x="275.9555555555556" y="250.08095238095234" type="line"/>
      <point x="370.7230158730159" y="274.17619047619047"/>
      <point x="415.2531746031746" y="331.0396825396826"/>
      <point x="415.2531746031746" y="424.7960317460317" type="curve" smooth="yes"/>
      <point x="415.2531746031746" y="533.1809523809524"/>
      <point x="339.0468253968254" y="598.2857142857142"/>
      <point x="280.90634920634926" y="634.5722222222221" type="curve"/>
      <point x="239.12539682539685" y="565.113492063492"/>
      <point x="189.75714285714284" y="508.56349206349205"/>
      <point x="125.0642857142857" y="508.56349206349205" type="curve" smooth="yes"/>
      <point x="114.8579365079365" y="508.56349206349205"/>
      <point x="100.6515873015873" y="509.84999999999997"/>
      <point x="93.26984126984127" y="513.3023809523809" type="curve"/>
      <point x="140.765873015873" y="472.90476190476187" type="line"/>
      <point x="160.4142857142857" y="490.45238095238096"/>
      <point x="167.2484126984127" y="507.00000000000006"/>
      <point x="167.2484126984127" y="536.0952380952381" type="curve" smooth="yes"/>
      <point x="167.2484126984127" y="572.6428571428572"/>
      <point x="143.5142857142857" y="607.3809523809524"/>
      <point x="91.00158730158729" y="607.3809523809524" type="curve" smooth="yes"/>
      <point x="40.85634920634921" y="607.3809523809524"/>
      <point x="8.399206349206345" y="573.1904761904761"/>
      <point x="8.399206349206345" y="521.7134920634921" type="curve" smooth="yes"/>
      <point x="8.399206349206345" y="441.7738095238095"/>
      <point x="62.94761904761904" y="400.66904761904766"/>
      <point x="132.8920634920635" y="400.66904761904766" type="curve" smooth="yes"/>
      <point x="199.07063492063494" y="400.66904761904766"/>
      <point x="275.1722222222223" y="433.6301587301587"/>
      <point x="324.2484126984127" y="524.5690476190476" type="curve"/>
      <point x="279.3690476190476" y="532.9928571428572" type="line"/>
      <point x="300.0230158730159" y="514.4087301587302"/>
      <point x="317.4452380952381" y="490.5746031746031"/>
      <point x="317.4452380952381" y="459.3492063492064" type="curve" smooth="yes"/>
      <point x="317.4452380952381" y="380.84365079365074"/>
      <point x="235.08412698412698" y="346.8428571428571"/>
      <point x="105.23968253968255" y="346.51111111111106" type="curve"/>
      <point x="158.20873015873016" y="192.82063492063494" type="line"/>
      <point x="286.4214285714286" y="179.02777777777774"/>
      <point x="402.13888888888886" y="118.14761904761905"/>
      <point x="468.2642857142857" y="15.242063492063489" type="curve"/>
    </contour>
  </outline>
</glyph>
<glyph name="ga-beng" format="2">
  <advance width="625.1079365079366"/>
  <unicode hex="0997"/>
  <anchor x="538.1658730158731" y="65.67460317460318" name="bottom"/>
  <anchor x="556.2476190476192" y="-19.92857142857143" name="bottom.rakaar"/>
  <anchor x="556.2476190476192" y="-3.0" name="bottom.rvocalic"/>
  <anchor x="516.4619047619047" y="9.095238095238095" name="bottom.virama"/>
  <anchor x="520.1055555555556" y="577.9285714285714" name="top"/>
  <anchor x="507.56190476190477" y="568.3809523809524" name="topright"/>
  <anchor x="312.29761904761915" y="0.0" name="vedic"/>
  <outline>
    <contour>
      <point x="546.604761904762" y="-39.38095238095238" type="line"/>
      <point x="556.2476190476192" y="-36.833333333333336" type="line"/>
      <point x="556.2476190476192" y="542.3333333333334" type="line"/>
      <point x="660.8317460317461" y="542.3333333333334" type="line"/>
      <point x="616.324603174603" y="622.0" type="line"/>
      <point x="545.9769841269841" y="622.0" type="line"/>
      <point x="537.168253968254" y="681.9285714285714" type="line"/>
      <point x="463.54047619047617" y="719.0238095238096" type="line"/>
      <point x="455.4452380952381" y="715.4761904761905" type="line"/>
      <point x="455.4452380952381" y="599.8920634920635" type="line" smooth="yes"/>
      <point x="455.4452380952381" y="537.2944444444444"/>
      <point x="459.0126984126984" y="477.59841269841263"/>
      <point x="464.77222222222224" y="422.82301587301583" type="curve"/>
      <point x="477.35476190476186" y="420.61904761904765" type="line"/>
      <point x="422.51746031746035" y="569.8849206349207"/>
      <point x="335.76825396825393" y="635.6428571428572"/>
      <point x="240.7388888888889" y="635.6428571428572" type="curve" smooth="yes"/>
      <point x="141.77301587301585" y="635.6428571428572"/>
      <point x="53.385714285714286" y="567.3880952380953"/>
      <point x="-6.0190476190476225" y="436.9484126984127" type="curve"/>
      <point x="102.53015873015873" y="338.8428571428572" type="line"/>
      <point x="133.55793650793652" y="367.6563492063492"/>
      <point x="175.35714285714286" y="394.5206349206349"/>
      <point x="213.0920634920635" y="394.5206349206349" type="curve" smooth="yes"/>
      <point x="243.7452380952381" y="394.5206349206349"/>
      <point x="261.42460317460313" y="380.0579365079365"/>
      <point x="261.42460317460313" y="350.8714285714285" type="curve" smooth="yes"/>
      <point x="261.42460317460313" y="309.41428571428565"/>
      <point x="213.1174603174603" y="276.3690476190477"/>
      <point x="118.81507936507936" y="248.85714285714286" type="curve"/>
      <point x="198.65396825396826" y="114.0690476190476" type="line"/>
      <point x="332.8285714285714" y="171.09444444444446"/>
      <point x="375.0015873015873" y="252.62619047619043"/>
      <point x="375.0015873015873" y="334.35873015873017" type="curve" smooth="yes"/>
      <point x="375.0015873015873" y="411.3833333333333"/>
      <point x="328.31825396825394" y="471.20714285714286"/>
      <point x="245.05079365079368" y="471.20714285714286" type="curve" smooth="yes"/>
      <point x="198.08015873015873" y="471.20714285714286"/>
      <point x="162.87301587301587" y="455.7396825396826"/>
      <point x="135.9484126984127" y="436.097619047619" type="curve"/>
      <point x="153.3357142857143" y="411.2373015873016" type="line"/>
      <point x="173.02698412698413" y="465.3095238095238"/>
      <point x="223.16031746031746" y="522.8507936507937"/>
      <point x="281.1349206349207" y="522.8507936507937" type="curve" smooth="yes"/>
      <point x="342.23650793650796" y="522.8507936507937"/>
      <point x="407.26746031746035" y="472.4261904761904"/>
      <point x="467.0793650793651" y="319.1365079365079" type="curve"/>
      <point x="454.3103174603175" y="394.20158730158727" type="line"/>
      <point x="454.3103174603175" y="-0.09523809523809534" type="line"/>
    </contour>
  </outline>
</glyph>
<glyph name="gha-beng" format="2">
  <advance width="547.7119047619047"/>
  <unicode hex="0998"/>
  <anchor x="471.7452380952381" y="35.642857142857146" name="bottom"/>
  <anchor x="478.47460317460315" y="94.11904761904762" name="bottom.rakaar"/>
  <anchor x="478.97222222222223" y="9.533333333333333" name="bottom.rvocalic"/>
  <anchor x="459.4349206349206" y="11.445238095238093" name="bottom.virama"/>
  <anchor x="447.9396825396825" y="587.9285714285714" name="top"/>
  <anchor x="449.2261904761905" y="571.547619047619" name="topright"/>
  <anchor x="273.49920634920636" y="0.0" name="vedic"/>
  <outline>
    <contour>
      <point x="468.87698412698415" y="-28.380952380952383" type="line"/>
      <point x="478.97222222222223" y="-25.833333333333336" type="line"/>
      <point x="478.97222222222223" y="542.3333333333334" type="line"/>
      <point x="583.2698412698412" y="542.3333333333334" type="line"/>
      <point x="538.7023809523811" y="622.0" type="line"/>
      <point x="-35.72380952380952" y="622.0" type="line"/>
      <point x="7.9492063492063485" y="542.3333333333334" type="line"/>
      <point x="376.74841269841266" y="542.3333333333334" type="line"/>
      <point x="376.74841269841266" y="86.96428571428571" type="line"/>
      <point x="394.5515873015873" y="97.56507936507937" type="line"/>
      <point x="337.28412698412694" y="221.52301587301588"/>
      <point x="237.85396825396828" y="270.96269841269844"/>
      <point x="147.4452380952381" y="289.15158730158726" type="curve"/>
      <point x="168.63809523809522" y="251.7396825396825" type="line"/>
      <point x="212.83650793650796" y="284.9579365079365"/>
      <point x="286.3293650793651" y="320.70873015873013"/>
      <point x="357.18333333333334" y="352.2531746031746" type="curve"/>
      <point x="299.8674603174603" y="465.3571428571429" type="line"/>
      <point x="278.50396825396825" y="450.33571428571423"/>
      <point x="258.3007936507937" y="441.06904761904764"/>
      <point x="229.70634920634922" y="441.06904761904764" type="curve" smooth="yes"/>
      <point x="196.79523809523812" y="441.06904761904764"/>
      <point x="174.7293650793651" y="459.89365079365075"/>
      <point x="174.7293650793651" y="490.3769841269841" type="curve" smooth="yes"/>
      <point x="174.7293650793651" y="521.5690476190476"/>
      <point x="194.50396825396825" y="542.3333333333334"/>
      <point x="227.63492063492066" y="553.3333333333334" type="curve"/>
      <point x="81.82619047619048" y="600.0087301587303" type="line"/>
      <point x="51.56269841269842" y="582.3103174603175"/>
      <point x="24.496031746031747" y="551.2904761904762"/>
      <point x="24.496031746031747" y="503.80158730158723" type="curve" smooth="yes"/>
      <point x="24.496031746031747" y="423.6357142857143"/>
      <point x="97.63174603174602" y="393.57380952380953"/>
      <point x="162.01666666666665" y="390.09603174603177" type="curve"/>
      <point x="176.89761904761903" y="413.9007936507937" type="line"/>
      <point x="131.04761904761907" y="394.1015873015873"/>
      <point x="75.06904761904764" y="366.9690476190476"/>
      <point x="30.67142857142857" y="338.30079365079365" type="curve"/>
      <point x="96.70952380952379" y="187.23253968253968" type="line"/>
      <point x="214.84920634920636" y="175.0380952380952"/>
      <point x="329.96825396825403" y="116.66984126984124"/>
      <point x="394.43492063492056" y="14.744444444444442" type="curve"/>
    </contour>
  </outline>
</glyph>
<glyph name="nga-beng" format="2">
  <advance width="593.9682539682539"/>
  <unicode hex="0999"/>
  <anchor x="413.4896825396826" y="-5.194444444444445" name="bottom"/>
  <anchor x="535.9777777777778" y="-3.9857142857142835" name="bottom.rakaar"/>
  <anchor x="435.1380952380952" y="-30.85158730158731" name="bottom.rvocalic"/>
  <anchor x="401.3674603174603" y="0.0" name="bottom.virama"/>
  <anchor x="360.04047619047617" y="587.5619047619048" name="top"/>
  <anchor x="357.62698412698415" y="571.547619047619" name="topright"/>
  <anchor x="296.48412698412693" y="0.0" name="vedic"/>
  <outline>
    <contour>
      <point x="357.17380952380955" y="-8.374603174603177" type="curve" smooth="yes"/>
      <point x="513.5412698412699" y="-8.374603174603177"/>
      <point x="578.2468253968253" y="107.48333333333332"/>
      <point x="578.2468253968253" y="252.4373015873016" type="curve" smooth="yes"/>
      <point x="578.2468253968253" y="343.9293650793651"/>
      <point x="532.3579365079364" y="416.8880952380953"/>
      <point x="496.0293650793651" y="456.25555555555553" type="curve"/>
      <point x="442.93888888888887" y="372.95"/>
      <point x="374.2944444444445" y="326.5420634920635"/>
      <point x="330.2261904761905" y="326.5420634920635" type="curve" smooth="yes"/>
      <point x="312.26587301587307" y="326.5420634920635"/>
      <point x="299.884126984127" y="336.5420634920635"/>
      <point x="299.884126984127" y="358.6373015873016" type="curve" smooth="yes"/>
      <point x="299.884126984127" y="466.381746031746" type="line" smooth="yes"/>
      <point x="299.884126984127" y="522.0515873015873"/>
      <point x="316.2968253968254" y="556.4484126984127"/>
      <point x="352.3888888888889" y="556.4484126984127" type="curve" smooth="yes"/>
      <point x="376.7126984126984" y="556.4484126984127"/>
      <point x="389.1103174603175" y="541.4976190476191"/>
      <point x="389.1103174603175" y="519.3873015873015" type="curve" smooth="yes"/>
      <point x="389.1103174603175" y="492.10079365079366"/>
      <point x="371.1007936507937" y="468.1761904761904"/>
      <point x="324.7507936507937" y="468.1761904761904" type="curve" smooth="yes"/>
      <point x="236.29047619047617" y="468.1761904761904"/>
      <point x="195.78650793650795" y="517.2968253968254"/>
      <point x="147.32857142857142" y="626.4769841269841" type="curve"/>
      <point x="94.1936507936508" y="604.547619047619" type="line"/>
      <point x="146.13888888888889" y="480.8198412698412"/>
      <point x="205.04444444444448" y="389.9007936507936"/>
      <point x="330.10714285714283" y="389.9007936507936" type="curve" smooth="yes"/>
      <point x="422.0547619047619" y="389.9007936507936"/>
      <point x="471.0388888888889" y="450.35952380952386"/>
      <point x="471.03888888888883" y="514.8095238095237" type="curve" smooth="yes"/>
      <point x="471.0388888888889" y="582.452380952381"/>
      <point x="432.5706349206349" y="635.0952380952381"/>
      <point x="347.00714285714287" y="635.0952380952381" type="curve" smooth="yes"/>
      <point x="259.96587301587306" y="635.0952380952381"/>
      <point x="202.68968253968256" y="568.8095238095239"/>
      <point x="202.68968253968256" y="466.7246031746032" type="curve" smooth="yes"/>
      <point x="202.68968253968256" y="339.3619047619048" type="line" smooth="yes"/>
      <point x="202.68968253968256" y="289.34761904761905"/>
      <point x="224.0261904761905" y="256.15714285714284"/>
      <point x="246.34285714285713" y="235.10714285714283" type="curve" smooth="yes"/>
      <point x="273.1468253968254" y="209.75079365079364"/>
      <point x="305.2571428571428" y="199.28333333333333"/>
      <point x="343.2825396825397" y="199.28333333333333" type="curve" smooth="yes"/>
      <point x="412.16269841269843" y="199.28333333333333"/>
      <point x="496.7261904761905" y="254.0468253968254"/>
      <point x="527.8238095238095" y="315.21269841269833" type="curve"/>
      <point x="475.4928571428572" y="348.8984126984127" type="line"/>
      <point x="492.8603174603175" y="322.5166666666667"/>
      <point x="506.50873015873015" y="290.27539682539685"/>
      <point x="506.50873015873015" y="260.32539682539675" type="curve" smooth="yes"/>
      <point x="506.50873015873015" y="182.97142857142856"/>
      <point x="452.4531746031746" y="131.35714285714283"/>
      <point x="348.80634920634924" y="131.35714285714283" type="curve" smooth="yes"/>
      <point x="204.45238095238093" y="131.35714285714283"/>
      <point x="133.51349206349207" y="230.52777777777777"/>
      <point x="68.63095238095238" y="494.5476190476191" type="curve"/>
      <point x="7.15952380952381" y="478.784126984127" type="line"/>
      <point x="68.04206349206349" y="155.8452380952381"/>
      <point x="166.64999999999998" y="-8.374603174603177"/>
    </contour>
  </outline>
</glyph>
<glyph name="ca-beng" format="2">
  <advance width="514.2555555555556"/>
  <unicode hex="099A"/>
  <anchor x="348.06111111111113" y="-2.3095238095238138" name="bottom"/>
  <anchor x="428.3365079365079" y="0.0" name="bottom.rakaar"/>
  <anchor x="367.4079365079366" y="-15.850000000000005" name="bottom.rvocalic"/>
  <anchor x="289.76269841269846" y="23.166666666666664" name="bottom.virama"/>
  <anchor x="140.78492063492064" y="587.9285714285714" name="top"/>
  <anchor x="142.0714285714286" y="571.547619047619" name="topright"/>
  <anchor x="256.87142857142857" y="0.0" name="vedic"/>
  <outline>
    <contour>
      <point x="231.54365079365078" y="-3.8571428571428577" type="curve" smooth="yes"/>
      <point x="395.08253968253973" y="-3.8571428571428577"/>
      <point x="480.51269841269846" y="187.88095238095238"/>
      <point x="480.51269841269846" y="297.88095238095235" type="curve" smooth="yes"/>
      <point x="480.51269841269846" y="362.98015873015873"/>
      <point x="424.49365079365083" y="405.1801587301587"/>
      <point x="394.1880952380953" y="419.92857142857144" type="curve"/>
      <point x="312.663492063492" y="422.73809523809524"/>
      <point x="220.0198412698413" y="454.9746031746032"/>
      <point x="165.33015873015873" y="550.1666666666666" type="curve"/>
      <point x="163.26984126984127" y="465.9468253968254" type="line"/>
      <point x="198.03015873015875" y="371.7309523809524"/>
      <point x="278.2849206349207" y="298.831746031746"/>
      <point x="394.3579365079365" y="292.1880952380952" type="curve"/>
      <point x="341.7357142857142" y="344.07063492063486" type="line"/>
      <point x="333.5349206349206" y="198.95238095238093"/>
      <point x="262.7277777777778" y="108.2404761904762"/>
      <point x="211.29285714285712" y="108.2404761904762" type="curve" smooth="yes"/>
      <point x="186.80873015873016" y="108.2404761904762"/>
      <point x="170.96349206349205" y="122.04523809523808"/>
      <point x="170.96349206349205" y="148.57380952380953" type="curve" smooth="yes"/>
      <point x="170.96349206349205" y="542.3333333333334" type="line"/>
      <point x="549.979365079365" y="542.3333333333334" type="line"/>
      <point x="507.30634920634924" y="622.0" type="line"/>
      <point x="-35.72380952380952" y="622.0" type="line"/>
      <point x="9.94920634920635" y="542.3333333333334" type="line"/>
      <point x="69.02619047619048" y="542.3333333333334" type="line"/>
      <point x="69.02619047619048" y="145.57063492063492" type="line" smooth="yes"/>
      <point x="69.02619047619048" y="58.903174603174605"/>
      <point x="149.92063492063497" y="-3.8571428571428577"/>
    </contour>
  </outline>
</glyph>
<glyph name="cha-beng" format="2">
  <advance width="542.2468253968253"/>
  <unicode hex="099B"/>
  <anchor x="339.4484126984127" y="-12.341269841269852" name="bottom"/>
  <anchor x="464.47063492063495" y="-146.2150793650794" name="bottom.rakaar"/>
  <anchor x="424.8896825396825" y="-22.33412698412699" name="bottom.rvocalic"/>
  <anchor x="333.2111111111111" y="-12.59603174603175" name="bottom.virama"/>
  <anchor x="115.12222222222223" y="587.9285714285714" name="top"/>
  <anchor x="116.40873015873017" y="571.547619047619" name="topright"/>
  <anchor x="270.7063492063492" y="0.0" name="vedic"/>
  <outline>
    <contour>
      <point x="528.552380952381" y="-162.93095238095236" type="curve"/>
      <point x="568.5920634920635" y="-118.84603174603176" type="line"/>
      <point x="478.26190476190476" y="-17.17460317460318"/>
      <point x="344.1873015873016" y="75.81984126984128"/>
      <point x="223.74285714285716" y="102.18650793650794" type="curve"/>
      <point x="202.9888888888889" y="60.67857142857142" type="line"/>
      <point x="213.64126984126986" y="54.27777777777777"/>
      <point x="244.98412698412696" y="49.4031746031746"/>
      <point x="272.1396825396826" y="49.4031746031746" type="curve" smooth="yes"/>
      <point x="417.9976190476191" y="49.4031746031746"/>
      <point x="520.5261904761905" y="133.84285714285716"/>
      <point x="520.5261904761905" y="274.23650793650796" type="curve" smooth="yes"/>
      <point x="520.5261904761905" y="419.2611111111112"/>
      <point x="414.1753968253968" y="488.1912698412698"/>
      <point x="292.0595238095238" y="488.1912698412698" type="curve" smooth="yes"/>
      <point x="228.51825396825396" y="488.1912698412698"/>
      <point x="165.28809523809522" y="504.35714285714283"/>
      <point x="138.15079365079367" y="543.8809523809524" type="curve"/>
      <point x="133.80396825396826" y="493.69047619047615" type="line"/>
      <point x="163.35238095238094" y="433.14285714285717"/>
      <point x="218.78015873015875" y="407.1166666666667"/>
      <point x="265.4071428571429" y="398.63968253968255" type="curve"/>
      <point x="235.97857142857143" y="446.1666666666667" type="line"/>
      <point x="233.8642857142857" y="366.0"/>
      <point x="205.52619047619046" y="303.19126984126984"/>
      <point x="170.08730158730157" y="303.19126984126984" type="curve" smooth="yes"/>
      <point x="155.31746031746033" y="303.19126984126984"/>
      <point x="144.33174603174604" y="312.9555555555556"/>
      <point x="144.33174603174604" y="329.1119047619048" type="curve" smooth="yes"/>
      <point x="144.33174603174604" y="542.3333333333334" type="line"/>
      <point x="577.9706349206349" y="542.3333333333334" type="line"/>
      <point x="532.0365079365079" y="622.0" type="line"/>
      <point x="-35.72380952380952" y="622.0" type="line"/>
      <point x="7.9492063492063485" y="542.3333333333334" type="line"/>
      <point x="43.69523809523809" y="542.3333333333334" type="line"/>
      <point x="43.69523809523809" y="329.81111111111113" type="line" smooth="yes"/>
      <point x="43.69523809523809" y="266.2388888888889"/>
      <point x="114.04206349206349" y="208.14285714285714"/>
      <point x="191.231746031746" y="208.14285714285714" type="curve" smooth="yes"/>
      <point x="288.7944444444444" y="208.14285714285714"/>
      <point x="353.67619047619047" y="277.6896825396826"/>
      <point x="368.19444444444446" y="435.2380952380952" type="curve"/>
      <point x="321.12857142857143" y="409.5047619047619" type="line"/>
      <point x="371.91904761904766" y="409.50476190476195"/>
      <point x="416.83571428571435" y="383.26428571428573"/>
      <point x="416.83571428571435" y="309.24365079365083" type="curve" smooth="yes"/>
      <point x="416.83571428571435" y="208.2730158730159"/>
      <point x="326.6968253968254" y="167.7095238095238"/>
      <point x="229.9595238095238" y="167.7095238095238" type="curve" smooth="yes"/>
      <point x="173.94047619047618" y="167.7095238095238"/>
      <point x="117.22936507936508" y="177.9246031746032"/>
      <point x="72.3642857142857" y="205.4968253968254" type="curve"/>
      <point x="107.95714285714286" y="33.061904761904756" type="line"/>
      <point x="236.7015873015873" y="7.7611111111111"/>
      <point x="373.2817460317461" y="-30.82619047619049"/>
    </contour>
  </outline>
</glyph>
<glyph name="ja-beng" format="2">
  <advance width="797.9753968253968"/>
  <unicode hex="099C"/>
  <anchor x="719.0063492063492" y="34.42857142857143" name="bottom"/>
  <anchor x="730.5793650793652" y="48.71825396825396" name="bottom.rakaar"/>
  <anchor x="731.2071428571429" y="-46.52380952380953" name="bottom.rvocalic"/>
  <anchor x="715.4531746031747" y="-41.5920634920635" name="bottom.virama"/>
  <anchor x="434.7365079365079" y="587.5619047619048" name="top"/>
  <anchor x="435.73650793650796" y="571.547619047619" name="topright"/>
  <anchor x="398.904761904762" y="0.0" name="vedic"/>
  <outline>
    <contour>
      <point x="350.5936507936508" y="-35.96507936507937" type="curve" smooth="yes"/>
      <point x="495.35396825396816" y="-35.96507936507937"/>
      <point x="556.8325396825397" y="62.335714285714275"/>
      <point x="556.8325396825397" y="197.7674603174603" type="curve" smooth="yes"/>
      <point x="556.8325396825397" y="298.6896825396826"/>
      <point x="505.4976190476191" y="374.90476190476187"/>
      <point x="464.32936507936506" y="414.3928571428572" type="curve"/>
      <point x="411.71666666666675" y="351.98571428571427"/>
      <point x="369.9968253968254" y="319.3420634920635"/>
      <point x="335.60238095238094" y="319.3420634920635" type="curve" smooth="yes"/>
      <point x="308.09285714285716" y="319.3420634920635"/>
      <point x="287.6746031746032" y="335.69920634920635"/>
      <point x="287.6746031746032" y="365.3277777777777" type="curve" smooth="yes"/>
      <point x="287.6746031746032" y="421.4087301587301"/>
      <point x="384.73095238095243" y="497.10158730158736"/>
      <point x="489.0404761904762" y="542.3333333333334" type="curve"/>
      <point x="833.6992063492063" y="542.3333333333334" type="line"/>
      <point x="790.5134920634922" y="622.0" type="line"/>
      <point x="-35.72380952380952" y="622.0" type="line"/>
      <point x="8.296031746031746" y="542.3333333333334" type="line"/>
      <point x="348.2166666666667" y="542.3333333333334" type="line"/>
      <point x="315.58492063492065" y="580.452380952381" type="line"/>
      <point x="271.45000000000005" y="555.747619047619"/>
      <point x="180.45079365079363" y="477.80873015873016"/>
      <point x="180.45079365079363" y="373.71031746031747" type="curve" smooth="yes"/>
      <point x="180.45079365079363" y="265.3746031746032"/>
      <point x="260.6015873015873" y="189.94285714285712"/>
      <point x="345.60793650793653" y="189.94285714285712" type="curve" smooth="yes"/>
      <point x="405.2277777777778" y="189.94285714285712"/>
      <point x="467.334126984127" y="226.80714285714288"/>
      <point x="514.0277777777777" y="295.0531746031746" type="curve"/>
      <point x="458.55158730158735" y="310.98015873015873" type="line"/>
      <point x="476.8936507936508" y="286.0507936507937"/>
      <point x="491.23571428571427" y="257.7698412698413"/>
      <point x="491.23571428571427" y="222.27142857142857" type="curve" smooth="yes"/>
      <point x="491.23571428571427" y="153.134126984127"/>
      <point x="433.4349206349206" y="109.80238095238093"/>
      <point x="352.1674603174603" y="109.80238095238093" type="curve" smooth="yes"/>
      <point x="206.32936507936512" y="109.80238095238093"/>
      <point x="123.51904761904763" y="229.32698412698412"/>
      <point x="73.6563492063492" y="479.6492063492064" type="curve"/>
      <point x="12.678571428571427" y="465.8198412698413" type="line"/>
      <point x="61.62619047619046" y="128.95634920634922"/>
      <point x="161.91825396825396" y="-35.96507936507937"/>
    </contour>
    <contour>
      <point x="675.5793650793651" y="-83.67539682539683" type="curve"/>
      <point x="731.2071428571429" y="-62.71111111111112" type="line"/>
      <point x="705.8849206349207" y="15.197619047619046"/>
      <point x="700.7793650793651" y="67.81825396825397"/>
      <point x="700.7793650793651" y="133.03968253968253" type="curve" smooth="yes"/>
      <point x="700.7793650793651" y="215.4468253968254"/>
      <point x="730.0650793650794" y="303.23095238095243"/>
      <point x="783.4682539682539" y="373.6293650793651" type="curve"/>
      <point x="710.8063492063492" y="470.64285714285717" type="line"/>
      <point x="590.7587301587303" y="456.08095238095234"/>
      <point x="514.0071428571429" y="500.8746031746032"/>
      <point x="480.6031746031746" y="582.7904761904762" type="curve"/>
      <point x="429.47380952380956" y="543.7246031746032" type="line"/>
      <point x="471.5777777777778" y="407.17301587301586"/>
      <point x="580.4571428571429" y="349.5349206349207"/>
      <point x="676.4039682539682" y="332.5285714285714" type="curve"/>
      <point x="651.8515873015872" y="398.4555555555555" type="line"/>
      <point x="621.2484126984126" y="324.5103174603175"/>
      <point x="609.1277777777776" y="259.97222222222223"/>
      <point x="609.1277777777776" y="183.50714285714287" type="curve" smooth="yes"/>
      <point x="609.1277777777776" y="73.38650793650794"/>
      <point x="638.2619047619049" y="-8.05"/>
    </contour>
  </outline>
</glyph>
<glyph name="jha-beng" format="2">
  <advance width="693.6801587301587"/>
  <unicode hex="099D"/>
  <anchor x="445.77539682539685" y="35.642857142857146" name="bottom"/>
  <anchor x="452.50476190476195" y="93.1388888888889" name="bottom.rakaar"/>
  <anchor x="453.00238095238103" y="8.553174603174604" name="bottom.rvocalic"/>
  <anchor x="437.0388888888889" y="20.288888888888888" name="bottom.virama"/>
  <anchor x="409.58968253968254" y="587.9285714285714" name="top"/>
  <anchor x="468.9642857142857" y="587.9285714285714" name="topleft"/>
  <anchor x="410.58968253968254" y="571.547619047619" name="topright"/>
  <anchor x="346.75714285714287" y="0.0" name="vedic"/>
  <outline>
    <contour>
      <point x="442.56031746031744" y="-28.380952380952383" type="line"/>
      <point x="453.00238095238103" y="-25.833333333333336" type="line"/>
      <point x="453.00238095238103" y="622.0" type="line"/>
      <point x="-35.72380952380952" y="622.0" type="line"/>
      <point x="7.9492063492063485" y="542.3333333333334" type="line"/>
      <point x="350.7785714285714" y="542.3333333333334" type="line"/>
      <point x="350.7785714285714" y="456.5452380952381" type="line"/>
      <point x="362.4214285714285" y="515.6436507936509" type="line"/>
      <point x="235.36825396825395" y="481.4428571428572"/>
      <point x="104.50079365079363" y="419.87142857142857"/>
      <point x="3.203968253968252" y="351.3769841269841" type="curve"/>
      <point x="67.51269841269841" y="190.81746031746033" type="line"/>
      <point x="191.53333333333333" y="174.41587301587302"/>
      <point x="301.75158730158734" y="117.64999999999999"/>
      <point x="368.46507936507936" y="15.37777777777778" type="curve"/>
    </contour>
    <contour>
      <point x="350.7785714285714" y="91.17142857142856" type="line"/>
      <point x="368.58174603174604" y="105.34603174603174" type="line"/>
      <point x="319.04999999999995" y="213.19920634920635"/>
      <point x="228.06428571428572" y="267.32460317460317"/>
      <point x="157.5" y="288.815873015873" type="curve"/>
      <point x="162.59126984126985" y="266.7404761904762" type="line"/>
      <point x="223.4595238095238" y="308.897619047619"/>
      <point x="305.3166666666667" y="345.7936507936508"/>
      <point x="369.29047619047617" y="365.6134920634921" type="curve"/>
      <point x="350.7785714285714" y="409.5801587301587" type="line"/>
    </contour>
    <contour>
      <point x="615.297619047619" y="47.12777777777778" type="line"/>
      <point x="625.1063492063493" y="49.675396825396824" type="line"/>
      <point x="625.1063492063493" y="542.3333333333334" type="line"/>
      <point x="729.4039682539682" y="542.3333333333334" type="line"/>
      <point x="685.1833333333334" y="622.0" type="line"/>
      <point x="614.8357142857142" y="622.0" type="line"/>
      <point x="605.7404761904762" y="681.9285714285714" type="line"/>
      <point x="532.1126984126986" y="719.0238095238096" type="line"/>
      <point x="524.0174603174603" y="715.4761904761905" type="line"/>
      <point x="524.0174603174603" y="166.49920634920633" type="line"/>
      <point x="541.8206349206348" y="177.28095238095239" type="line"/>
      <point x="509.2857142857142" y="259.77301587301594"/>
      <point x="467.6777777777778" y="301.18888888888887"/>
      <point x="412.6301587301587" y="334.40555555555557" type="curve"/>
      <point x="401.565873015873" y="225.8611111111111" type="line"/>
      <point x="462.3626984126984" y="195.66428571428574"/>
      <point x="505.81428571428575" y="156.3825396825397"/>
      <point x="541.4174603174603" y="90.88650793650793" type="curve"/>
    </contour>
  </outline>
</glyph>
<glyph name="nya-beng" format="2">
  <advance width="918.6928571428572"/>
  <unicode hex="099E"/>
  <anchor x="580.0642857142858" y="28.452380952380953" name="bottom"/>
  <anchor x="608.3873015873015" y="86.92857142857143" name="bottom.rakaar"/>
  <anchor x="586.9444444444446" y="2.0563492063492057" name="bottom.rvocalic"/>
  <anchor x="567.4071428571428" y="10.095238095238095" name="bottom.virama"/>
  <anchor x="483.57539682539687" y="587.5619047619048" name="top"/>
  <anchor x="484.49523809523816" y="571.547619047619" name="topright"/>
  <anchor x="459.24603174603175" y="0.0" name="vedic"/>
  <outline>
    <contour>
      <point x="735.2896825396825" y="24.932539682539684" type="curve" smooth="yes"/>
      <point x="829.1396825396826" y="24.932539682539684"/>
      <point x="875.0753968253969" y="95.68095238095238"/>
      <point x="875.0753968253969" y="178.9325396825397" type="curve" smooth="yes"/>
      <point x="875.0753968253969" y="236.4753968253968"/>
      <point x="852.7531746031746" y="296.29365079365084"/>
      <point x="801.6126984126985" y="337.0420634920635" type="curve"/>
      <point x="821.8984126984126" y="287.30396825396826" type="line"/>
      <point x="849.6984126984125" y="316.3896825396826"/>
      <point x="873.9896825396826" y="368.6412698412699"/>
      <point x="873.9896825396826" y="437.58968253968254" type="curve" smooth="yes"/>
      <point x="873.9896825396826" y="531.1619047619047"/>
      <point x="824.6777777777778" y="605.1515873015873"/>
      <point x="742.9230158730159" y="605.1515873015873" type="curve" smooth="yes"/>
      <point x="624.6103174603174" y="605.1515873015873"/>
      <point x="559.4317460317461" y="457.8753968253968"/>
      <point x="550.9642857142858" y="370.0420634920635" type="curve"/>
      <point x="550.9642857142858" y="262.94682539682543" type="line"/>
      <point x="568.6126984126985" y="134.76666666666665"/>
      <point x="633.0777777777777" y="24.932539682539684"/>
    </contour>
    <contour>
      <point x="725.3857142857142" y="147.41269841269843" type="curve" smooth="yes"/>
      <point x="655.9912698412699" y="147.41269841269843"/>
      <point x="591.1500000000001" y="218.0515873015873"/>
      <point x="591.1500000000001" y="311.3285714285714" type="curve" smooth="yes"/>
      <point x="591.1500000000001" y="398.42380952380955"/>
      <point x="651.6793650793652" y="494.0277777777778"/>
      <point x="734.8277777777778" y="494.0277777777778" type="curve" smooth="yes"/>
      <point x="764.3174603174602" y="494.0277777777778"/>
      <point x="785.5095238095238" y="478.04285714285714"/>
      <point x="785.5095238095238" y="445.3992063492064" type="curve" smooth="yes"/>
      <point x="785.5095238095238" y="413.04126984126987"/>
      <point x="753.2126984126984" y="379.3277777777778"/>
      <point x="718.3722222222221" y="363.8753968253968" type="curve"/>
      <point x="776.9801587301587" y="355.7698412698413" type="line"/>
      <point x="758.2460317460318" y="376.6849206349206"/>
      <point x="737.0539682539682" y="395.4230158730159"/>
      <point x="702.2150793650794" y="395.4230158730159" type="curve" smooth="yes"/>
      <point x="657.1896825396825" y="395.4230158730159"/>
      <point x="628.2746031746033" y="361.86587301587304"/>
      <point x="628.2746031746033" y="312.49444444444447" type="curve" smooth="yes"/>
      <point x="628.2746031746033" y="259.95714285714297"/>
      <point x="661.7373015873017" y="228.48015873015873"/>
      <point x="707.2150793650794" y="228.48015873015873" type="curve" smooth="yes"/>
      <point x="747.3460317460317" y="228.48015873015873"/>
      <point x="777.5222222222222" y="245.48015873015876"/>
      <point x="803.8992063492063" y="275.31428571428575" type="curve"/>
      <point x="754.2365079365079" y="304.0420634920635" type="line"/>
      <point x="772.342857142857" y="285.49444444444447"/>
      <point x="798.865873015873" y="261.318253968254"/>
      <point x="798.865873015873" y="220.68492063492062" type="curve" smooth="yes"/>
      <point x="798.865873015873" y="172.87539682539682"/>
      <point x="770.8650793650794" y="147.41269841269843"/>
    </contour>
    <component base="e-beng"/>
  </outline>
</glyph>
<glyph name="tta-beng" format="2">
  <advance width="530.6396825396826"/>
  <unicode hex="099F"/>
  <anchor x="350.6849206349206" y="-2.3095238095238138" name="bottom"/>
  <anchor x="429.0" y="0.5730158730158725" name="bottom.rakaar"/>
  <anchor x="357.9833333333333" y="1.1444444444444444" name="bottom.rvocalic"/>
  <anchor x="290.42619047619047" y="23.739682539682534" name="bottom.virama"/>
  <anchor x="277.1468253968254" y="676.4007936507937" name="top"/>
  <anchor x="199.30793650793652" y="634.1412698412697" name="topright"/>
  <anchor x="265.0460317460317" y="0.0" name="vedic"/>
  <anchor x="233.7547619047619" y="-111.5" name="nukta"/>
  <outline>
    <contour>
      <point x="392.1634920634921" y="592.5238095238095" type="curve"/>
      <point x="456.334126984127" y="592.5238095238095" type="line"/>
      <point x="452.27936507936505" y="743.0119047619047"/>
      <point x="396.41031746031746" y="823.2563492063493"/>
      <point x="297.2888888888889" y="823.2563492063493" type="curve" smooth="yes"/>
      <point x="241.7150793650794" y="823.2563492063493"/>
      <point x="208.97222222222223" y="813.688888888889"/>
      <point x="155.6198412698413" y="813.688888888889" type="curve" smooth="yes"/>
      <point x="87.3984126984127" y="813.688888888889"/>
      <point x="57.5984126984127" y="838.5873015873016"/>
      <point x="57.5984126984127" y="892.8888888888888" type="curve" smooth="yes"/>
      <point x="57.5984126984127" y="905.4015873015874"/>
      <point x="58.5984126984127" y="920.4619047619047"/>
      <point x="60.59841269841271" y="932.7428571428571" type="curve"/>
      <point x="7.397619047619046" y="939.0039682539682" type="line"/>
      <point x="1.8500000000000005" y="914.7682539682539"/>
      <point x="-1.330952380952382" y="885.5777777777779"/>
      <point x="-1.330952380952382" y="859.2063492063492" type="curve" smooth="yes"/>
      <point x="-1.330952380952382" y="758.6238095238095"/>
      <point x="53.46349206349207" y="688.1619047619048"/>
      <point x="166.63015873015874" y="688.1619047619048" type="curve" smooth="yes"/>
      <point x="228.4547619047619" y="688.1619047619048"/>
      <point x="268.4349206349207" y="699.342857142857"/>
      <point x="310.6420634920635" y="699.342857142857" type="curve" smooth="yes"/>
      <point x="359.7984126984128" y="699.342857142857"/>
      <point x="390.64206349206347" y="678.9150793650794"/>
    </contour>
    <component base="ddha-beng"/>
  </outline>
</glyph>
<glyph name="ttha-beng" format="2">
  <advance width="537.2595238095238"/>
  <unicode hex="09A0"/>
  <anchor x="334.85793650793653" y="-40.50000000000001" name="bottom"/>
  <anchor x="482.24682539682533" y="-26.26190476190476" name="bottom.rakaar"/>
  <anchor x="387.4333333333334" y="-46.142857142857146" name="bottom.rvocalic"/>
  <anchor x="312.6611111111111" y="-16.380952380952383" name="bottom.virama"/>
  <anchor x="448.09523809523813" y="567.7880952380953" name="top"/>
  <anchor x="428.265873015873" y="605.0793650793651" name="topleft"/>
  <anchor x="336.18253968253964" y="571.547619047619" name="topright"/>
  <anchor x="268.5293650793651" y="0.0" name="vedic"/>
  <outline>
    <contour>
      <point x="282.50317460317467" y="-42.69047619047619" type="curve" smooth="yes"/>
      <point x="413.7261904761904" y="-42.69047619047619"/>
      <point x="498.19444444444446" y="38.24444444444443"/>
      <point x="498.19444444444446" y="187.2111111111111" type="curve" smooth="yes"/>
      <point x="498.19444444444446" y="328.6309523809524"/>
      <point x="402.13888888888886" y="442.90158730158726"/>
      <point x="309.24285714285713" y="542.3333333333334" type="curve"/>
      <point x="572.9833333333333" y="542.3333333333334" type="line"/>
      <point x="528.7626984126983" y="622.0" type="line"/>
      <point x="243.0611111111111" y="622.0" type="line"/>
      <point x="206.67857142857142" y="657.452380952381"/>
      <point x="190.96349206349208" y="687.7539682539682"/>
      <point x="190.96349206349208" y="719.0158730158731" type="curve" smooth="yes"/>
      <point x="190.96349206349208" y="756.9960317460317"/>
      <point x="221.83333333333334" y="795.7142857142858"/>
      <point x="267.181746031746" y="818.5238095238095" type="curve"/>
      <point x="169.4753968253968" y="896.9047619047619" type="line"/>
      <point x="107.19761904761903" y="863.0952380952381"/>
      <point x="70.09682539682541" y="810.8095238095239"/>
      <point x="70.09682539682541" y="761.6190476190476" type="curve" smooth="yes"/>
      <point x="70.09682539682541" y="700.4531746031745"/>
      <point x="108.01746031746032" y="664.452380952381"/>
      <point x="155.01746031746032" y="622.0" type="curve"/>
      <point x="-35.72380952380952" y="622.0" type="line"/>
      <point x="7.9492063492063485" y="542.3333333333334" type="line"/>
      <point x="202.9904761904762" y="542.3333333333334" type="line"/>
      <point x="211.915873015873" y="519.6849206349207"/>
      <point x="217.43412698412695" y="492.65793650793654"/>
      <point x="217.43412698412695" y="457.54761904761904" type="curve" smooth="yes"/>
      <point x="217.43412698412695" y="348.4126984126984"/>
      <point x="140.03888888888892" y="270.197619047619"/>
      <point x="16.305555555555557" y="245.47380952380954" type="curve"/>
      <point x="26.714285714285708" y="81.35634920634921"/>
      <point x="117.86666666666665" y="-42.69047619047619"/>
    </contour>
    <contour>
      <point x="254.2531746031746" y="60.0563492063492" type="curve" smooth="yes"/>
      <point x="193.08015873015873" y="60.0563492063492"/>
      <point x="154.66507936507935" y="113.28888888888889"/>
      <point x="154.1325396825397" y="168.74285714285713" type="curve"/>
      <point x="139.07142857142858" y="134.9484126984127" type="line"/>
      <point x="245.91031746031746" y="166.74761904761905"/>
      <point x="304.67539682539683" y="241.12936507936507"/>
      <point x="304.67539682539683" y="356.39047619047614" type="curve" smooth="yes"/>
      <point x="304.67539682539683" y="423.6111111111111"/>
      <point x="283.3968253968254" y="487.5"/>
      <point x="243.76904761904763" y="546.047619047619" type="curve"/>
      <point x="230.55317460317457" y="545.5" type="line"/>
      <point x="323.168253968254" y="440.2063492063492"/>
      <point x="365.2007936507936" y="344.03253968253966"/>
      <point x="365.2007936507936" y="222.09126984126985" type="curve" smooth="yes"/>
      <point x="365.2007936507936" y="114.59444444444443"/>
      <point x="321.6730158730159" y="60.0563492063492"/>
    </contour>
  </outline>
</glyph>
<glyph name="dda-beng" format="2">
  <advance width="604.0936507936508"/>
  <unicode hex="09A1"/>
  <anchor x="439.6849206349206" y="-14.690476190476197" name="bottom"/>
  <anchor x="537.4349206349207" y="-10.095238095238095" name="bottom.rakaar"/>
  <anchor x="445.49920634920636" y="-14.523809523809533" name="bottom.rvocalic"/>
  <anchor x="402.6238095238095" y="-6.476190476190478" name="bottom.virama"/>
  <anchor x="325.23730158730154" y="-126.61904761904762" name="nukta"/>
  <anchor x="284.78571428571433" y="587.9285714285714" name="top"/>
  <anchor x="285.58492063492065" y="571.547619047619" name="topright"/>
  <anchor x="302.0468253968254" y="0.0" name="vedic"/>
  <outline>
    <contour>
      <point x="352.6015873015873" y="-12.523809523809529" type="curve" smooth="yes"/>
      <point x="508.4174603174603" y="-12.523809523809529"/>
      <point x="585.2119047619049" y="90.26031746031745"/>
      <point x="585.2119047619049" y="237.56031746031744" type="curve" smooth="yes"/>
      <point x="585.2119047619049" y="347.7603174603174"/>
      <point x="540.6285714285713" y="428.2730158730158"/>
      <point x="484.14523809523814" y="480.3230158730159" type="curve"/>
      <point x="431.21507936507936" y="399.79285714285714"/>
      <point x="380.7301587301587" y="359.9126984126984"/>
      <point x="346.77936507936505" y="359.9126984126984" type="curve" smooth="yes"/>
      <point x="330.87380952380954" y="359.9126984126984"/>
      <point x="314.7634920634921" y="366.5309523809524"/>
      <point x="314.7634920634921" y="391.0079365079365" type="curve" smooth="yes"/>
      <point x="314.7634920634921" y="542.3333333333334" type="line"/>
      <point x="639.8174603174602" y="542.3333333333334" type="line"/>
      <point x="594.4309523809524" y="622.0" type="line"/>
      <point x="-35.72380952380952" y="622.0" type="line"/>
      <point x="9.496825396825399" y="542.3333333333334" type="line"/>
      <point x="212.53968253968253" y="542.3333333333334" type="line"/>
      <point x="212.53968253968253" y="373.51746031746035" type="line" smooth="yes"/>
      <point x="212.53968253968253" y="322.4079365079365"/>
      <point x="228.3293650793651" y="289.7761904761905"/>
      <point x="255.4396825396826" y="262.73174603174607" type="curve" smooth="yes"/>
      <point x="282.8111111111111" y="235.42619047619047"/>
      <point x="315.8015873015873" y="220.23015873015876"/>
      <point x="359.1373015873016" y="220.23015873015876" type="curve" smooth="yes"/>
      <point x="419.9412698412699" y="220.23015873015876"/>
      <point x="492.70714285714286" y="269.39126984126983"/>
      <point x="536.4484126984125" y="344.78253968253966" type="curve"/>
      <point x="474.79365079365084" y="338.76825396825393" type="line"/>
      <point x="495.53333333333336" y="318.38650793650794"/>
      <point x="509.92619047619047" y="289.67301587301586"/>
      <point x="509.92619047619047" y="256.6920634920635" type="curve" smooth="yes"/>
      <point x="509.92619047619047" y="183.63730158730158"/>
      <point x="452.16190476190474" y="130.06190476190477"/>
      <point x="352.38968253968255" y="130.06190476190477" type="curve" smooth="yes"/>
      <point x="186.3761904761905" y="130.06190476190477"/>
      <point x="116.5404761904762" y="258.37777777777774"/>
      <point x="76.15634920634922" y="478.18174603174606" type="curve"/>
      <point x="12.31825396825397" y="465.61904761904765" type="line"/>
      <point x="53.06904761904762" y="155.66666666666669"/>
      <point x="151.30952380952382" y="-12.523809523809529"/>
    </contour>
  </outline>
</glyph>
<glyph name="ddha-beng" format="2">
  <advance width="530.6396825396826"/>
  <unicode hex="09A2"/>
  <anchor x="352.6452380952381" y="-2.3095238095238138" name="bottom"/>
  <anchor x="429.0" y="0.5730158730158725" name="bottom.rakaar"/>
  <anchor x="357.9833333333333" y="0.8579365079365042" name="bottom.rvocalic"/>
  <anchor x="290.42619047619047" y="23.739682539682534" name="bottom.virama"/>
  <anchor x="233.7547619047619" y="-111.5" name="nukta"/>
  <anchor x="141.44841269841268" y="587.9285714285714" name="top"/>
  <anchor x="142.73492063492066" y="571.547619047619" name="topright"/>
  <anchor x="265.0460317460317" y="0.0" name="vedic"/>
  <outline>
    <contour>
      <point x="231.7095238095238" y="-3.2841269841269876" type="curve" smooth="yes"/>
      <point x="383.8261904761905" y="-3.2841269841269876"/>
      <point x="496.1150793650794" y="163.85714285714283"/>
      <point x="496.1150793650794" y="312.5238095238095" type="curve" smooth="yes"/>
      <point x="496.1150793650794" y="415.64365079365075"/>
      <point x="437.06031746031744" y="461.6428571428571"/>
      <point x="371.47222222222223" y="461.6428571428571" type="curve" smooth="yes"/>
      <point x="303.0650793650794" y="461.6428571428571"/>
      <point x="258.784126984127" y="414.75317460317456"/>
      <point x="258.784126984127" y="354.8706349206349" type="curve" smooth="yes"/>
      <point x="258.784126984127" y="295.2634920634921"/>
      <point x="293.9603174603175" y="252.92698412698414"/>
      <point x="354.61349206349206" y="252.92698412698414" type="curve" smooth="yes"/>
      <point x="376.37857142857143" y="252.92698412698414"/>
      <point x="399.34285714285716" y="265.92698412698405"/>
      <point x="418.1666666666667" y="289.1174603174603" type="curve"/>
      <point x="356.72460317460315" y="326.5238095238095" type="line"/>
      <point x="350.3888888888889" y="191.69603174603176"/>
      <point x="264.9103174603174" y="109.16031746031746"/>
      <point x="210.02619047619046" y="109.16031746031746" type="curve" smooth="yes"/>
      <point x="187.62301587301587" y="109.16031746031746"/>
      <point x="170.96349206349205" y="123.07063492063492"/>
      <point x="170.96349206349205" y="149.59920634920636" type="curve" smooth="yes"/>
      <point x="170.96349206349205" y="542.3333333333334" type="line"/>
      <point x="566.3634920634921" y="542.3333333333334" type="line"/>
      <point x="524.0571428571428" y="622.0" type="line"/>
      <point x="-35.72380952380952" y="622.0" type="line"/>
      <point x="9.94920634920635" y="542.3333333333334" type="line"/>
      <point x="69.02619047619048" y="542.3333333333334" type="line"/>
      <point x="69.02619047619048" y="146.94285714285715" type="line" smooth="yes"/>
      <point x="69.02619047619048" y="58.84285714285713"/>
      <point x="150.08650793650796" y="-3.2841269841269876"/>
    </contour>
  </outline>
</glyph>
<glyph name="nna-beng" format="2">
  <advance width="609.8507936507937"/>
  <unicode hex="09A3"/>
  <anchor x="522.7428571428571" y="65.67460317460318" name="bottom"/>
  <anchor x="540.8246031746032" y="-19.92857142857143" name="bottom.rakaar"/>
  <anchor x="540.8246031746032" y="-3.0" name="bottom.rvocalic"/>
  <anchor x="501.03888888888883" y="9.095238095238095" name="bottom.virama"/>
  <anchor x="504.84841269841263" y="577.9285714285714" name="top"/>
  <anchor x="492.13888888888886" y="568.3809523809524" name="topright"/>
  <anchor x="304.69920634920635" y="0.0" name="vedic"/>
  <outline>
    <contour>
      <point x="531.181746031746" y="-39.38095238095238" type="line"/>
      <point x="540.8246031746032" y="-36.833333333333336" type="line"/>
      <point x="540.8246031746032" y="542.3333333333334" type="line"/>
      <point x="645.5746031746031" y="542.3333333333334" type="line"/>
      <point x="600.9015873015873" y="622.0" type="line"/>
      <point x="530.5539682539683" y="622.0" type="line"/>
      <point x="521.7452380952382" y="681.9285714285714" type="line"/>
      <point x="448.2833333333333" y="719.0238095238096" type="line"/>
      <point x="440.18809523809523" y="715.4761904761905" type="line"/>
      <point x="440.18809523809523" y="592.6063492063493" type="line" smooth="yes"/>
      <point x="440.18809523809523" y="523.6753968253969"/>
      <point x="444.5698412698413" y="440.7801587301587"/>
      <point x="449.6960317460318" y="384.5119047619048" type="curve"/>
      <point x="459.6507936507936" y="391.4634920634921" type="line"/>
      <point x="397.684126984127" y="537.8722222222221"/>
      <point x="320.6587301587301" y="630.0952380952381"/>
      <point x="208.61904761904762" y="630.0952380952381" type="curve" smooth="yes"/>
      <point x="113.77380952380952" y="630.0952380952381"/>
      <point x="30.81428571428571" y="558.7936507936507"/>
      <point x="30.81428571428571" y="426.6849206349206" type="curve" smooth="yes"/>
      <point x="30.81428571428571" y="274.6158730158731"/>
      <point x="134.35555555555555" y="206.87301587301585"/>
      <point x="226.9246031746032" y="206.87301587301585" type="curve" smooth="yes"/>
      <point x="303.18095238095236" y="206.87301587301585"/>
      <point x="344.9396825396825" y="252.13888888888889"/>
      <point x="344.9396825396825" y="318.23333333333335" type="curve" smooth="yes"/>
      <point x="344.9396825396825" y="378.534126984127"/>
      <point x="307.8492063492064" y="426.3476190476191"/>
      <point x="245.0" y="426.3476190476191" type="curve" smooth="yes"/>
      <point x="193.20079365079368" y="426.3476190476191"/>
      <point x="157.19047619047618" y="388.8904761904762"/>
      <point x="157.19047619047618" y="335.6047619047619" type="curve" smooth="yes"/>
      <point x="157.19047619047618" y="313.8468253968254"/>
      <point x="161.7579365079365" y="293.51984126984127"/>
      <point x="170.72698412698412" y="281.7912698412698" type="curve"/>
      <point x="221.75" y="323.23809523809524" type="line"/>
      <point x="209.5888888888889" y="319.6706349206349"/>
      <point x="195.65952380952382" y="317.7365079365079"/>
      <point x="183.47857142857146" y="317.7365079365079" type="curve" smooth="yes"/>
      <point x="153.0" y="317.7365079365079"/>
      <point x="126.26031746031747" y="343.6460317460318"/>
      <point x="126.26031746031747" y="393.49920634920636" type="curve" smooth="yes"/>
      <point x="126.26031746031747" y="456.4849206349206"/>
      <point x="170.59444444444443" y="496.43333333333334"/>
      <point x="238.79444444444445" y="496.43333333333334" type="curve" smooth="yes"/>
      <point x="318.5619047619047" y="496.43333333333334"/>
      <point x="390.4571428571429" y="438.11269841269836"/>
      <point x="451.2492063492063" y="285.0603174603175" type="curve"/>
      <point x="438.88730158730164" y="356.0111111111111" type="line"/>
      <point x="438.88730158730164" y="-0.09523809523809534" type="line"/>
    </contour>
  </outline>
</glyph>
<glyph name="ta-beng" format="2">
  <advance width="613.6833333333332"/>
  <unicode hex="09A4"/>
  <anchor x="465.3" y="-4.142857142857146" name="bottom"/>
  <anchor x="547.6698412698414" y="0.0" name="bottom.rakaar"/>
  <anchor x="474.7674603174603" y="-4.976190476190482" name="bottom.rvocalic"/>
  <anchor x="398.57619047619045" y="4.071428571428569" name="bottom.virama"/>
  <anchor x="372.2714285714286" y="587.9285714285714" name="top"/>
  <anchor x="373.07063492063486" y="571.547619047619" name="topright"/>
  <anchor x="306.6682539682539" y="0.0" name="vedic"/>
  <outline>
    <contour>
      <point x="369.2928571428572" y="-1.4285714285714306" type="curve" smooth="yes"/>
      <point x="488.8071428571428" y="-1.4285714285714306"/>
      <point x="595.902380952381" y="66.90317460317459"/>
      <point x="595.902380952381" y="240.37857142857143" type="curve" smooth="yes"/>
      <point x="595.902380952381" y="391.1111111111111"/>
      <point x="503.27857142857147" y="503.3571428571429"/>
      <point x="348.5230158730159" y="503.3571428571429" type="curve" smooth="yes"/>
      <point x="250.13095238095232" y="503.3571428571429"/>
      <point x="198.18650793650795" y="445.58412698412695"/>
      <point x="198.18650793650795" y="364.7857142857143" type="curve" smooth="yes"/>
      <point x="198.18650793650795" y="292.3698412698413"/>
      <point x="243.57301587301586" y="234.33015873015867"/>
      <point x="324.6230158730159" y="234.33015873015867" type="curve" smooth="yes"/>
      <point x="398.934126984127" y="234.33015873015867"/>
      <point x="436.39682539682536" y="283.2888888888889"/>
      <point x="436.39682539682536" y="345.5952380952381" type="curve" smooth="yes"/>
      <point x="436.39682539682536" y="389.0722222222222"/>
      <point x="411.6587301587302" y="423.88095238095235"/>
      <point x="394.6634920634921" y="440.42857142857144" type="curve"/>
      <point x="353.4174603174603" y="355.3809523809524" type="line"/>
      <point x="365.23174603174596" y="362.4761904761904"/>
      <point x="388.3420634920635" y="372.66666666666663"/>
      <point x="413.6936507936508" y="372.66666666666663" type="curve" smooth="yes"/>
      <point x="470.52936507936505" y="372.66666666666663"/>
      <point x="510.6928571428571" y="341.55079365079365"/>
      <point x="510.6928571428571" y="271.75" type="curve" smooth="yes"/>
      <point x="510.6928571428571" y="191.50238095238097"/>
      <point x="452.8865079365079" y="143.33809523809524"/>
      <point x="362.82539682539687" y="143.33809523809524" type="curve" smooth="yes"/>
      <point x="227.90396825396823" y="143.33809523809524"/>
      <point x="127.98968253968256" y="229.86190476190475"/>
      <point x="60.84126984126984" y="487.7396825396825" type="curve"/>
      <point x="-0.8158730158730183" y="472.5238095238095" type="line"/>
      <point x="67.65952380952382" y="146.38730158730158"/>
      <point x="174.03015873015872" y="-1.4285714285714306"/>
    </contour>
    <contour>
      <point x="7.662698412698412" y="542.3333333333334" type="line"/>
      <point x="649.4071428571428" y="542.3333333333334" type="line"/>
      <point x="604.186507936508" y="622.0" type="line"/>
      <point x="-35.72380952380952" y="622.0" type="line"/>
    </contour>
  </outline>
</glyph>
<glyph name="tha-beng" format="2">
  <advance width="585.2873015873016"/>
  <unicode hex="09A5"/>
  <anchor x="509.6674603174604" y="35.642857142857146" name="bottom"/>
  <anchor x="516.547619047619" y="94.11904761904762" name="bottom.rakaar"/>
  <anchor x="516.547619047619" y="9.865079365079364" name="bottom.rvocalic"/>
  <anchor x="496.67857142857144" y="17.285714285714285" name="bottom.virama"/>
  <anchor x="478.98412698412693" y="577.9285714285714" name="top"/>
  <anchor x="466.7269841269842" y="568.3809523809524" name="topright"/>
  <anchor x="292.4" y="0.0" name="vedic"/>
  <outline>
    <contour>
      <point x="506.618253968254" y="-28.380952380952383" type="line"/>
      <point x="516.547619047619" y="-25.833333333333336" type="line"/>
      <point x="516.547619047619" y="542.3333333333334" type="line"/>
      <point x="621.0111111111111" y="542.3333333333334" type="line"/>
      <point x="576.7904761904763" y="622.0" type="line"/>
      <point x="506.4428571428571" y="622.0" type="line"/>
      <point x="497.347619047619" y="681.9285714285714" type="line"/>
      <point x="422.4190476190476" y="719.0238095238096" type="line"/>
      <point x="414.4896825396825" y="715.4761904761905" type="line"/>
      <point x="414.4896825396825" y="87.29603174603174" type="line"/>
      <point x="431.9611111111111" y="98.39444444444445" type="line"/>
      <point x="377.1666666666667" y="225.765873015873"/>
      <point x="259.97460317460315" y="268.8436507936508"/>
      <point x="171.5111111111111" y="294.99444444444447" type="curve"/>
      <point x="202.7888888888889" y="248.1206349206349" type="line"/>
      <point x="323.11507936507934" y="262.82142857142856"/>
      <point x="374.9730158730158" y="330.5753968253968"/>
      <point x="374.9730158730158" y="428.7984126984126" type="curve" smooth="yes"/>
      <point x="374.9730158730158" y="550.6619047619048"/>
      <point x="285.5492063492063" y="626.1349206349206"/>
      <point x="177.065873015873" y="626.1349206349206" type="curve" smooth="yes"/>
      <point x="82.60714285714288" y="626.1349206349206"/>
      <point x="19.753968253968253" y="572.4841269841269"/>
      <point x="19.753968253968253" y="498.31904761904764" type="curve" smooth="yes"/>
      <point x="19.753968253968253" y="428.5452380952381"/>
      <point x="62.46666666666667" y="394.8365079365079"/>
      <point x="114.31746031746032" y="394.8365079365079" type="curve" smooth="yes"/>
      <point x="166.91031746031746" y="394.8365079365079"/>
      <point x="198.56825396825394" y="426.1126984126985"/>
      <point x="198.56825396825394" y="473.40396825396823" type="curve" smooth="yes"/>
      <point x="198.56825396825394" y="508.96111111111117"/>
      <point x="184.95476190476188" y="529.6603174603175"/>
      <point x="158.8936507936508" y="541.8619047619048" type="curve"/>
      <point x="161.66746031746035" y="496.2380952380952" type="line"/>
      <point x="174.4825396825397" y="517.2380952380952"/>
      <point x="190.70873015873013" y="529.6388888888888"/>
      <point x="215.86428571428573" y="529.6388888888888" type="curve" smooth="yes"/>
      <point x="253.58968253968257" y="529.6388888888888"/>
      <point x="273.81190476190477" y="499.9896825396825"/>
      <point x="273.81190476190477" y="460.652380952381" type="curve" smooth="yes"/>
      <point x="273.81190476190477" y="373.27777777777777"/>
      <point x="180.68968253968254" y="345.515873015873"/>
      <point x="63.346031746031755" y="346.3904761904762" type="curve"/>
      <point x="117.92857142857142" y="189.2468253968254" type="line"/>
      <point x="247.12142857142854" y="175.45396825396827"/>
      <point x="366.9253968253968" y="119.1277777777778"/>
      <point x="432.0103174603175" y="15.242063492063489" type="curve"/>
    </contour>
  </outline>
</glyph>
<glyph name="da-beng" format="2">
  <advance width="534.070634920635"/>
  <unicode hex="09A6"/>
  <anchor x="452.9111111111111" y="62.672222222222224" name="bottom"/>
  <anchor x="468.11825396825395" y="53.61904761904761" name="bottom.rakaar"/>
  <anchor x="468.8666666666667" y="-41.62301587301587" name="bottom.rvocalic"/>
  <anchor x="452.99206349206344" y="-36.404761904761905" name="bottom.virama"/>
  <anchor x="131.07380952380953" y="587.9285714285714" name="top"/>
  <anchor x="132.1595238095238" y="571.547619047619" name="topright"/>
  <anchor x="266.61825396825395" y="0.0" name="vedic"/>
  <outline>
    <contour>
      <point x="413.58571428571435" y="-79.12142857142858" type="curve"/>
      <point x="468.8666666666667" y="-57.52380952380953" type="line"/>
      <point x="446.0174603174603" y="21.018253968253962"/>
      <point x="439.1928571428572" y="70.4722222222222"/>
      <point x="439.1928571428572" y="134.36666666666667" type="curve" smooth="yes"/>
      <point x="439.1928571428572" y="221.05238095238096"/>
      <point x="464.32301587301583" y="314.7857142857143"/>
      <point x="507.0777777777777" y="389.7857142857143" type="curve"/>
      <point x="382.82301587301583" y="494.02063492063485" type="line"/>
      <point x="293.015873015873" y="442.04523809523806"/>
      <point x="196.11825396825398" y="364.91428571428577"/>
      <point x="136.54365079365078" y="294.8285714285714" type="curve"/>
      <point x="160.9714285714286" y="248.71428571428572" type="line"/>
      <point x="160.9714285714286" y="542.3333333333334" type="line"/>
      <point x="569.7944444444446" y="542.3333333333334" type="line"/>
      <point x="526.4079365079364" y="622.0" type="line"/>
      <point x="-35.72380952380952" y="622.0" type="line"/>
      <point x="8.662698412698413" y="542.3333333333334" type="line"/>
      <point x="58.74761904761906" y="542.3333333333334" type="line"/>
      <point x="58.74761904761906" y="193.98015873015873" type="line"/>
      <point x="160.5793650793651" y="116.71666666666665" type="line"/>
      <point x="245.18968253968256" y="210.83730158730157"/>
      <point x="334.01587301587296" y="296.14841269841264"/>
      <point x="426.49523809523816" y="360.53015873015875" type="curve"/>
      <point x="385.29841269841273" y="391.88095238095235" type="line"/>
      <point x="358.8420634920635" y="322.6706349206349"/>
      <point x="346.90238095238095" y="255.70476190476188"/>
      <point x="346.90238095238095" y="182.11984126984126" type="curve" smooth="yes"/>
      <point x="346.90238095238095" y="79.43333333333332"/>
      <point x="379.2690476190476" y="-9.030158730158742"/>
    </contour>
  </outline>
</glyph>
<glyph name="dha-beng" format="2">
  <advance width="532.1357142857144"/>
  <unicode hex="09A7"/>
  <anchor x="455.7166666666667" y="35.642857142857146" name="bottom"/>
  <anchor x="462.6119047619048" y="94.11904761904762" name="bottom.rakaar"/>
  <anchor x="462.9436507936508" y="9.533333333333333" name="bottom.rvocalic"/>
  <anchor x="443.4063492063492" y="17.285714285714285" name="bottom.virama"/>
  <anchor x="432.19761904761907" y="587.9285714285714" name="top"/>
  <anchor x="433.197619047619" y="571.547619047619" name="topright"/>
  <anchor x="265.92460317460325" y="0.0" name="vedic"/>
  <outline>
    <contour>
      <point x="452.84841269841263" y="-28.380952380952383" type="line"/>
      <point x="462.9436507936508" y="-25.833333333333336" type="line"/>
      <point x="462.9436507936508" y="542.3333333333334" type="line"/>
      <point x="567.6936507936508" y="542.3333333333334" type="line"/>
      <point x="523.020634920635" y="622.0" type="line"/>
      <point x="360.71984126984125" y="622.0" type="line"/>
      <point x="360.71984126984125" y="439.70317460317466" type="line"/>
      <point x="372.79523809523806" y="495.8873015873016" type="line"/>
      <point x="246.10873015873014" y="455.36428571428576"/>
      <point x="112.82857142857142" y="398.40952380952376"/>
      <point x="14.392063492063489" y="333.5976190476191" type="curve"/>
      <point x="81.66111111111111" y="173.8722222222222" type="line"/>
      <point x="201.53492063492067" y="158.8579365079365"/>
      <point x="308.752380952381" y="112.23650793650792"/>
      <point x="378.75317460317456" y="14.744444444444442" type="curve"/>
    </contour>
    <contour>
      <point x="360.71984126984125" y="92.78492063492062" type="line"/>
      <point x="378.5230158730159" y="103.09920634920636" type="line"/>
      <point x="339.9388888888889" y="191.71111111111108"/>
      <point x="244.80634920634918" y="252.97301587301587"/>
      <point x="162.25396825396828" y="275.79126984126987" type="curve"/>
      <point x="169.30555555555557" y="249.74920634920633" type="line"/>
      <point x="228.64603174603175" y="289.4507936507936"/>
      <point x="312.4634920634921" y="328.47301587301587"/>
      <point x="379.397619047619" y="348.29285714285714" type="curve"/>
      <point x="360.71984126984125" y="389.16428571428565" type="line"/>
    </contour>
    <contour>
      <point x="203.9103174603175" y="393.88015873015877" type="curve"/>
      <point x="231.3642857142857" y="429.97539682539684" type="line"/>
      <point x="178.01349206349207" y="435.4428571428572"/>
      <point x="145.71190476190475" y="467.8785714285714"/>
      <point x="145.71190476190475" y="500.87857142857143" type="curve" smooth="yes"/>
      <point x="145.71190476190475" y="533.9642857142858"/>
      <point x="163.7833333333333" y="553.3571428571429"/>
      <point x="194.8793650793651" y="553.3571428571429" type="curve" smooth="yes"/>
      <point x="202.14603174603175" y="553.3571428571429"/>
      <point x="210.61349206349206" y="552.3571428571429"/>
      <point x="219.79444444444445" y="549.3571428571429" type="curve"/>
      <point x="177.7547619047619" y="590.0" type="line"/>
      <point x="169.14126984126983" y="576.452380952381"/>
      <point x="166.5079365079365" y="561.1055555555555"/>
      <point x="166.5079365079365" y="542.2619047619048" type="curve" smooth="yes"/>
      <point x="166.5079365079365" y="501.6190476190476"/>
      <point x="197.53809523809525" y="478.5238095238096"/>
      <point x="232.89523809523808" y="478.5238095238096" type="curve" smooth="yes"/>
      <point x="271.6190476190476" y="478.5238095238096"/>
      <point x="302.3626984126984" y="507.1666666666667"/>
      <point x="302.3626984126984" y="550.3571428571428" type="curve" smooth="yes"/>
      <point x="302.3626984126984" y="600.547619047619"/>
      <point x="267.07142857142856" y="643.8333333333334"/>
      <point x="190.95555555555552" y="643.8333333333334" type="curve" smooth="yes"/>
      <point x="107.37222222222222" y="643.8333333333334"/>
      <point x="54.02936507936508" y="594.1904761904763"/>
      <point x="54.02936507936508" y="521.452380952381" type="curve" smooth="yes"/>
      <point x="54.02936507936508" y="423.5944444444445"/>
      <point x="149.52222222222218" y="393.88015873015877"/>
    </contour>
  </outline>
</glyph>
<glyph name="na-beng" format="2">
  <advance width="553.4944444444445"/>
  <unicode hex="09A8"/>
  <anchor x="466.5015873015872" y="74.0920634920635" name="bottom"/>
  <anchor x="481.0984126984127" y="94.11904761904762" name="bottom.rakaar"/>
  <anchor x="479.23015873015873" y="2.8095238095238084" name="bottom.rvocalic"/>
  <anchor x="459.1603174603175" y="17.285714285714285" name="bottom.virama"/>
  <anchor x="449.0515873015873" y="587.9285714285714" name="top"/>
  <anchor x="450.7047619047619" y="571.547619047619" name="topright"/>
  <anchor x="276.39047619047625" y="0.0" name="vedic"/>
  <outline>
    <contour>
      <point x="469.58730158730157" y="-31.476190476190478" type="line"/>
      <point x="479.23015873015873" y="-28.92857142857143" type="line"/>
      <point x="479.23015873015873" y="542.3333333333334" type="line"/>
      <point x="589.052380952381" y="542.3333333333334" type="line"/>
      <point x="545.665873015873" y="622.0" type="line"/>
      <point x="-35.72380952380952" y="622.0" type="line"/>
      <point x="7.9492063492063485" y="542.3333333333334" type="line"/>
      <point x="377.45873015873013" y="542.3333333333334" type="line"/>
      <point x="377.45873015873013" y="372.69047619047615" type="line" smooth="yes"/>
      <point x="377.45873015873013" y="313.3722222222222"/>
      <point x="384.07222222222225" y="221.6515873015873"/>
      <point x="389.7" y="174.32301587301583" type="curve"/>
      <point x="405.88253968253963" y="185.18412698412698" type="line"/>
      <point x="380.69126984126984" y="305.46746031746034"/>
      <point x="301.0698412698413" y="441.15238095238095"/>
      <point x="160.33333333333337" y="441.15238095238095" type="curve" smooth="yes"/>
      <point x="79.77936507936506" y="441.15238095238095"/>
      <point x="20.292063492063487" y="391.74126984126985"/>
      <point x="20.292063492063487" y="302.32460317460317" type="curve" smooth="yes"/>
      <point x="20.292063492063487" y="223.72777777777776"/>
      <point x="70.9547619047619" y="166.44206349206348"/>
      <point x="149.6436507936508" y="166.44206349206348" type="curve" smooth="yes"/>
      <point x="224.95476190476188" y="166.44206349206348"/>
      <point x="262.8793650793651" y="220.28492063492064"/>
      <point x="262.8793650793651" y="279.0087301587302" type="curve" smooth="yes"/>
      <point x="262.8793650793651" y="306.28492063492064"/>
      <point x="252.43730158730156" y="331.93809523809523"/>
      <point x="227.98015873015873" y="348.7468253968254" type="curve"/>
      <point x="194.42777777777775" y="265.75238095238103" type="line"/>
      <point x="204.60873015873017" y="272.8873015873016"/>
      <point x="225.4785714285714" y="279.69603174603174"/>
      <point x="243.90952380952382" y="279.69603174603174" type="curve" smooth="yes"/>
      <point x="335.6230158730159" y="279.69603174603174"/>
      <point x="383.33333333333337" y="118.57539682539682"/>
      <point x="399.9857142857142" y="19.432539682539684" type="curve"/>
    </contour>
  </outline>
</glyph>
<glyph name="pa-beng" format="2">
  <advance width="673.2912698412699"/>
  <unicode hex="09AA"/>
  <anchor x="586.1833333333334" y="65.67460317460318" name="bottom"/>
  <anchor x="604.2650793650794" y="-19.92857142857143" name="bottom.rakaar"/>
  <anchor x="604.2650793650794" y="-3.0" name="bottom.rvocalic"/>
  <anchor x="564.7658730158731" y="9.095238095238095" name="bottom.virama"/>
  <anchor x="568.1230158730158" y="577.9285714285714" name="top"/>
  <anchor x="555.865873015873" y="568.3809523809524" name="topright"/>
  <anchor x="336.502380952381" y="0.0" name="vedic"/>
  <outline>
    <contour>
      <point x="594.9087301587302" y="-39.38095238095238" type="line"/>
      <point x="604.2650793650794" y="-36.833333333333336" type="line"/>
      <point x="604.2650793650794" y="542.3333333333334" type="line"/>
      <point x="709.0150793650795" y="542.3333333333334" type="line"/>
      <point x="664.3420634920634" y="622.0" type="line"/>
      <point x="593.9944444444445" y="622.0" type="line"/>
      <point x="585.1857142857143" y="681.9285714285714" type="line"/>
      <point x="511.55793650793646" y="719.0238095238096" type="line"/>
      <point x="503.6285714285715" y="715.4761904761905" type="line"/>
      <point x="503.6285714285715" y="545.8063492063492" type="line" smooth="yes"/>
      <point x="503.6285714285715" y="495.56349206349216"/>
      <point x="507.8095238095238" y="444.45476190476194"/>
      <point x="512.3023809523809" y="386.8230158730159" type="curve"/>
      <point x="516.9698412698413" y="394.9603174603174" type="line"/>
      <point x="457.41111111111115" y="554.9436507936508"/>
      <point x="362.1357142857143" y="630.9293650793651"/>
      <point x="255.34365079365077" y="630.9293650793651" type="curve" smooth="yes"/>
      <point x="145.84126984126982" y="630.9293650793651"/>
      <point x="52.331746031746036" y="542.4833333333335"/>
      <point x="-2.483333333333335" y="411.28015873015875" type="curve"/>
      <point x="107.08968253968254" y="320.6063492063492" type="line"/>
      <point x="124.93571428571428" y="339.4809523809524"/>
      <point x="145.67539682539686" y="348.3349206349207"/>
      <point x="164.12777777777777" y="348.3349206349207" type="curve" smooth="yes"/>
      <point x="187.87777777777777" y="348.3349206349207"/>
      <point x="201.64206349206347" y="335.3301587301587"/>
      <point x="201.64206349206347" y="309.7666666666667" type="curve" smooth="yes"/>
      <point x="201.64206349206347" y="276.9865079365079"/>
      <point x="177.6" y="246.94047619047618"/>
      <point x="147.41269841269843" y="222.39841269841267" type="curve"/>
      <point x="248.22539682539684" y="124.44126984126983" type="line"/>
      <point x="477.4547619047619" y="383.94999999999993" type="line"/>
      <point x="390.45476190476194" y="487.0761904761905" type="line"/>
      <point x="235.8984126984127" y="304.75634920634917" type="line"/>
      <point x="246.5571428571429" y="290.6944444444444" type="line"/>
      <point x="257.2452380952381" y="313.22777777777776"/>
      <point x="265.7730158730159" y="334.1015873015873"/>
      <point x="265.7730158730159" y="363.27222222222224" type="curve" smooth="yes"/>
      <point x="265.7730158730159" y="406.2285714285714"/>
      <point x="237.19920634920635" y="433.9825396825396"/>
      <point x="196.95158730158732" y="433.9825396825396" type="curve" smooth="yes"/>
      <point x="170.10555555555555" y="433.9825396825396"/>
      <point x="143.35079365079366" y="423.26825396825393"/>
      <point x="127.16428571428573" y="405.9119047619048" type="curve"/>
      <point x="162.0063492063492" y="383.1738095238095" type="line"/>
      <point x="179.16507936507935" y="455.56111111111113"/>
      <point x="224.734126984127" y="515.4936507936509"/>
      <point x="285.68412698412703" y="515.4936507936509" type="curve" smooth="yes"/>
      <point x="362.9777777777778" y="515.4936507936509"/>
      <point x="450.24920634920636" y="420.1785714285714"/>
      <point x="507.91507936507946" y="266.45238095238085" type="curve"/>
      <point x="502.32777777777784" y="351.63333333333344" type="line"/>
      <point x="502.32777777777784" y="-0.09523809523809534" type="line"/>
    </contour>
  </outline>
</glyph>
